<svg width="24" height="24" viewBox="0 0 24 24" fill="none" xmlns="http://www.w3.org/2000/svg">
<path d="M20.4488 19.7426L16.5423 15.8366C17.7436 14.4745 18.4052 12.7201 18.4023 10.9041C18.4023 8.90055 17.6223 7.01705 16.2058 5.60055C14.7893 4.18405 12.9058 3.40405 10.9028 3.40405C8.89984 3.40405 7.01584 4.18405 5.59884 5.60005C4.18184 7.01605 3.40234 8.90005 3.40234 10.9036C3.40234 12.9071 4.18234 14.7901 5.59884 16.2066C7.01534 17.6231 8.89884 18.4036 10.9023 18.4036C12.7373 18.4036 14.4673 17.7421 15.8348 16.5431L19.7408 20.4491C19.7872 20.4956 19.8423 20.5326 19.9029 20.5579C19.9636 20.5831 20.0286 20.5961 20.0943 20.5961C20.1601 20.5961 20.2251 20.5831 20.2858 20.5579C20.3464 20.5326 20.4015 20.4956 20.4478 20.4491C20.5416 20.3553 20.5942 20.2281 20.5942 20.0956C20.5942 19.963 20.5416 19.8358 20.4478 19.7421L20.4488 19.7426ZM6.30584 15.5001C5.07834 14.2721 4.40234 12.6401 4.40234 10.9041C4.40234 9.16805 5.07834 7.53555 6.30584 6.30755C7.53384 5.08005 9.16584 4.40405 10.9023 4.40405C12.6388 4.40405 14.2708 5.08005 15.4988 6.30755C16.7263 7.53555 17.4028 9.16755 17.4028 10.9041C17.4028 12.6406 16.7263 14.2721 15.4988 15.5001C14.2708 16.7276 12.6388 17.4041 10.9028 17.4041C9.16684 17.4041 7.53334 16.7276 6.30584 15.5001Z" fill="#979797"/>
</svg>
