<svg width="50" height="50" viewBox="0 0 50 50" fill="none" xmlns="http://www.w3.org/2000/svg">
<path fill-rule="evenodd" clip-rule="evenodd" d="M0 0V50H34.4769V48.3281L29.7168 45.5794C29.5902 45.5062 29.4851 45.4009 29.412 45.2742C29.339 45.1475 29.3005 45.0038 29.3006 44.8575V32.9062C29.3004 32.76 29.3388 32.6162 29.4119 32.4895C29.485 32.3627 29.5901 32.2575 29.7168 32.1843L34.4773 29.4357V0H0ZM39.6497 49.3895L30.9668 44.3764V34.3501L39.65 39.3627V49.3895H39.6497ZM50 34.3501L41.3168 39.3637V49.3895L50 44.3764V34.3501ZM40.4832 27.8926L49.1669 32.9062L40.4832 37.9199L31.8 32.9062L40.4832 27.8926ZM3.44463 13.2252V4.27812C3.4446 4.16867 3.46614 4.06028 3.50801 3.95915C3.54989 3.85802 3.61127 3.76613 3.68866 3.68873C3.76605 3.61133 3.85794 3.54993 3.95906 3.50805C4.06019 3.46617 4.16857 3.44462 4.27803 3.44463H13.9558C14.1752 3.447 14.3849 3.53586 14.5393 3.6919C14.6937 3.84795 14.7802 4.05858 14.7802 4.27808C14.7802 4.49757 14.6937 4.70821 14.5393 4.86425C14.3849 5.02029 14.1752 5.10915 13.9558 5.11152H5.11162V12.3917H13.122V9.86084L11.5739 11.2658C11.4152 11.4095 11.2073 11.4866 10.9933 11.4813C10.7793 11.476 10.5755 11.3886 10.424 11.2373L8.52705 9.34082C8.37264 9.18409 8.28646 8.97266 8.2873 8.75265C8.28815 8.53263 8.37595 8.32187 8.53157 8.16634C8.68718 8.0108 8.89798 7.9231 9.118 7.92236C9.33802 7.92162 9.5494 8.00791 9.70605 8.1624L11.0417 9.49815L15.0603 5.85117C15.1412 5.77702 15.236 5.71959 15.3392 5.68219C15.4424 5.64478 15.552 5.62814 15.6617 5.63321C15.7713 5.63828 15.8789 5.66497 15.9782 5.71174C16.0776 5.75851 16.1667 5.82444 16.2404 5.90575C16.3142 5.98706 16.3712 6.08214 16.4081 6.18553C16.445 6.28892 16.4611 6.39858 16.4555 6.50822C16.4499 6.61786 16.4227 6.72531 16.3754 6.8244C16.3282 6.92349 16.2618 7.01227 16.1802 7.08564L14.7885 8.34814V13.2252C14.7885 13.3346 14.767 13.4429 14.7251 13.544C14.6833 13.6451 14.6219 13.7369 14.5446 13.8143C14.4672 13.8916 14.3754 13.953 14.2743 13.9948C14.1732 14.0367 14.0649 14.0582 13.9555 14.0582H4.27773C4.16831 14.0583 4.05994 14.0368 3.95882 13.9949C3.8577 13.9531 3.76582 13.8917 3.68843 13.8144C3.61103 13.737 3.54964 13.6452 3.50776 13.5441C3.46587 13.443 3.44432 13.3346 3.44434 13.2252H3.44463ZM4.27803 19.693H13.9558C14.1752 19.6953 14.3848 19.7842 14.5392 19.9402C14.6935 20.0962 14.78 20.3068 14.78 20.5262C14.78 20.7457 14.6935 20.9562 14.5392 21.1123C14.3848 21.2683 14.1752 21.3571 13.9558 21.3595H5.11162V28.6405H13.122V26.1082L11.5739 27.5137C11.4155 27.6577 11.2077 27.7353 10.9936 27.7303C10.7795 27.7252 10.5756 27.638 10.424 27.4867L8.52705 25.5897C8.37195 25.4331 8.28518 25.2215 8.28572 25.0011C8.28625 24.7807 8.37404 24.5694 8.52989 24.4136C8.68575 24.2577 8.89698 24.1699 9.11739 24.1694C9.3378 24.1689 9.54945 24.2556 9.70605 24.4107L11.0417 25.746L15.0603 22.099C15.2242 21.9518 15.4397 21.8754 15.6597 21.8866C15.8798 21.8979 16.0864 21.9958 16.2345 22.159C16.3825 22.3222 16.4599 22.5373 16.4498 22.7575C16.4396 22.9776 16.3427 23.1847 16.1802 23.3335L14.7885 24.596V29.474C14.7884 29.695 14.7006 29.9068 14.5444 30.0631C14.3882 30.2194 14.1764 30.3073 13.9555 30.3075H4.27773C4.05673 30.3074 3.84483 30.2195 3.68857 30.0632C3.53231 29.9069 3.44447 29.695 3.44434 29.474V20.526C3.44447 20.305 3.53232 20.0932 3.6886 19.937C3.84487 19.7808 4.05678 19.693 4.27773 19.693H4.27803ZM4.27803 35.9418H13.9558C14.1752 35.9442 14.3848 36.033 14.5392 36.189C14.6935 36.345 14.78 36.5556 14.78 36.7751C14.78 36.9945 14.6935 37.2051 14.5392 37.3611C14.3848 37.5171 14.1752 37.6059 13.9558 37.6083H5.11162V44.8885H13.122V42.3575L11.5739 43.7626C11.4152 43.9061 11.2074 43.9833 10.9934 43.9781C10.7794 43.9728 10.5756 43.8857 10.424 43.7346L8.52705 41.8376C8.44971 41.7602 8.38837 41.6683 8.34654 41.5672C8.30471 41.4661 8.2832 41.3577 8.28325 41.2483C8.2833 41.1388 8.3049 41.0305 8.34683 40.9294C8.38875 40.8283 8.45017 40.7365 8.52759 40.6591C8.605 40.5818 8.69689 40.5204 8.79801 40.4786C8.89913 40.4368 9.0075 40.4153 9.11693 40.4153C9.22636 40.4154 9.33471 40.437 9.43579 40.4789C9.53688 40.5208 9.62871 40.5823 9.70605 40.6597L11.0417 41.9948L15.0603 38.3479C15.2242 38.2007 15.4397 38.1243 15.6597 38.1356C15.8798 38.1468 16.0864 38.2447 16.2345 38.4079C16.3825 38.5711 16.4599 38.7863 16.4498 39.0064C16.4396 39.2265 16.3427 39.4336 16.1802 39.5824L14.7885 40.8449V45.722C14.7885 45.8314 14.767 45.9398 14.7252 46.0409C14.6833 46.142 14.622 46.2338 14.5446 46.3112C14.4672 46.3886 14.3754 46.45 14.2743 46.4919C14.1732 46.5338 14.0649 46.5554 13.9555 46.5554H4.27773C4.16828 46.5554 4.0599 46.5339 3.95878 46.492C3.85765 46.4501 3.76577 46.3887 3.68838 46.3113C3.61098 46.2339 3.5496 46.1421 3.50772 46.0409C3.46585 45.9398 3.44431 45.8314 3.44434 45.722V36.7748C3.44436 36.6654 3.46594 36.557 3.50783 36.456C3.54973 36.3549 3.61113 36.2631 3.68851 36.1857C3.7659 36.1083 3.85777 36.047 3.95887 36.0051C4.05997 35.9633 4.16832 35.9418 4.27773 35.9418H4.27803ZM30.1989 5.11172H19.373C19.2628 5.11291 19.1535 5.09224 19.0513 5.05089C18.9492 5.00954 18.8562 4.94833 18.7779 4.87082C18.6995 4.79331 18.6373 4.70103 18.5948 4.59932C18.5524 4.49761 18.5305 4.38849 18.5305 4.27827C18.5305 4.16806 18.5524 4.05893 18.5948 3.95722C18.6373 3.85551 18.6995 3.76323 18.7779 3.68572C18.8562 3.60821 18.9492 3.54701 19.0513 3.50566C19.1535 3.46431 19.2628 3.44363 19.373 3.44482H30.1989C30.4184 3.4472 30.6281 3.53606 30.7825 3.6921C30.9368 3.84814 31.0234 4.05878 31.0234 4.27827C31.0234 4.49777 30.9368 4.7084 30.7825 4.86444C30.6281 5.02049 30.4184 5.10934 30.1989 5.11172ZM19.373 9.58564C19.152 9.58564 18.94 9.49783 18.7837 9.34152C18.6274 9.18521 18.5396 8.97321 18.5396 8.75215C18.5396 8.53109 18.6274 8.31909 18.7837 8.16278C18.94 8.00647 19.152 7.91865 19.373 7.91865H30.1989C30.42 7.91865 30.632 8.00647 30.7883 8.16278C30.9446 8.31909 31.0324 8.53109 31.0324 8.75215C31.0324 8.97321 30.9446 9.18521 30.7883 9.34152C30.632 9.49783 30.42 9.58564 30.1989 9.58564H19.373ZM19.373 19.6939H30.1989C30.3091 19.6928 30.4184 19.7134 30.5206 19.7548C30.6227 19.7961 30.7156 19.8573 30.794 19.9348C30.8723 20.0123 30.9345 20.1045 30.977 20.2062C31.0194 20.3079 31.0412 20.417 31.0412 20.5272C31.0412 20.6374 31.0194 20.7465 30.977 20.8482C30.9345 20.9499 30.8723 21.0421 30.794 21.1196C30.7156 21.1971 30.6227 21.2583 30.5206 21.2996C30.4184 21.341 30.3091 21.3616 30.1989 21.3604H19.373C19.2629 21.3616 19.1535 21.341 19.0514 21.2996C18.9493 21.2583 18.8563 21.1971 18.778 21.1196C18.6997 21.0421 18.6375 20.9499 18.595 20.8482C18.5526 20.7465 18.5307 20.6374 18.5307 20.5272C18.5307 20.417 18.5526 20.3079 18.595 20.2062C18.6375 20.1045 18.6997 20.0123 18.778 19.9348C18.8563 19.8573 18.9493 19.7961 19.0514 19.7548C19.1535 19.7134 19.2629 19.6928 19.373 19.6939ZM19.373 24.1666H30.1989C30.42 24.1666 30.632 24.2544 30.7883 24.4107C30.9446 24.567 31.0324 24.779 31.0324 25.0001C31.0324 25.2212 30.9446 25.4332 30.7883 25.5895C30.632 25.7458 30.42 25.8336 30.1989 25.8336H19.373C19.2636 25.8336 19.1552 25.812 19.0541 25.7701C18.953 25.7283 18.8611 25.6669 18.7837 25.5895C18.7063 25.5121 18.6449 25.4202 18.603 25.3191C18.5611 25.2179 18.5396 25.1096 18.5396 25.0001C18.5396 24.8906 18.5611 24.7823 18.603 24.6811C18.6449 24.58 18.7063 24.4881 18.7837 24.4107C18.8611 24.3333 18.953 24.2719 19.0541 24.23C19.1552 24.1882 19.2636 24.1666 19.373 24.1666ZM19.373 35.9419H24.2614C24.3716 35.9407 24.4809 35.9614 24.5831 36.0027C24.6852 36.0441 24.7781 36.1052 24.8565 36.1827C24.9348 36.2602 24.997 36.3525 25.0394 36.4542C25.0819 36.5559 25.1037 36.665 25.1037 36.7751C25.1037 36.8853 25.0819 36.9944 25.0394 37.0961C24.997 37.1978 24.9348 37.2901 24.8565 37.3676C24.7781 37.4451 24.6852 37.5062 24.5831 37.5476C24.4809 37.5889 24.3716 37.6096 24.2614 37.6084H19.373C19.2629 37.6096 19.1535 37.5889 19.0514 37.5476C18.9493 37.5062 18.8563 37.4451 18.778 37.3676C18.6997 37.2901 18.6375 37.1978 18.595 37.0961C18.5526 36.9944 18.5307 36.8853 18.5307 36.7751C18.5307 36.665 18.5526 36.5559 18.595 36.4542C18.6375 36.3525 18.6997 36.2602 18.778 36.1827C18.8563 36.1052 18.9493 36.0441 19.0514 36.0027C19.1535 35.9614 19.2629 35.9407 19.373 35.9419ZM19.373 40.415H24.2614C24.4824 40.415 24.6943 40.5028 24.8506 40.6591C25.0068 40.8153 25.0946 41.0273 25.0946 41.2482C25.0946 41.4692 25.0068 41.6811 24.8506 41.8374C24.6943 41.9937 24.4824 42.0814 24.2614 42.0814H19.373C19.1521 42.0814 18.9401 41.9937 18.7839 41.8374C18.6276 41.6811 18.5398 41.4692 18.5398 41.2482C18.5398 41.0273 18.6276 40.8153 18.7839 40.6591C18.9401 40.5028 19.1521 40.415 19.373 40.415Z" fill="#FEA700"/>
</svg>
