<svg width="778" height="255" viewBox="0 0 778 255" fill="none" xmlns="http://www.w3.org/2000/svg">
<path d="M697.161 188.99L423.871 254.03L464.011 152.93L697.161 188.99Z" fill="url(#paint0_linear_174_6784)"/>
<path d="M36.3906 189.58L697.161 188.99L698.101 46.65L36.3906 25.73V189.58Z" fill="#540B48"/>
<path d="M680.858 33.5302C680.848 33.5302 680.828 33.5302 680.818 33.5302L371.068 23.4302C370.368 23.4102 369.828 22.8202 369.848 22.1302C369.868 21.4302 370.468 20.9502 371.148 20.9102L680.898 31.0102C681.598 31.0302 682.138 31.6202 682.118 32.3102C682.098 32.9902 681.538 33.5302 680.858 33.5302Z" fill="url(#paint1_linear_174_6784)"/>
<path d="M416.069 244.37C415.919 244.37 415.769 244.34 415.619 244.29C414.969 244.04 414.649 243.31 414.899 242.66L430.959 201.12L252.209 200.68C251.509 200.68 250.949 200.11 250.949 199.42C250.949 198.72 251.519 198.16 252.209 198.16L432.799 198.61C433.219 198.61 433.599 198.82 433.839 199.16C434.069 199.5 434.119 199.94 433.979 200.32L417.259 243.57C417.049 244.06 416.579 244.37 416.069 244.37Z" fill="url(#paint2_linear_174_6784)"/>
<path d="M314.181 51.07C314.171 51.07 314.151 51.07 314.141 51.07L53.2909 42.6C52.5909 42.58 52.0509 41.99 52.0709 41.3C52.0909 40.61 52.6908 40.01 53.3708 40.08L314.221 48.55C314.921 48.57 315.461 49.16 315.441 49.85C315.421 50.53 314.861 51.07 314.181 51.07Z" fill="white"/>
<path d="M27.2483 201.34C26.9183 201.34 26.5983 201.21 26.3583 200.97C26.1183 200.74 25.9883 200.41 25.9883 200.08V126.06C25.9883 125.36 26.5483 124.8 27.2483 124.8C27.9483 124.8 28.5083 125.36 28.5083 126.06V198.81L107.728 198.15C108.448 198.2 108.988 198.71 108.998 199.4C109.008 200.1 108.448 200.67 107.748 200.67L27.2483 201.34Z" fill="url(#paint3_linear_174_6784)"/>
<path d="M7.85 55.5301C3.52 55.5301 0 52.0101 0 47.6801C0 43.3501 3.52 39.8301 7.85 39.8301C12.18 39.8301 15.7 43.3501 15.7 47.6801C15.7 52.0101 12.18 55.5301 7.85 55.5301ZM7.85 42.3501C4.91 42.3501 2.52 44.7401 2.52 47.6801C2.52 50.6201 4.91 53.0101 7.85 53.0101C10.79 53.0101 13.18 50.6201 13.18 47.6801C13.18 44.7401 10.79 42.3501 7.85 42.3501Z" fill="url(#paint4_linear_174_6784)"/>
<path d="M345.838 20.75C341.508 20.75 337.988 17.23 337.988 12.9C337.988 8.57005 341.508 5.05005 345.838 5.05005C350.168 5.05005 353.688 8.57005 353.688 12.9C353.688 17.23 350.168 20.75 345.838 20.75ZM345.838 7.57005C342.898 7.57005 340.508 9.96005 340.508 12.9C340.508 15.84 342.898 18.23 345.838 18.23C348.778 18.23 351.168 15.84 351.168 12.9C351.168 9.96005 348.778 7.57005 345.838 7.57005Z" fill="url(#paint5_linear_174_6784)"/>
<path d="M739.639 124.31C739.419 124.31 739.199 124.25 739.009 124.14L728.829 118.26C728.439 118.03 728.199 117.62 728.199 117.17C728.199 116.72 728.439 116.3 728.829 116.08L739.009 110.2C739.399 109.97 739.879 109.97 740.269 110.2C740.659 110.43 740.899 110.84 740.899 111.29V123.05C740.899 123.5 740.659 123.92 740.269 124.14C740.079 124.25 739.859 124.31 739.639 124.31ZM731.979 117.17L738.379 120.86V113.47L731.979 117.17Z" fill="url(#paint6_linear_174_6784)"/>
<path d="M169.78 217.85C169.56 217.85 169.34 217.79 169.15 217.68C168.76 217.45 168.52 217.04 168.52 216.59V204.83C168.52 204.38 168.76 203.96 169.15 203.74C169.54 203.51 170.02 203.51 170.41 203.74L180.59 209.62C180.98 209.85 181.22 210.26 181.22 210.71C181.22 211.16 180.98 211.58 180.59 211.8L170.41 217.68C170.22 217.79 170 217.85 169.78 217.85ZM171.04 207.02V214.41L177.44 210.72L171.04 207.02Z" fill="url(#paint7_linear_174_6784)"/>
<path d="M661.089 22.3801C661.069 22.3801 661.059 22.3801 661.039 22.3801L448.349 14.6501C447.649 14.6201 447.109 14.0401 447.129 13.3401C447.159 12.6501 447.779 12.1901 448.439 12.1201L661.129 19.8501C661.829 19.8801 662.369 20.4601 662.349 21.1601C662.329 21.8501 661.769 22.3801 661.089 22.3801Z" fill="url(#paint8_linear_174_6784)"/>
<path d="M340.94 212.71C340.93 212.71 340.93 212.71 340.94 212.71L217.42 212.26C216.72 212.26 216.16 211.69 216.16 210.99C216.16 210.3 216.73 209.73 217.42 209.73L340.93 210.18C341.63 210.18 342.19 210.75 342.19 211.45C342.19 212.15 341.63 212.71 340.94 212.71Z" fill="url(#paint9_linear_174_6784)"/>
<path d="M93.7891 136.85V73.3301H109.339C112.279 73.3301 114.839 73.5901 117.019 74.1201C119.199 74.6401 121.139 75.5101 122.839 76.7201C124.539 77.9301 125.819 79.6101 126.689 81.7601C127.559 83.9101 127.979 86.5001 127.949 89.5401C127.919 97.3801 124.809 101.76 118.599 102.68C122.349 103.4 125.159 105.04 127.009 107.6C128.859 110.17 129.799 113.77 129.829 118.42C129.859 124.45 128.349 129.03 125.309 132.15C122.269 135.28 117.839 136.84 112.019 136.84H93.7891V136.85ZM105.359 99.2301H108.959C112.359 99.2301 114.689 98.5001 115.969 97.0501C117.249 95.5901 117.889 93.1401 117.889 89.7001C117.889 87.9101 117.679 86.4601 117.259 85.3501C116.839 84.2401 116.129 83.4001 115.129 82.8401C114.129 82.2801 113.029 81.9101 111.819 81.7301C110.609 81.5501 108.989 81.4601 106.969 81.4601H105.359V99.2301ZM105.359 128.69H109.609C113.059 128.69 115.449 127.89 116.769 126.28C118.099 124.67 118.759 122.02 118.759 118.31C118.759 114.48 118.009 111.7 116.519 109.98C115.029 108.26 112.519 107.39 108.989 107.39H105.349V128.69H105.359Z" fill="#FFBF00"/>
<path d="M139.258 136.85V73.3301H150.678V136.85H139.258Z" fill="#FFBF00"/>
<path d="M177.91 137.69C171.91 137.69 167.59 135.81 164.94 132.06C162.3 128.31 160.98 122.84 160.98 115.66V94.9801C160.98 91.3301 161.27 88.1801 161.84 85.5401C162.41 82.9001 163.38 80.5801 164.73 78.5901C166.08 76.6001 167.95 75.1001 170.32 74.1101C172.69 73.1201 175.61 72.6201 179.05 72.6201C185.33 72.6201 189.84 74.1601 192.57 77.2401C195.3 80.3201 196.67 84.9901 196.67 91.2401V94.3401H185.6V91.0501C185.6 89.6501 185.57 88.5001 185.5 87.6001C185.44 86.7101 185.28 85.8101 185.04 84.9001C184.8 83.9901 184.45 83.3001 183.99 82.8101C183.53 82.3301 182.9 81.9301 182.11 81.6201C181.32 81.3101 180.35 81.1601 179.2 81.1601C178.33 81.1601 177.56 81.2701 176.88 81.4901C176.2 81.7101 175.63 81.9801 175.18 82.2901C174.72 82.6101 174.33 83.0601 174.01 83.6501C173.69 84.2401 173.45 84.8101 173.28 85.3501C173.11 85.9001 172.99 86.6101 172.9 87.4801C172.81 88.3501 172.75 89.1101 172.73 89.7801C172.7 90.4401 172.69 91.3001 172.69 92.3501V117.98C172.69 121.81 173.16 124.61 174.11 126.39C175.06 128.17 176.86 129.05 179.51 129.05C180.89 129.05 182.05 128.79 182.98 128.26C183.91 127.74 184.64 126.94 185.16 125.88C185.68 124.82 186.05 123.61 186.27 122.24C186.49 120.87 186.6 119.22 186.6 117.28V112.07H179.74V104.6H197.02V136.86H189.51L188.67 130.42C186.76 135.27 183.17 137.69 177.91 137.69Z" fill="#FFBF00"/>
<path d="M228.059 136.85V73.3301H242.849C246.679 73.3301 249.889 73.7101 252.469 74.4801C255.049 75.2501 257.119 76.4601 258.679 78.1201C260.239 79.7801 261.339 81.8201 261.989 84.2301C262.639 86.6401 262.969 89.6101 262.969 93.1401V116.05C262.969 119.68 262.639 122.75 261.969 125.28C261.309 127.81 260.209 129.95 258.689 131.72C257.169 133.48 255.149 134.78 252.619 135.61C250.089 136.44 246.989 136.86 243.309 136.86H228.059V136.85ZM239.629 128.73H242.919C244.069 128.73 245.079 128.63 245.949 128.42C246.819 128.22 247.549 127.97 248.129 127.69C248.719 127.41 249.209 126.95 249.599 126.31C249.999 125.67 250.299 125.08 250.499 124.55C250.699 124.01 250.859 123.2 250.959 122.12C251.059 121.03 251.129 120.11 251.149 119.34C251.169 118.57 251.189 117.44 251.189 115.93V92.7201C251.189 91.2101 251.159 90.0001 251.109 89.0801C251.059 88.1601 250.939 87.2301 250.749 86.3001C250.559 85.3701 250.279 84.6501 249.909 84.1401C249.539 83.6301 249.049 83.1601 248.439 82.7401C247.829 82.3201 247.059 82.0301 246.139 81.8601C245.219 81.6901 244.109 81.6101 242.809 81.6101H239.629V128.73Z" fill="#FFBF00"/>
<path d="M273.367 136.85V73.3301H284.787V136.85H273.367Z" fill="#FFBF00"/>
<path d="M303.017 136.85L293.938 73.3301H303.668L308.878 114.28L315.658 73.3301H323.438L330.367 114.32L335.577 73.3301H345.117L336.038 136.85H326.807L319.647 94.4401L312.527 136.85H303.017Z" fill="#FFBF00"/>
<path d="M348.719 136.85L361.629 73.3301H373.699L386.569 136.85H375.809L373.239 122.1H362.239L359.639 136.85H348.719ZM363.469 114.55H371.969L367.719 88.4601L363.469 114.55Z" fill="#FFBF00"/>
<path d="M394.379 136.85V73.3301H405.949V128.84H421.159V136.85H394.379Z" fill="#FFBF00"/>
<path d="M429.211 136.85V73.3301H440.631V136.85H429.211Z" fill="#FFBF00"/>
<path d="M488.698 137.61C477.508 137.61 471.638 131.15 471.078 118.23L481.158 116.12C481.408 124.52 483.818 128.72 488.358 128.72C490.118 128.72 491.428 128.18 492.288 127.11C493.148 126.04 493.568 124.59 493.568 122.78C493.568 121.02 493.248 119.4 492.608 117.93C491.968 116.46 491.228 115.26 490.388 114.33C489.548 113.4 488.348 112.24 486.788 110.86L478.438 103.62C475.988 101.47 474.158 99.2501 472.958 96.9401C471.758 94.6301 471.158 91.7401 471.158 88.2601C471.158 83.3301 472.608 79.5001 475.508 76.7701C478.408 74.0401 482.388 72.6501 487.438 72.5901C489.758 72.5701 491.818 72.8501 493.608 73.4501C495.398 74.0501 496.868 74.8501 498.028 75.8601C499.188 76.8701 500.158 78.1301 500.938 79.6301C501.718 81.1401 502.298 82.7001 502.678 84.3201C503.058 85.9401 503.328 87.7501 503.478 89.7401L493.598 91.6901C493.548 90.4101 493.468 89.3001 493.348 88.3601C493.228 87.4201 493.038 86.4601 492.758 85.4901C492.478 84.5201 492.108 83.7301 491.668 83.1301C491.218 82.5301 490.618 82.0501 489.868 81.6901C489.118 81.3301 488.238 81.1901 487.248 81.2701C485.538 81.3701 484.228 81.9401 483.318 82.9701C482.408 84.0001 481.958 85.3901 481.958 87.1301C481.958 89.1701 482.358 90.8501 483.168 92.1701C483.968 93.4901 485.228 94.9001 486.938 96.4001L495.208 103.6C496.588 104.85 497.788 106.06 498.808 107.24C499.828 108.41 500.808 109.76 501.738 111.26C502.668 112.77 503.378 114.43 503.868 116.24C504.348 118.05 504.598 119.97 504.598 121.99C504.598 126.61 503.138 130.37 500.208 133.25C497.278 136.17 493.448 137.61 488.698 137.61Z" fill="#FFBF00"/>
<path d="M509.648 136.85L522.558 73.3301H534.628L547.498 136.85H536.738L534.168 122.1H523.168L520.568 136.85H509.648ZM524.398 114.55H532.898L528.648 88.4601L524.398 114.55Z" fill="#FFBF00"/>
<path d="M555.309 136.85V73.3301H566.879V128.84H582.089V136.85H555.309Z" fill="#FFBF00"/>
<path d="M589.789 136.85V73.3301H616.379V81.4901H601.359V99.7201H613.239V107.88H601.359V128.84H616.569V136.85H589.789Z" fill="#FFBF00"/>
<path d="M777.571 147.37C777.571 152.47 776.981 157.51 775.861 162.4C774.111 170.06 771.071 177.34 766.981 183.92C766.651 184.45 766.321 184.99 765.971 185.51C763.961 188.56 761.731 191.45 759.301 194.15C758.941 194.55 758.581 194.94 758.211 195.33C756.261 197.4 754.181 199.35 752.001 201.15C751.461 201.6 750.921 202.03 750.371 202.46C739.791 210.66 726.841 215.64 712.861 215.64C697.611 215.64 683.601 210.36 672.541 201.54C672.101 201.2 671.671 200.84 671.241 200.47C669.161 198.72 667.191 196.85 665.351 194.85C664.881 194.35 664.431 193.84 663.981 193.32C662.271 191.36 660.691 189.3 659.231 187.15C658.941 186.73 658.671 186.31 658.401 185.88C654.661 180.07 651.821 173.62 650.091 166.73C648.821 161.67 648.141 156.37 648.141 150.91C648.141 150.13 648.161 149.35 648.181 148.58C653.171 156.61 662.081 162.03 672.061 162.03C682.541 162.03 691.841 156.05 696.661 147.36C707.001 158.89 721.961 163.64 738.361 163.64C758.261 163.65 777.571 147.07 777.571 147.37Z" fill="#FFB200"/>
<path d="M775.86 162.4C774.11 170.06 771.07 177.34 766.98 183.92C766.65 184.45 766.32 184.99 765.97 185.51C763.96 188.56 761.73 191.45 759.3 194.15C758.94 194.55 758.58 194.94 758.21 195.33C756.26 197.4 754.18 199.35 752 201.15C751.46 201.6 750.92 202.03 750.37 202.46C739.79 210.66 726.84 215.64 712.86 215.64C697.61 215.64 683.6 210.36 672.54 201.54C672.1 201.2 671.67 200.84 671.24 200.47C669.16 198.72 667.19 196.85 665.35 194.85C664.88 194.35 664.43 193.84 663.98 193.32C662.27 191.36 660.69 189.3 659.23 187.15C658.94 186.73 658.67 186.31 658.4 185.88C654.66 180.07 651.82 173.62 650.09 166.73C654.95 168.8 665.54 170.96 672.07 170.96C681.81 170.96 691.42 166.06 698.1 159.16C708.66 167.41 722.7 172.56 738.95 172.56C750.68 172.57 763.1 170.85 775.86 162.4Z" fill="url(#paint10_linear_174_6784)"/>
<path d="M766.992 183.93C766.662 184.46 766.332 185 765.982 185.52C755.952 189.68 746.522 190.34 738.932 190.34C723.482 190.34 709.382 185.77 698.132 177.12C690.932 184.41 681.212 188.75 672.062 188.75C668.382 188.75 663.602 188.09 659.232 187.16C658.942 186.74 658.672 186.32 658.402 185.89C662.962 186.91 668.162 187.68 672.062 187.68C681.072 187.68 690.662 183.33 697.702 176.04L698.042 175.7L698.422 175.99C709.542 184.68 723.552 189.27 738.942 189.27C746.772 189.28 756.592 188.56 766.992 183.93Z" fill="#FFB200"/>
<path d="M752 201.15C751.46 201.6 750.92 202.03 750.37 202.46C746.86 202.91 743.12 203.14 738.93 203.14C723.48 203.14 709.38 198.57 698.13 189.92C691.05 197.08 681.551 201.39 672.531 201.54C672.091 201.2 671.66 200.84 671.23 200.47C671.51 200.47 671.79 200.48 672.05 200.48C681.06 200.48 690.65 196.13 697.69 188.84L698.031 188.5L698.41 188.79C709.53 197.48 723.54 202.07 738.93 202.07C743.79 202.08 748.03 201.78 752 201.15Z" fill="#FFB200"/>
<path d="M739.88 195.44C739.88 195.44 739.88 195.44 739.87 195.44C739.29 195.44 738.81 195.92 738.82 196.51C738.82 196.8 738.94 197.07 739.13 197.26C739.32 197.45 739.59 197.57 739.88 197.57H739.891C740.471 197.57 740.94 197.09 740.94 196.51C740.94 196.51 740.94 196.51 740.94 196.5C740.93 195.91 740.46 195.44 739.88 195.44ZM736.201 195.39H736.16C735.59 195.39 735.12 195.84 735.1 196.41C735.08 196.99 735.54 197.48 736.12 197.51H736.16C736.73 197.51 737.2 197.06 737.22 196.49V196.45C737.23 195.89 736.781 195.41 736.201 195.39ZM743.591 195.34H743.54C742.95 195.37 742.501 195.86 742.531 196.45C742.561 197.02 743.021 197.47 743.591 197.47C743.601 197.47 743.631 197.47 743.641 197.46C744.211 197.43 744.651 196.97 744.651 196.4V196.36C744.621 195.78 744.151 195.34 743.591 195.34ZM732.55 195.17C732.52 195.17 732.491 195.17 732.451 195.17C731.91 195.17 731.441 195.59 731.401 196.14C731.351 196.72 731.78 197.24 732.36 197.29C732.39 197.29 732.421 197.29 732.461 197.29C733.001 197.29 733.471 196.87 733.521 196.32C733.521 196.29 733.521 196.26 733.521 196.23C733.521 195.68 733.1 195.22 732.55 195.17ZM748.35 196.06C748.3 195.51 747.84 195.09 747.29 195.09C747.26 195.09 747.23 195.09 747.201 195.1C746.62 195.14 746.19 195.67 746.24 196.25C746.29 196.8 746.75 197.21 747.29 197.21C747.32 197.21 747.35 197.21 747.38 197.21C747.93 197.17 748.35 196.7 748.35 196.15C748.36 196.12 748.36 196.09 748.35 196.06ZM728.92 194.76C728.87 194.76 728.821 194.75 728.771 194.75C728.251 194.75 727.8 195.14 727.72 195.66C727.64 196.24 728.04 196.78 728.63 196.86C728.68 196.86 728.731 196.87 728.771 196.87C729.301 196.87 729.75 196.48 729.82 195.95C729.83 195.9 729.831 195.86 729.831 195.81C729.831 195.29 729.45 194.83 728.92 194.76ZM752.031 195.58C751.951 195.05 751.5 194.67 750.97 194.67C750.92 194.67 750.881 194.67 750.831 194.68C750.251 194.76 749.85 195.3 749.93 195.88C750 196.41 750.46 196.79 750.98 196.79C751.03 196.79 751.08 196.79 751.13 196.78C751.66 196.7 752.04 196.25 752.04 195.72C752.04 195.68 752.041 195.63 752.031 195.58ZM725.31 194.16C725.24 194.14 725.17 194.14 725.1 194.14C724.6 194.14 724.16 194.49 724.06 195C723.95 195.58 724.331 196.13 724.901 196.25V196.24C724.961 196.26 725.03 196.26 725.1 196.26C725.6 196.26 726.041 195.91 726.141 195.4C726.151 195.33 726.16 195.26 726.16 195.2C726.17 194.7 725.82 194.26 725.31 194.16ZM755.68 194.91C755.58 194.4 755.141 194.05 754.651 194.05C754.581 194.05 754.51 194.05 754.44 194.07C753.86 194.18 753.49 194.74 753.61 195.31C753.71 195.81 754.151 196.17 754.651 196.17C754.721 196.17 754.79 196.17 754.86 196.15C755.36 196.05 755.711 195.61 755.711 195.12C755.701 195.04 755.7 194.97 755.68 194.91ZM672.63 194.17C672.44 193.97 672.17 193.85 671.88 193.85C671.88 193.85 671.88 193.85 671.87 193.85C671.29 193.85 670.82 194.33 670.81 194.91C670.81 195.5 671.28 195.98 671.87 195.98C671.87 195.98 671.87 195.98 671.88 195.98C672.17 195.98 672.44 195.86 672.63 195.67C672.82 195.48 672.94 195.22 672.94 194.93C672.93 194.62 672.82 194.36 672.63 194.17ZM668.26 193.65C668.26 193.66 668.26 193.66 668.26 193.65C668.22 193.65 668.191 193.65 668.151 193.65C667.611 193.65 667.15 194.06 667.1 194.61C667.04 195.19 667.47 195.72 668.05 195.77C668.09 195.77 668.121 195.77 668.151 195.77C668.691 195.77 669.151 195.36 669.211 194.8C669.221 194.77 669.22 194.74 669.22 194.71C669.23 194.17 668.81 193.7 668.26 193.65ZM676.63 194.58C676.57 194.03 676.1 193.64 675.56 193.64C675.52 193.64 675.48 193.64 675.44 193.64C674.86 193.71 674.44 194.24 674.51 194.83C674.57 195.36 675.03 195.76 675.57 195.76C675.61 195.76 675.65 195.76 675.69 195.76C676.24 195.7 676.63 195.23 676.63 194.7C676.64 194.66 676.64 194.62 676.63 194.58ZM721.74 193.37C721.65 193.35 721.57 193.33 721.48 193.33C721.01 193.33 720.57 193.66 720.451 194.14C720.311 194.71 720.66 195.29 721.22 195.43C721.31 195.45 721.39 195.46 721.48 195.46C721.48 195.46 721.48 195.46 721.49 195.46C721.96 195.46 722.39 195.14 722.51 194.66C722.53 194.58 722.54 194.48 722.54 194.4C722.54 193.92 722.22 193.49 721.74 193.37ZM759.31 194.15C759.3 194.1 759.291 194.05 759.281 194C759.151 193.53 758.73 193.21 758.26 193.21C758.171 193.21 758.08 193.22 757.99 193.25C757.42 193.4 757.08 193.98 757.23 194.55C757.35 195.01 757.76 195.32 758.22 195.34C758.23 195.34 758.25 195.34 758.26 195.34C758.35 195.34 758.44 195.33 758.54 195.3C759.01 195.17 759.331 194.74 759.331 194.27C759.321 194.23 759.31 194.19 759.31 194.15ZM664.63 193.22C664.58 193.21 664.52 193.21 664.47 193.21C664.3 193.21 664.13 193.25 663.98 193.33C664.43 193.85 664.88 194.36 665.35 194.86C665.44 194.73 665.501 194.58 665.531 194.41C665.531 194.36 665.54 194.3 665.54 194.26C665.53 193.74 665.16 193.3 664.63 193.22ZM680.26 193.81C680.15 193.32 679.71 192.99 679.23 192.99C679.15 192.99 679.07 192.99 678.99 193.02C678.42 193.16 678.071 193.73 678.201 194.3C678.321 194.79 678.75 195.12 679.23 195.12C679.31 195.12 679.39 195.11 679.47 195.09C679.95 194.97 680.29 194.54 680.29 194.06C680.29 193.97 680.28 193.89 680.26 193.81ZM718.22 192.38C718.12 192.35 718.011 192.33 717.901 192.33C717.451 192.33 717.031 192.62 716.891 193.07C716.711 193.63 717.031 194.22 717.591 194.4C717.701 194.43 717.801 194.44 717.901 194.44C718.361 194.44 718.78 194.15 718.91 193.7C718.94 193.59 718.961 193.49 718.961 193.38C718.971 192.94 718.68 192.52 718.22 192.38ZM683.79 192.66C683.64 192.22 683.23 191.95 682.79 191.95C682.67 191.95 682.55 191.97 682.43 192.02C681.87 192.22 681.591 192.82 681.781 193.37C681.931 193.81 682.341 194.08 682.781 194.08C682.901 194.08 683.01 194.06 683.13 194.01C683.57 193.86 683.841 193.45 683.841 193.01C683.851 192.89 683.83 192.77 683.79 192.66ZM714.771 191.2C714.651 191.15 714.521 191.13 714.401 191.13C713.971 191.13 713.57 191.39 713.41 191.82C713.2 192.37 713.481 192.98 714.031 193.18C714.151 193.23 714.281 193.25 714.401 193.25C714.831 193.25 715.231 192.99 715.401 192.56C715.441 192.44 715.461 192.31 715.461 192.19C715.461 191.77 715.201 191.36 714.771 191.2ZM687.19 191.15C687.01 190.76 686.63 190.54 686.23 190.54C686.08 190.54 685.921 190.57 685.781 190.64C685.251 190.88 685.021 191.52 685.271 192.05C685.451 192.44 685.83 192.66 686.24 192.66C686.39 192.66 686.54 192.63 686.69 192.56C687.08 192.38 687.3 192 687.3 191.6C687.28 191.44 687.25 191.29 687.19 191.15ZM711.391 189.82C711.251 189.76 711.101 189.73 710.961 189.73C710.551 189.73 710.16 189.96 709.99 190.36C709.76 190.89 709.991 191.52 710.531 191.76C710.671 191.82 710.821 191.85 710.961 191.85C711.371 191.85 711.76 191.61 711.93 191.22C711.99 191.08 712.021 190.93 712.021 190.79C712.021 190.38 711.781 189.99 711.391 189.82ZM690.42 189.33C690.22 189 689.87 188.81 689.5 188.81C689.32 188.81 689.131 188.85 688.961 188.96C688.461 189.26 688.291 189.91 688.581 190.41C688.781 190.74 689.13 190.94 689.49 190.94C689.68 190.94 689.861 190.89 690.031 190.79C690.361 190.59 690.56 190.24 690.56 189.87C690.57 189.68 690.52 189.5 690.42 189.33ZM708.091 188.25C707.941 188.17 707.77 188.13 707.61 188.13C707.22 188.13 706.86 188.34 706.67 188.7C706.4 189.22 706.61 189.86 707.12 190.13C707.28 190.21 707.44 190.25 707.61 190.25C707.99 190.25 708.36 190.04 708.55 189.67C708.63 189.51 708.67 189.35 708.67 189.19C708.67 188.81 708.461 188.44 708.091 188.25ZM693.48 187.22C693.27 186.93 692.94 186.78 692.62 186.78C692.4 186.78 692.19 186.84 692 186.98C691.53 187.32 691.42 187.98 691.76 188.46C691.97 188.75 692.29 188.9 692.62 188.9C692.83 188.9 693.05 188.84 693.24 188.7C693.53 188.49 693.68 188.17 693.68 187.84C693.67 187.62 693.61 187.4 693.48 187.22ZM704.901 186.48C704.731 186.38 704.55 186.33 704.36 186.33C704 186.33 703.64 186.52 703.451 186.85C703.151 187.35 703.32 188 703.82 188.3C703.99 188.4 704.18 188.45 704.36 188.45C704.72 188.45 705.081 188.26 705.271 187.94C705.371 187.77 705.42 187.58 705.42 187.4C705.43 187.03 705.241 186.68 704.901 186.48ZM696.331 184.84C696.121 184.6 695.831 184.47 695.531 184.47C695.291 184.47 695.041 184.55 694.831 184.73C694.391 185.11 694.34 185.78 694.73 186.22C694.94 186.46 695.231 186.59 695.531 186.59C695.781 186.59 696.02 186.51 696.23 186.33C696.47 186.12 696.6 185.82 696.6 185.53C696.59 185.28 696.501 185.04 696.331 184.84ZM701.831 184.52C701.831 184.53 701.831 184.53 701.831 184.52C701.641 184.4 701.44 184.34 701.23 184.34C700.89 184.34 700.56 184.5 700.35 184.8C700.02 185.29 700.14 185.95 700.63 186.27C700.81 186.4 701.02 186.46 701.23 186.46C701.57 186.46 701.9 186.3 702.11 185.99C702.24 185.81 702.29 185.6 702.29 185.4C702.29 185.06 702.141 184.73 701.831 184.52ZM698.88 182.38C698.69 182.23 698.46 182.16 698.23 182.16C697.92 182.16 697.601 182.3 697.391 182.57C697.041 183.03 697.111 183.7 697.581 184.06C697.771 184.21 698 184.28 698.23 184.28C698.55 184.28 698.86 184.14 699.07 183.87C699.22 183.68 699.29 183.44 699.29 183.22C699.29 182.9 699.15 182.59 698.88 182.38Z" fill="#FFB200"/>
<path d="M654.099 171.96C653.809 171.96 653.539 171.85 653.349 171.65C653.249 171.55 653.169 171.44 653.119 171.3C653.059 171.18 653.039 171.04 653.039 170.89C653.039 170.76 653.059 170.62 653.119 170.48C653.169 170.36 653.249 170.24 653.349 170.15C653.739 169.76 654.449 169.74 654.849 170.15C654.949 170.25 655.019 170.35 655.079 170.48C655.129 170.61 655.149 170.75 655.149 170.89C655.149 171.03 655.129 171.18 655.079 171.3C655.019 171.43 654.949 171.55 654.849 171.65C654.739 171.76 654.629 171.83 654.499 171.89C654.369 171.93 654.239 171.96 654.099 171.96Z" fill="#F7AC34"/>
<path d="M672.039 174.71C671.439 174.71 670.979 174.23 670.979 173.65C670.979 173.07 671.459 172.59 672.039 172.59C672.619 172.59 673.099 173.07 673.099 173.65C673.099 174.23 672.629 174.71 672.039 174.71ZM668.319 174.53C667.739 174.48 667.289 173.97 667.339 173.38C667.399 172.8 667.909 172.37 668.499 172.41C669.069 172.46 669.509 172.97 669.469 173.56C669.419 174.12 668.959 174.54 668.409 174.54C668.369 174.54 668.339 174.53 668.319 174.53ZM674.619 173.57C674.549 172.99 674.969 172.46 675.549 172.39C676.129 172.33 676.659 172.75 676.719 173.33C676.789 173.91 676.369 174.44 675.789 174.5C675.739 174.5 675.709 174.51 675.669 174.51C675.129 174.51 674.679 174.1 674.619 173.57ZM664.649 174.13C664.069 174.05 663.659 173.51 663.739 172.92C663.819 172.35 664.349 171.94 664.929 172.01C665.509 172.09 665.919 172.63 665.839 173.21C665.769 173.73 665.309 174.12 664.789 174.12C664.739 174.13 664.689 174.13 664.649 174.13ZM678.219 173.08C678.089 172.51 678.459 171.93 679.029 171.82C679.599 171.69 680.159 172.05 680.299 172.63C680.419 173.19 680.059 173.76 679.489 173.88C679.409 173.9 679.339 173.9 679.259 173.9C678.769 173.9 678.329 173.57 678.219 173.08ZM661.009 173.54C660.439 173.43 660.039 172.88 660.149 172.31C660.259 171.73 660.809 171.34 661.379 171.45C661.959 171.56 662.349 172.11 662.239 172.68C662.139 173.19 661.699 173.55 661.199 173.55C661.139 173.55 661.069 173.55 661.009 173.54ZM681.749 172.22C681.569 171.66 681.879 171.06 682.429 170.88C682.989 170.7 683.589 171 683.769 171.56C683.959 172.12 683.649 172.72 683.089 172.9C682.979 172.94 682.879 172.96 682.769 172.96C682.309 172.96 681.899 172.67 681.749 172.22ZM657.389 172.81C656.819 172.68 656.459 172.11 656.589 171.55C656.719 170.98 657.279 170.61 657.849 170.74C658.419 170.87 658.779 171.43 658.649 172C658.539 172.5 658.099 172.84 657.619 172.84C657.549 172.84 657.479 172.83 657.389 172.81ZM685.199 171.03C684.959 170.49 685.209 169.87 685.749 169.63C686.289 169.4 686.919 169.65 687.149 170.19C687.379 170.73 687.129 171.35 686.589 171.59C686.459 171.65 686.319 171.67 686.169 171.67C685.759 171.67 685.369 171.43 685.199 171.03ZM688.519 169.53C688.229 169.02 688.419 168.37 688.949 168.09C689.459 167.82 690.109 168.01 690.379 168.53C690.649 169.04 690.459 169.69 689.949 169.96C689.789 170.04 689.619 170.09 689.449 170.09C689.069 170.09 688.709 169.89 688.519 169.53ZM691.679 167.76C691.359 167.26 691.499 166.6 691.989 166.28C692.479 165.97 693.149 166.1 693.459 166.59C693.779 167.08 693.649 167.74 693.159 168.06C692.969 168.18 692.779 168.24 692.579 168.24C692.229 168.23 691.879 168.07 691.679 167.76ZM694.699 165.7C694.339 165.23 694.409 164.58 694.879 164.21C695.339 163.85 696.009 163.94 696.369 164.4C696.729 164.85 696.639 165.52 696.189 165.89C695.989 166.03 695.759 166.1 695.529 166.1C695.219 166.11 694.899 165.98 694.699 165.7Z" fill="#F7AC34"/>
<path d="M698.308 163.75C698.178 163.75 698.038 163.73 697.898 163.67C697.768 163.62 697.648 163.54 697.548 163.44C697.358 163.24 697.238 162.96 697.238 162.69C697.238 162.55 697.268 162.42 697.318 162.28C697.378 162.15 697.448 162.03 697.548 161.93C697.648 161.83 697.758 161.75 697.898 161.7C698.288 161.53 698.758 161.63 699.058 161.93C699.158 162.03 699.238 162.14 699.288 162.28C699.348 162.41 699.368 162.54 699.368 162.69C699.368 162.96 699.258 163.24 699.058 163.44C698.858 163.64 698.588 163.75 698.308 163.75Z" fill="#F7AC34"/>
<path d="M738.57 175.24C738.57 174.67 739.03 174.18 739.62 174.18C740.22 174.18 740.69 174.64 740.69 175.24C740.69 175.82 740.21 176.3 739.64 176.3C739.63 176.3 739.63 176.3 739.63 176.3C739.05 176.3 738.57 175.82 738.57 175.24ZM735.93 176.24C735.35 176.23 734.89 175.73 734.9 175.14C734.92 174.56 735.41 174.1 736.01 174.13C736.58 174.15 737.05 174.64 737.02 175.23C737 175.8 736.53 176.26 735.96 176.26C735.96 176.25 735.94 176.25 735.93 176.24ZM742.23 175.2C742.21 174.62 742.66 174.11 743.24 174.1C743.82 174.08 744.33 174.53 744.35 175.11C744.37 175.69 743.91 176.18 743.32 176.21C743.31 176.21 743.3 176.21 743.28 176.21C742.72 176.22 742.26 175.77 742.23 175.2ZM732.23 176.02C731.65 175.97 731.2 175.46 731.25 174.86C731.31 174.29 731.82 173.85 732.41 173.89C732.98 173.95 733.42 174.46 733.38 175.05C733.33 175.6 732.87 176.02 732.32 176.02C732.29 176.02 732.26 176.02 732.23 176.02ZM745.9 175.02C745.85 174.44 746.28 173.92 746.87 173.87C747.45 173.82 747.97 174.26 748.02 174.85C748.07 175.42 747.63 175.94 747.05 175.98C747.02 175.99 746.99 175.99 746.95 175.99C746.4 176 745.93 175.58 745.9 175.02ZM728.54 175.62C727.97 175.54 727.55 175 727.63 174.43C727.71 173.85 728.24 173.44 728.82 173.52C729.4 173.59 729.81 174.13 729.73 174.71C729.66 175.23 729.2 175.63 728.68 175.63C728.63 175.63 728.58 175.62 728.54 175.62ZM749.53 174.69C749.46 174.11 749.86 173.58 750.45 173.5C751.02 173.43 751.56 173.83 751.63 174.42C751.71 174.99 751.3 175.53 750.72 175.6V175.61C750.67 175.61 750.62 175.61 750.59 175.61C750.06 175.61 749.61 175.22 749.53 174.69ZM724.87 175.03C724.3 174.92 723.92 174.37 724.02 173.79C724.13 173.22 724.68 172.84 725.26 172.94C725.83 173.05 726.21 173.6 726.11 174.18C726.01 174.69 725.57 175.04 725.06 175.04C725 175.05 724.94 175.05 724.87 175.03ZM753.16 174.18C753.05 173.6 753.43 173.05 754.01 172.94C754.58 172.83 755.14 173.21 755.25 173.79C755.36 174.36 754.98 174.92 754.4 175.03C754.33 175.04 754.27 175.04 754.2 175.04C753.7 175.03 753.26 174.69 753.16 174.18ZM721.25 174.26C720.68 174.13 720.32 173.56 720.46 172.98C720.59 172.41 721.16 172.06 721.74 172.19C722.31 172.33 722.66 172.91 722.53 173.47C722.41 173.96 721.98 174.29 721.49 174.29C721.41 174.29 721.33 174.28 721.25 174.26ZM756.75 173.46C756.61 172.9 756.96 172.31 757.52 172.18C758.09 172.04 758.67 172.38 758.81 172.96C758.94 173.53 758.6 174.11 758.04 174.24C757.94 174.26 757.86 174.28 757.78 174.28C757.3 174.27 756.87 173.95 756.75 173.46ZM717.65 173.3C717.09 173.13 716.77 172.54 716.93 171.98C717.1 171.42 717.68 171.1 718.24 171.26C718.8 171.43 719.12 172.02 718.96 172.58C718.83 173.03 718.4 173.33 717.95 173.33C717.86 173.34 717.75 173.33 717.65 173.3ZM760.3 172.55C760.13 171.99 760.44 171.39 761 171.23C761.56 171.05 762.16 171.36 762.32 171.92C762.5 172.48 762.18 173.08 761.63 173.26C761.52 173.28 761.41 173.31 761.31 173.31C760.86 173.3 760.44 173.01 760.3 172.55ZM714.12 172.15C713.56 171.96 713.27 171.35 713.48 170.8C713.67 170.24 714.28 169.95 714.83 170.16C715.39 170.35 715.68 170.96 715.47 171.51C715.32 171.95 714.91 172.21 714.47 172.21C714.35 172.21 714.23 172.19 714.12 172.15ZM763.79 171.43C763.58 170.88 763.86 170.26 764.41 170.06C764.95 169.86 765.57 170.14 765.77 170.68C765.97 171.23 765.7 171.85 765.15 172.05C765.03 172.1 764.9 172.12 764.78 172.12C764.35 172.12 763.95 171.86 763.79 171.43ZM710.65 170.81C710.11 170.58 709.86 169.96 710.08 169.41C710.31 168.87 710.93 168.62 711.48 168.85C712.02 169.08 712.27 169.7 712.04 170.23C711.87 170.64 711.48 170.89 711.06 170.89C710.93 170.89 710.78 170.86 710.65 170.81ZM767.19 170.11C766.95 169.57 767.2 168.94 767.74 168.7C768.26 168.46 768.9 168.7 769.14 169.24C769.38 169.78 769.14 170.41 768.6 170.65C768.46 170.71 768.31 170.73 768.17 170.73C767.76 170.73 767.37 170.5 767.19 170.11ZM707.26 169.27C706.74 169.02 706.52 168.38 706.77 167.85C707.03 167.33 707.66 167.11 708.19 167.36C708.71 167.62 708.93 168.25 708.68 168.78C708.49 169.16 708.12 169.38 707.72 169.38C707.57 169.38 707.42 169.34 707.26 169.27ZM703.97 167.55C703.46 167.26 703.28 166.62 703.56 166.11C703.83 165.6 704.49 165.41 705 165.7C705.5 165.97 705.69 166.63 705.41 167.14C705.21 167.49 704.85 167.68 704.48 167.68C704.3 167.68 704.12 167.64 703.97 167.55ZM700.77 165.63C700.28 165.32 700.13 164.66 700.45 164.17C700.76 163.67 701.42 163.53 701.92 163.84C702.41 164.16 702.55 164.82 702.24 165.31C702.04 165.63 701.69 165.8 701.35 165.8C701.14 165.8 700.95 165.75 700.77 165.63Z" fill="#F7AC34"/>
<path d="M771.497 169.13C771.227 169.13 770.947 169.01 770.747 168.82C770.647 168.72 770.578 168.61 770.518 168.47C770.498 168.4 770.468 168.34 770.458 168.27C770.448 168.21 770.438 168.14 770.438 168.07C770.438 167.78 770.557 167.51 770.747 167.32C771.047 167.02 771.507 166.93 771.907 167.09C772.037 167.14 772.158 167.22 772.258 167.32C772.458 167.51 772.568 167.78 772.568 168.07C772.568 168.21 772.547 168.34 772.487 168.48C772.437 168.61 772.358 168.72 772.258 168.83C772.158 168.93 772.047 169.01 771.907 169.06C771.767 169.1 771.637 169.13 771.497 169.13Z" fill="#F7AC34"/>
<path d="M671.71 165.12H671.68C671.1 165.14 670.64 165.63 670.66 166.21C670.67 166.5 670.79 166.76 670.98 166.94C671.17 167.13 671.43 167.24 671.72 167.24H671.75C672.32 167.22 672.78 166.75 672.78 166.18V166.15C672.76 165.57 672.29 165.12 671.71 165.12ZM668.16 165.04C668.13 165.04 668.11 165.04 668.08 165.04C667.53 165.04 667.07 165.47 667.02 166.02C666.98 166.6 667.42 167.12 668 167.16C668.03 167.16 668.05 167.16 668.07 167.16C668.62 167.16 669.09 166.73 669.13 166.18C669.13 166.15 669.14 166.13 669.14 166.1C669.15 165.55 668.72 165.09 668.16 165.04ZM676.39 165.7C676.31 165.17 675.86 164.8 675.34 164.8C675.29 164.8 675.24 164.8 675.19 164.81C674.61 164.89 674.21 165.43 674.3 166.01C674.37 166.54 674.83 166.91 675.34 166.91C675.39 166.91 675.45 166.91 675.5 166.9C676.02 166.82 676.4 166.37 676.4 165.86C676.4 165.81 676.4 165.76 676.39 165.7ZM664.65 164.62C664.59 164.62 664.53 164.61 664.47 164.61C663.96 164.61 663.52 164.98 663.43 165.5C663.33 166.08 663.72 166.63 664.3 166.72C664.36 166.73 664.42 166.74 664.48 166.74C664.99 166.74 665.43 166.37 665.53 165.85C665.54 165.79 665.55 165.73 665.55 165.67C665.53 165.16 665.17 164.71 664.65 164.62ZM679.93 164.87C679.8 164.39 679.37 164.07 678.9 164.07C678.82 164.07 678.73 164.09 678.63 164.11C678.06 164.26 677.72 164.84 677.87 165.41C677.99 165.89 678.42 166.2 678.89 166.2C678.98 166.2 679.07 166.19 679.16 166.16C679.63 166.03 679.96 165.61 679.96 165.14C679.97 165.05 679.95 164.96 679.93 164.87ZM661.18 163.88C661.09 163.86 661 163.84 660.91 163.84C660.44 163.84 660.01 164.16 659.89 164.63C659.74 165.2 660.08 165.78 660.64 165.93C660.73 165.95 660.82 165.97 660.91 165.97C661.38 165.97 661.81 165.65 661.94 165.18C661.96 165.09 661.98 165 661.98 164.91C661.98 164.43 661.66 164.01 661.18 163.88ZM683.37 163.68C683.21 163.25 682.81 162.98 682.37 162.98C682.25 162.98 682.13 163 682.01 163.05C681.46 163.25 681.17 163.86 681.37 164.4C681.53 164.83 681.93 165.1 682.37 165.1C682.49 165.1 682.62 165.08 682.74 165.03C683.17 164.88 683.44 164.47 683.44 164.04C683.44 163.93 683.42 163.81 683.37 163.68ZM657.79 162.82C657.67 162.78 657.55 162.76 657.43 162.76C656.99 162.76 656.59 163.03 656.43 163.46C656.23 164.01 656.52 164.62 657.07 164.82C657.19 164.86 657.31 164.88 657.43 164.88C657.87 164.88 658.27 164.62 658.43 164.18C658.47 164.06 658.49 163.95 658.49 163.82C658.5 163.4 658.23 162.98 657.79 162.82ZM686.7 162.21C686.52 161.82 686.14 161.59 685.73 161.59C685.58 161.59 685.43 161.62 685.28 161.69C684.75 161.94 684.52 162.57 684.77 163.1C684.95 163.49 685.33 163.71 685.74 163.71C685.89 163.71 686.04 163.68 686.19 163.62C686.58 163.44 686.8 163.05 686.8 162.65C686.79 162.5 686.76 162.35 686.7 162.21ZM654.5 161.5C654.36 161.43 654.21 161.4 654.07 161.4C653.66 161.4 653.28 161.64 653.1 162.03C652.86 162.56 653.1 163.19 653.63 163.43C653.77 163.49 653.92 163.52 654.07 163.52C654.47 163.52 654.86 163.29 655.04 162.9C655.1 162.76 655.14 162.61 655.14 162.46C655.13 162.06 654.89 161.67 654.5 161.5ZM689.89 160.46C689.7 160.11 689.34 159.92 688.97 159.92C688.8 159.92 688.61 159.96 688.45 160.06C687.94 160.35 687.77 161 688.05 161.5C688.25 161.84 688.61 162.04 688.97 162.04C689.15 162.04 689.33 162 689.49 161.91C689.84 161.71 690.03 161.35 690.03 160.98C690.03 160.81 689.99 160.62 689.89 160.46ZM651.33 159.91C651.17 159.82 650.99 159.78 650.82 159.78C650.45 159.78 650.08 159.98 649.89 160.32C649.6 160.84 649.79 161.48 650.3 161.76C650.46 161.85 650.64 161.89 650.81 161.89C651.18 161.89 651.55 161.69 651.74 161.34C651.83 161.18 651.87 161 651.87 160.83C651.87 160.46 651.68 160.09 651.33 159.91ZM692.95 158.48C692.75 158.17 692.41 158.01 692.07 158.01C691.86 158.01 691.66 158.07 691.48 158.19C690.99 158.52 690.86 159.17 691.19 159.66C691.39 159.97 691.73 160.13 692.07 160.13C692.27 160.13 692.48 160.07 692.66 159.95C692.97 159.75 693.13 159.42 693.13 159.07C693.13 158.87 693.07 158.66 692.95 158.48ZM695.86 156.29C695.65 156.02 695.33 155.88 695.02 155.88C694.79 155.88 694.56 155.96 694.37 156.1C693.91 156.46 693.83 157.13 694.19 157.59C694.4 157.85 694.71 158 695.02 158C695.25 158 695.48 157.93 695.67 157.77C695.94 157.56 696.08 157.25 696.08 156.93C696.08 156.71 696 156.48 695.86 156.29Z" fill="url(#paint11_linear_174_6784)"/>
<path d="M697.779 155.63C697.499 155.63 697.229 155.52 697.029 155.32C696.829 155.12 696.719 154.85 696.719 154.57C696.719 154.29 696.829 154.02 697.029 153.82C697.429 153.43 698.129 153.42 698.529 153.82C698.729 154.02 698.839 154.29 698.839 154.57C698.839 154.85 698.719 155.12 698.529 155.32C698.329 155.52 698.059 155.63 697.779 155.63Z" fill="url(#paint12_linear_174_6784)"/>
<path d="M736.082 167.44C736.072 167.44 736.072 167.44 736.082 167.44C735.492 167.44 735.012 167.91 735.002 168.49C734.992 169.07 735.472 169.56 736.052 169.56C736.052 169.56 736.052 169.56 736.062 169.56C736.352 169.56 736.612 169.44 736.812 169.25C737.002 169.06 737.122 168.8 737.122 168.51V168.49C737.132 167.91 736.662 167.44 736.082 167.44ZM739.852 167.37H739.802C739.212 167.41 738.762 167.9 738.792 168.48C738.822 169.05 739.292 169.49 739.852 169.49H739.902C740.472 169.46 740.912 168.99 740.912 168.42V168.38C740.882 167.81 740.412 167.37 739.852 167.37ZM732.362 167.28C732.332 167.28 732.312 167.28 732.282 167.28C731.732 167.28 731.272 167.71 731.232 168.27C731.192 168.85 731.632 169.36 732.212 169.4H732.292C732.842 169.4 733.312 168.98 733.342 168.42C733.342 168.39 733.352 168.37 733.352 168.34C733.352 167.79 732.922 167.33 732.362 167.28ZM744.672 168.03C744.622 167.49 744.152 167.08 743.612 167.08C743.582 167.08 743.542 167.08 743.502 167.08C742.922 167.15 742.502 167.66 742.562 168.25C742.622 168.8 743.082 169.2 743.622 169.2C743.662 169.2 743.692 169.2 743.732 169.2C744.282 169.15 744.682 168.69 744.682 168.14C744.682 168.11 744.682 168.07 744.672 168.03ZM728.662 166.91C728.612 166.91 728.572 166.9 728.522 166.9C727.992 166.9 727.542 167.29 727.472 167.83C727.402 168.41 727.802 168.94 728.392 169.02C728.432 169.02 728.482 169.02 728.522 169.02C729.052 169.02 729.512 168.63 729.582 168.1C729.582 168.05 729.592 168.01 729.592 167.96C729.592 167.44 729.192 166.98 728.662 166.91ZM748.412 167.48C748.332 166.96 747.882 166.59 747.382 166.59C747.322 166.59 747.262 166.6 747.202 166.61C746.622 166.7 746.222 167.25 746.322 167.83C746.402 168.35 746.852 168.72 747.372 168.72C747.422 168.72 747.482 168.71 747.542 168.71C748.062 168.63 748.432 168.18 748.432 167.67C748.432 167.6 748.422 167.53 748.412 167.48ZM724.982 166.33C724.922 166.32 724.852 166.32 724.782 166.32C724.282 166.32 723.842 166.67 723.742 167.18C723.632 167.75 724.012 168.31 724.582 168.41C724.652 168.42 724.712 168.43 724.782 168.43C725.282 168.43 725.732 168.07 725.822 167.57C725.832 167.5 725.842 167.44 725.842 167.37C725.852 166.87 725.502 166.43 724.982 166.33ZM752.132 166.73C752.032 166.23 751.582 165.89 751.092 165.89C751.012 165.89 750.942 165.9 750.872 165.91C750.302 166.03 749.932 166.6 750.062 167.18C750.172 167.67 750.612 168.02 751.102 168.02C751.172 168.02 751.252 168.01 751.322 167.99C751.822 167.88 752.162 167.44 752.162 166.96C752.152 166.88 752.142 166.8 752.132 166.73ZM721.352 165.54C721.352 165.53 721.352 165.53 721.352 165.54C721.262 165.51 721.182 165.5 721.092 165.5C720.612 165.5 720.182 165.83 720.062 166.31C719.922 166.88 720.262 167.46 720.832 167.59C720.912 167.62 721.002 167.63 721.092 167.63C721.562 167.63 722.002 167.3 722.122 166.82C722.142 166.74 722.152 166.65 722.152 166.57C722.152 166.09 721.832 165.65 721.352 165.54ZM755.792 165.79C755.672 165.32 755.242 165.01 754.772 165.01C754.682 165.01 754.582 165.02 754.492 165.05C753.932 165.2 753.592 165.78 753.742 166.35C753.872 166.82 754.302 167.14 754.762 167.14C754.852 167.14 754.952 167.13 755.042 167.1C755.512 166.98 755.832 166.55 755.832 166.08C755.822 165.97 755.812 165.88 755.792 165.79ZM717.772 164.52C717.662 164.48 717.552 164.47 717.452 164.47C717.002 164.47 716.582 164.76 716.442 165.21C716.272 165.77 716.572 166.37 717.132 166.54C717.242 166.58 717.352 166.59 717.452 166.59C717.902 166.59 718.322 166.3 718.462 165.85C718.502 165.74 718.512 165.63 718.512 165.53C718.522 165.08 718.222 164.67 717.772 164.52ZM759.412 164.67C759.272 164.22 758.852 163.93 758.402 163.93C758.292 163.93 758.182 163.95 758.082 163.98C757.522 164.16 757.212 164.76 757.392 165.31C757.532 165.76 757.952 166.05 758.402 166.05C758.512 166.05 758.622 166.04 758.732 166C759.182 165.86 759.472 165.44 759.472 164.99C759.462 164.88 759.442 164.77 759.412 164.67ZM714.272 163.29C714.142 163.24 714.022 163.22 713.892 163.22C713.462 163.22 713.062 163.48 712.902 163.9C712.692 164.45 712.962 165.06 713.512 165.27C713.632 165.32 713.762 165.35 713.892 165.35C714.312 165.35 714.722 165.09 714.882 164.67C714.932 164.54 714.952 164.41 714.952 164.29C714.952 163.85 714.692 163.46 714.272 163.29ZM762.962 163.37C762.802 162.95 762.402 162.68 761.972 162.68C761.842 162.68 761.712 162.7 761.592 162.75C761.042 162.95 760.762 163.57 760.972 164.12C761.132 164.54 761.532 164.81 761.962 164.81C762.082 164.81 762.212 164.79 762.332 164.74C762.762 164.58 763.022 164.18 763.022 163.75C763.032 163.62 763.012 163.49 762.962 163.37ZM710.852 161.84C710.712 161.77 710.552 161.74 710.402 161.74C710.002 161.74 709.612 161.97 709.442 162.36C709.192 162.89 709.422 163.52 709.952 163.76C710.092 163.83 710.252 163.86 710.402 163.86C710.802 163.86 711.192 163.64 711.372 163.25C711.432 163.11 711.472 162.96 711.472 162.81C711.462 162.41 711.232 162.03 710.852 161.84ZM766.452 161.92C766.282 161.51 765.882 161.27 765.472 161.27C765.332 161.27 765.192 161.3 765.052 161.36C764.512 161.59 764.262 162.22 764.492 162.76C764.662 163.16 765.052 163.4 765.472 163.4C765.612 163.4 765.752 163.37 765.892 163.31C766.292 163.14 766.532 162.75 766.532 162.33C766.542 162.2 766.512 162.05 766.452 161.92ZM707.532 160.18C707.372 160.09 707.192 160.05 707.022 160.05C706.652 160.05 706.282 160.25 706.092 160.6C705.812 161.11 706.002 161.76 706.512 162.04C706.672 162.12 706.852 162.17 707.022 162.17C707.402 162.17 707.762 161.97 707.952 161.62C708.032 161.46 708.082 161.29 708.082 161.12C708.082 160.73 707.892 160.37 707.532 160.18ZM769.882 160.3C769.702 159.92 769.322 159.7 768.922 159.7C768.772 159.7 768.612 159.74 768.462 159.81C767.932 160.06 767.712 160.7 767.972 161.23C768.152 161.61 768.532 161.83 768.922 161.83C769.072 161.83 769.232 161.8 769.382 161.73C769.762 161.54 769.982 161.17 769.982 160.77C769.982 160.61 769.942 160.45 769.882 160.3ZM704.342 158.29C704.162 158.17 703.962 158.12 703.772 158.12C703.422 158.12 703.082 158.29 702.882 158.61C702.562 159.1 702.712 159.76 703.202 160.08C703.382 160.2 703.582 160.25 703.772 160.25C704.122 160.25 704.462 160.08 704.672 159.76C704.782 159.59 704.832 159.39 704.832 159.19C704.822 158.84 704.652 158.49 704.342 158.29ZM773.222 158.53C773.032 158.18 772.672 157.97 772.292 157.97C772.122 157.97 771.952 158.01 771.782 158.1C771.272 158.38 771.072 159.02 771.352 159.54C771.542 159.89 771.912 160.09 772.282 160.09C772.452 160.09 772.632 160.05 772.792 159.97C773.142 159.78 773.342 159.41 773.342 159.03C773.342 158.86 773.312 158.69 773.222 158.53ZM776.472 156.59C776.272 156.26 775.922 156.08 775.562 156.08C775.372 156.08 775.182 156.13 775.012 156.24C774.512 156.55 774.352 157.2 774.662 157.7C774.862 158.03 775.212 158.21 775.572 158.21C775.762 158.21 775.952 158.16 776.122 158.05C776.442 157.85 776.632 157.5 776.632 157.14C776.632 156.95 776.582 156.76 776.472 156.59ZM701.302 156.18C701.112 156.03 700.882 155.96 700.662 155.96C700.342 155.96 700.022 156.1 699.822 156.38C699.472 156.85 699.552 157.52 700.022 157.86C700.212 158.01 700.442 158.08 700.662 158.08C700.982 158.08 701.302 157.94 701.502 157.66C701.652 157.47 701.722 157.24 701.722 157.02C701.722 156.7 701.582 156.38 701.302 156.18Z" fill="url(#paint13_linear_174_6784)"/>
<path d="M696.191 146C696.191 146 664.181 127.47 666.991 89.28C669.801 51.1 700.681 28.08 693.381 0C693.381 0 722.161 41.83 722.161 79.74C722.161 117.64 698.441 143.61 696.191 146Z" fill="url(#paint14_linear_174_6784)"/>
<path d="M696.06 140.87C696.06 140.87 677.09 129.89 678.76 107.27C680.42 84.6501 698.72 71.0001 694.4 54.3701C694.4 54.3701 711.45 79.1601 711.45 101.61C711.44 124.07 697.39 139.46 696.06 140.87Z" fill="url(#paint15_linear_174_6784)"/>
<defs>
<linearGradient id="paint0_linear_174_6784" x1="386.977" y1="220.077" x2="659.246" y2="151.009" gradientUnits="userSpaceOnUse">
<stop stop-color="#FF9021"/>
<stop offset="0.5269" stop-color="#FF2127"/>
<stop offset="1" stop-color="#D61658"/>
</linearGradient>
<linearGradient id="paint1_linear_174_6784" x1="143.343" y1="236.358" x2="675.807" y2="-54.6524" gradientUnits="userSpaceOnUse">
<stop stop-color="#FF9021"/>
<stop offset="0.5269" stop-color="#FF2127"/>
<stop offset="1" stop-color="#D61658"/>
</linearGradient>
<linearGradient id="paint2_linear_174_6784" x1="180.872" y1="305.022" x2="713.337" y2="14.0115" gradientUnits="userSpaceOnUse">
<stop stop-color="#FF9021"/>
<stop offset="0.5269" stop-color="#FF2127"/>
<stop offset="1" stop-color="#D61658"/>
</linearGradient>
<linearGradient id="paint3_linear_174_6784" x1="94.9133" y1="147.744" x2="627.378" y2="-143.266" gradientUnits="userSpaceOnUse">
<stop stop-color="#FF9021"/>
<stop offset="0.5269" stop-color="#FF2127"/>
<stop offset="1" stop-color="#D61658"/>
</linearGradient>
<linearGradient id="paint4_linear_174_6784" x1="32.7798" y1="34.0545" x2="565.246" y2="-256.956" gradientUnits="userSpaceOnUse">
<stop stop-color="#FF9021"/>
<stop offset="0.5269" stop-color="#FF2127"/>
<stop offset="1" stop-color="#D61658"/>
</linearGradient>
<linearGradient id="paint5_linear_174_6784" x1="95.879" y1="149.512" x2="628.345" y2="-141.499" gradientUnits="userSpaceOnUse">
<stop stop-color="#FF9021"/>
<stop offset="0.5269" stop-color="#FF2127"/>
<stop offset="1" stop-color="#D61658"/>
</linearGradient>
<linearGradient id="paint6_linear_174_6784" x1="230.336" y1="395.524" x2="762.8" y2="104.514" gradientUnits="userSpaceOnUse">
<stop stop-color="#FF9021"/>
<stop offset="0.5269" stop-color="#FF2127"/>
<stop offset="1" stop-color="#D61658"/>
</linearGradient>
<linearGradient id="paint7_linear_174_6784" x1="138.633" y1="227.736" x2="671.098" y2="-63.2743" gradientUnits="userSpaceOnUse">
<stop stop-color="#FF9021"/>
<stop offset="0.5269" stop-color="#FF2127"/>
<stop offset="1" stop-color="#D61658"/>
</linearGradient>
<linearGradient id="paint8_linear_174_6784" x1="145.773" y1="240.802" x2="678.238" y2="-50.2085" gradientUnits="userSpaceOnUse">
<stop stop-color="#FF9021"/>
<stop offset="0.5269" stop-color="#FF2127"/>
<stop offset="1" stop-color="#D61658"/>
</linearGradient>
<linearGradient id="paint9_linear_174_6784" x1="164.011" y1="274.17" x2="696.477" y2="-16.8397" gradientUnits="userSpaceOnUse">
<stop stop-color="#FF9021"/>
<stop offset="0.5269" stop-color="#FF2127"/>
<stop offset="1" stop-color="#D61658"/>
</linearGradient>
<linearGradient id="paint10_linear_174_6784" x1="650.086" y1="187.406" x2="775.865" y2="187.406" gradientUnits="userSpaceOnUse">
<stop stop-color="#FF9021"/>
<stop offset="0.5269" stop-color="#FF2127"/>
<stop offset="1" stop-color="#D61658"/>
</linearGradient>
<linearGradient id="paint11_linear_174_6784" x1="654.8" y1="149.449" x2="745.549" y2="196.715" gradientUnits="userSpaceOnUse">
<stop stop-color="#FF9021"/>
<stop offset="0.5269" stop-color="#FF2127"/>
<stop offset="1" stop-color="#D61658"/>
</linearGradient>
<linearGradient id="paint12_linear_174_6784" x1="661.868" y1="135.873" x2="752.62" y2="183.141" gradientUnits="userSpaceOnUse">
<stop stop-color="#FF9021"/>
<stop offset="0.5269" stop-color="#FF2127"/>
<stop offset="1" stop-color="#D61658"/>
</linearGradient>
<linearGradient id="paint13_linear_174_6784" x1="669.294" y1="121.625" x2="760.043" y2="168.89" gradientUnits="userSpaceOnUse">
<stop stop-color="#FF9021"/>
<stop offset="0.5269" stop-color="#FF2127"/>
<stop offset="1" stop-color="#D61658"/>
</linearGradient>
<linearGradient id="paint14_linear_174_6784" x1="721.99" y1="29.8403" x2="649.39" y2="149.327" gradientUnits="userSpaceOnUse">
<stop stop-color="#FFBF00"/>
<stop offset="0.3627" stop-color="#FF9021"/>
<stop offset="1" stop-color="#FF2127"/>
</linearGradient>
<linearGradient id="paint15_linear_174_6784" x1="712.537" y1="75.2225" x2="647.5" y2="159.922" gradientUnits="userSpaceOnUse">
<stop stop-color="#FFBF00"/>
<stop offset="0.3627" stop-color="#FF9021"/>
<stop offset="1" stop-color="#FF2127"/>
</linearGradient>
</defs>
</svg>
