<svg width="30" height="30" viewBox="0 0 30 30" fill="none" xmlns="http://www.w3.org/2000/svg">
<path d="M28.125 6.5249V9.34678H1.875V6.5249C1.875 4.97803 3.14062 3.7124 4.6875 3.7124H7.96875V6.4874C7.96875 7.00303 8.39062 7.4249 8.90625 7.4249C9.42188 7.4249 9.84375 7.00303 9.84375 6.4874V3.7124H20.1562V6.4874C20.1562 7.00303 20.5781 7.4249 21.0938 7.4249C21.6094 7.4249 22.0312 7.00303 22.0312 6.4874V3.7124H25.3125C26.8594 3.7124 28.125 4.97803 28.125 6.5249ZM20.625 20.6062H27.5531L19.6875 27.6187V21.5437C19.6875 21.028 20.1094 20.6062 20.625 20.6062Z" fill="#FEA700"/>
<path d="M28.125 11.2219V18.7312H20.625C19.0781 18.7312 17.8125 19.9969 17.8125 21.5437V28.125H4.6875C3.14062 28.125 1.875 26.8594 1.875 25.3125V11.2219H28.125ZM9.84375 2.8125V3.7125H7.96875V2.8125C7.96875 2.29688 8.39062 1.875 8.90625 1.875C9.42188 1.875 9.84375 2.29688 9.84375 2.8125ZM22.0312 2.8125V3.7125H20.1562V2.8125C20.1562 2.29688 20.5781 1.875 21.0938 1.875C21.6094 1.875 22.0312 2.29688 22.0312 2.8125Z" fill="#FEA700"/>
</svg>
