<svg width="52" height="41" viewBox="0 0 52 41" fill="none" xmlns="http://www.w3.org/2000/svg">
<g clip-path="url(#clip0_279_7978)">
<path d="M46.3301 0.279785H5.33008C2.56865 0.279785 0.330078 2.51836 0.330078 5.27979V35.2798C0.330078 38.0412 2.56865 40.2798 5.33008 40.2798H46.3301C49.0915 40.2798 51.3301 38.0412 51.3301 35.2798V5.27979C51.3301 2.51836 49.0915 0.279785 46.3301 0.279785Z" fill="#FEA700"/>
<path d="M33.8201 12.2788H18.0151C17.5684 12.2796 17.1403 12.4574 16.8245 12.7732C16.5087 13.089 16.3309 13.5172 16.3301 13.9638V25.1998C16.3309 25.6465 16.5087 26.0746 16.8245 26.3904C17.1403 26.7062 17.5684 26.884 18.0151 26.8848H33.8201C34.2667 26.884 34.6949 26.7062 35.0107 26.3904C35.3265 26.0746 35.5043 25.6465 35.5051 25.1998V13.9638C35.5043 13.5172 35.3265 13.089 35.0107 12.7732C34.6949 12.4574 34.2667 12.2796 33.8201 12.2788ZM33.5871 13.4028L25.9541 21.0368L18.2541 13.4028H33.5871ZM17.4541 24.9678V14.1918L22.8651 19.5568L17.4541 24.9678ZM18.2481 25.7618L23.6631 20.3468L25.5631 22.2278C25.6684 22.3327 25.811 22.3915 25.9596 22.3915C26.1082 22.3915 26.2508 22.3327 26.3561 22.2278L28.2061 20.3778L33.5911 25.7628L18.2481 25.7618ZM34.3821 24.9678L28.9971 19.5788L34.3821 14.1938V24.9678Z" fill="white"/>
</g>
<defs>
<clipPath id="clip0_279_7978">
<rect width="51" height="40" fill="white" transform="translate(0.330078 0.279785)"/>
</clipPath>
</defs>
</svg>
