<svg width="331" height="52" viewBox="0 0 331 52" fill="none" xmlns="http://www.w3.org/2000/svg">
<g clip-path="url(#clip0_143_728)">
<path d="M192.969 23.3387C192.969 16.517 193.018 9.69737 192.932 2.8777C192.912 1.32403 193.473 0.646381 194.899 0.49121C197.995 0.151405 201.092 0.157298 204.185 0.475497C205.631 0.624775 206.315 1.30439 206.307 2.97788C206.239 17.9175 206.244 32.8552 206.299 47.7948C206.305 49.3662 205.674 49.9653 204.275 50.1754C200.802 50.6999 197.338 50.6056 193.869 50.1636C192.63 50.0065 192.073 49.1815 191.545 48.1739C188.122 41.6469 184.667 35.1376 181.215 28.6243C181.045 28.3042 180.825 28.0095 180.593 27.6462C180.077 28.3042 180.313 28.9622 180.311 29.5632C180.289 35.7563 180.262 41.9494 180.326 48.1405C180.34 49.488 179.914 50.1499 178.587 50.311C175.244 50.7156 171.913 50.7902 168.574 50.256C167.513 50.0851 167.109 49.5862 167.111 48.4705C167.141 33.0202 167.144 17.5718 167.105 2.12149C167.102 0.937081 167.635 0.502995 168.621 0.394965C172.359 -0.0175155 176.072 0.131763 179.754 0.939046C180.847 1.17868 181.454 1.88382 181.949 2.84824C184.986 8.78795 188.058 14.708 191.118 20.632C191.605 21.5768 192.102 22.5157 192.595 23.4585C192.72 23.4172 192.846 23.378 192.971 23.3367L192.969 23.3387Z" fill="#272220"/>
<path d="M0.00173154 25.1162C0.00173154 17.7112 -0.00216443 10.3043 0.00173154 2.89925C0.00562752 0.47937 0.221854 0.253488 2.60424 0.251523C10.3923 0.243667 18.1803 0.290807 25.9665 0.212239C27.4859 0.196526 28.2105 0.748464 28.3975 2.17054C28.7793 5.09522 28.7657 8.02579 28.4092 10.9505C28.2281 12.4393 27.4586 13.0757 25.8437 13.0148C22.4289 12.8832 19.0063 13.0148 15.5876 12.952C14.4461 12.9304 13.8149 13.1032 13.9746 14.4683C14.1928 16.3441 13.176 18.8701 14.3896 19.9445C15.4395 20.8755 17.8765 20.2136 19.7017 20.2548C19.8283 20.2568 19.955 20.2548 20.0816 20.2548C24.3633 20.2548 24.3983 20.2882 24.5678 24.6762C24.5697 24.7391 24.5775 24.8039 24.5775 24.8668C24.6905 30.4883 24.3048 30.8654 18.8193 30.9106C17.2609 30.9224 15.2233 30.1995 14.2727 31.2209C13.3357 32.2266 14.1909 34.2772 13.9669 35.8387C13.6863 37.7853 14.4967 38.1427 16.2518 38.0642C19.5381 37.9169 22.836 38.0858 26.1262 37.9935C27.5658 37.9522 28.193 38.5965 28.493 39.885C29.2001 42.9354 29.0209 45.9641 28.3547 48.987C28.0995 50.1439 27.4391 50.5879 26.1924 50.58C18.4044 50.523 10.6163 50.5604 2.82826 50.5446C0.615348 50.5407 0.00562752 49.9122 0.00367953 47.7162C-0.00216443 40.1816 0.00173154 32.6489 0.00173154 25.1162Z" fill="#272220"/>
<path d="M278.092 37.8734C276.646 41.9393 275.32 45.5141 274.124 49.1302C273.771 50.1948 273.261 50.7231 272.166 50.7939C268.488 51.0315 264.828 50.7762 261.172 50.4285C259.983 50.3166 259.779 49.8393 260.349 48.7098C262.699 44.0606 264.933 39.3524 267.261 34.6914C267.725 33.7643 267.779 33.0199 267.308 32.0476C264.838 26.9623 262.483 21.822 260.014 16.7367C259.461 15.5955 259.455 15.0849 260.858 14.8315C265.085 14.0654 269.291 14.2815 273.514 14.8315C274.476 14.9572 274.72 15.5602 274.961 16.3223C276.041 19.7125 277.147 23.0948 278.374 26.8857C279.79 23.2048 281.175 19.8971 282.321 16.505C282.89 14.8217 283.854 14.2324 285.5 14.2186C288.858 14.1911 292.205 14.3149 295.555 14.5192C297.069 14.6115 296.976 15.1811 296.426 16.3066C293.892 21.5038 291.455 26.7502 288.905 31.9376C288.42 32.9236 288.482 33.6209 288.995 34.5578C291.371 38.9046 293.648 43.3064 295.98 47.6786C297.209 49.9826 297.235 50.0592 294.743 50.291C291.221 50.621 287.697 50.9765 284.138 50.6564C282.675 50.5248 281.914 49.9964 281.491 48.5075C280.523 45.1016 279.348 41.7546 278.094 37.8714L278.092 37.8734Z" fill="#272220"/>
<path d="M233.042 38.1524C235.253 38.1563 237.478 38.1288 239.673 37.9187C243.789 37.5199 247.403 36.0448 249.018 31.8611C250.769 27.3042 250.528 22.8376 247.308 18.8974C242.763 13.3329 232.877 12.1387 226.505 16.3538C221.177 19.8756 219.151 25.1554 218.639 31.2954C217.667 42.9607 224.81 51.3105 235.84 51.2987C238.442 51.2752 241.004 50.9393 243.497 50.1536C248.488 48.5862 249.411 46.4177 247.122 41.6506C247.011 41.4208 246.86 41.2146 246.77 40.9769C246.347 39.8691 245.763 39.6786 244.623 40.207C241.469 41.6703 238.125 42.234 234.651 41.7665C233.364 41.5937 232.442 40.9848 232.006 39.6511C231.657 38.5747 231.827 38.1563 233.044 38.1563L233.042 38.1524ZM231.831 29.7142C231.188 28.0741 232.028 25.9096 233.446 25.2339C234.796 24.5897 236.231 24.5131 237.295 25.67C238.283 26.7385 238.298 28.1841 237.587 29.4098C236.851 30.6904 235.444 30.164 234.194 30.2956C233.487 29.9657 232.296 30.9045 231.831 29.7123V29.7142Z" fill="#272220"/>
<path d="M92.5573 40.2521C89.4405 41.6584 86.1679 42.2182 82.757 41.7664C81.3817 41.5818 80.4155 40.9611 80.0161 39.5292C79.7493 38.555 79.8876 38.1582 81.0155 38.1543C83.4173 38.1464 85.8348 38.1347 88.2172 37.8754C91.5307 37.512 94.4994 36.2765 96.3851 33.2969C99.4376 28.4846 98.3798 21.3644 94.1196 17.5401C89.008 12.9537 79.7278 12.5589 73.9735 16.7426C68.823 20.4864 66.9276 25.8506 66.6802 31.9985C66.1134 40.2403 69.9411 47.2151 76.7825 50.0278C81.4869 51.9586 86.3374 51.6483 91.1138 50.2537C96.5448 48.6666 97.7603 47.3192 94.8715 41.0377C94.291 39.7689 93.6696 39.7571 92.5573 40.256V40.2521ZM81.5745 25.1965C82.9206 24.6249 84.3601 24.4796 85.3984 25.7288C86.3296 26.8445 86.3568 28.2508 85.5815 29.4647C84.8569 30.598 83.6336 30.219 82.4998 30.2838C82.3109 30.2956 82.1239 30.2602 81.9369 30.2307C81.2239 30.1227 80.2168 30.8161 79.8545 29.6238C79.311 27.8541 80.1252 25.8152 81.5765 25.1946L81.5745 25.1965Z" fill="#272220"/>
<path d="M141.898 37.8715C137.092 39.3918 135.537 42.9077 135.132 47.4744C134.776 51.505 132.752 52.654 128.749 51.668C128.096 51.5069 127.57 51.1946 127.58 50.3971C127.584 50.1418 127.576 49.8865 127.57 49.6311C127.469 44.371 127.26 44.1589 122.283 44.2001C118.987 44.2276 118.189 45.0978 118.372 48.4605C118.403 49.0301 118.498 49.6036 118.461 50.1693C118.428 50.6741 118.288 51.2909 117.766 51.4421C115.913 51.9823 114 51.6994 112.121 51.6444C110.884 51.6091 110.683 50.293 110.286 49.4288C105.864 39.82 107.338 25.1553 117.331 18.2708C120.74 15.9236 124.576 14.7098 128.682 14.586C129.822 14.5526 131.334 13.5096 132.148 15.0221C132.911 16.4402 131.448 17.3182 130.827 18.3415C126.434 25.5855 131.191 35.5597 139.821 37.1114C140.481 37.2292 141.151 37.2351 141.896 37.8676L141.898 37.8715Z" fill="#FEA700"/>
<path d="M324.689 37.5178C324.689 41.2793 324.639 45.0426 324.717 48.8041C324.742 50.0533 324.387 50.7172 323.119 50.8174C319.578 51.0943 316.048 51.0138 312.528 50.5051C311.264 50.3224 311.564 49.3815 311.562 48.6037C311.552 41.2066 311.513 33.8094 311.591 26.4123C311.607 24.9215 311.242 24.454 309.731 24.5208C306.969 24.6406 306.778 24.3813 306.602 21.5666C306.544 20.614 306.52 19.6555 306.556 18.7009C306.696 14.8314 306.706 14.7862 310.475 14.5938C311.472 14.5427 311.595 14.14 311.568 13.319C311.521 11.9814 311.622 10.6379 311.537 9.30418C311.457 8.05103 311.938 7.39892 313.157 7.19464C316.239 6.67806 319.315 6.7036 322.395 7.20839C323.326 7.3616 323.637 7.87818 323.639 8.78957C323.647 10.632 323.059 13.0106 323.969 14.1675C324.931 15.3932 327.395 14.4543 329.199 14.5466C330.06 14.5898 330.465 14.9964 330.619 15.7723C331.135 18.365 331.112 20.9538 330.613 23.5505C330.397 24.6799 329.604 24.6642 328.751 24.6877C326.041 24.7689 324.685 26.1753 324.685 28.9068C324.685 31.7765 324.685 34.6462 324.685 37.5159L324.689 37.5178Z" fill="#272220"/>
<path d="M54.6885 25.454C54.6885 33.1772 54.6553 40.9004 54.7196 48.6217C54.7313 49.9534 54.2833 50.4504 53.0385 50.4995C49.7484 50.6311 46.4602 50.6527 43.17 50.4995C42.0636 50.4484 41.7071 49.9652 41.711 48.822C41.748 33.2499 41.7499 17.6758 41.711 2.10374C41.7071 0.840767 42.2252 0.471498 43.3395 0.304542C46.7543 -0.204183 50.1516 0.0118777 53.5606 0.332041C54.8053 0.449892 54.6924 1.24735 54.6904 2.09392C54.6846 9.87998 54.6865 17.666 54.6865 25.454H54.6885Z" fill="#272220"/>
<path d="M154.361 36.3196C154.305 35.8797 154.266 35.4299 154.161 34.9977C152.651 28.787 149.988 23.1537 145.773 18.3316C142.862 15.0023 138.996 14.1518 136.048 16.1474C132.369 18.6419 131.276 22.26 131.872 26.4712C132.443 30.488 135.717 33.7721 139.781 34.8013C142.958 35.6066 145.843 34.6245 149.092 33.2496C148.282 34.6402 147.382 35.1883 146.451 35.7323C144.397 36.9285 144.509 36.8853 145.652 38.9968C146.227 40.0516 146.755 40.2912 147.849 39.9966C149.304 39.6057 150.799 39.2423 152.297 39.1382C154.231 39.0086 154.578 37.9263 154.363 36.3177L154.361 36.3196ZM139.054 27.1351C137.948 27.082 137.241 26.3848 137.287 25.3005C137.326 24.3263 137.983 23.6683 139.046 23.6801C140.221 23.6958 140.616 24.5345 140.848 25.4734C140.597 26.4574 140.126 27.194 139.054 27.137V27.1351Z" fill="#FEA700"/>
<path d="M146.668 41.018C148.655 40.6703 150.628 40.3521 152.586 39.9671C153.276 39.8316 153.872 39.8709 154.211 40.5151C154.553 41.1673 154.444 41.892 154.137 42.5324C153.825 43.1805 153.231 43.3475 152.547 43.2375C151.07 42.9998 149.598 42.6993 148.111 42.5579C147.159 42.4675 146.822 41.9628 146.67 41.018H146.668Z" fill="#FEA905"/>
<path d="M142.56 49.3012C142.345 47.9892 143.002 47.1996 144.301 47.2408C145.789 47.2899 146.576 48.5647 146.65 49.7609C146.757 51.4736 145.143 51.3008 144.005 51.4068C142.45 51.5522 142.511 50.4228 142.56 49.3012Z" fill="#FEA906"/>
<path d="M148.887 43.4775C149.944 43.6563 150.99 43.8448 152.042 44.0098C153.071 44.1709 153.231 44.8957 153.014 45.701C152.786 46.5495 152.134 46.9718 151.269 46.6536C150.268 46.2844 149.261 45.8797 148.355 45.3278C147.86 45.0253 146.72 45.1255 147.052 44.0766C147.338 43.1672 148.265 43.727 148.887 43.4775Z" fill="#FEAA07"/>
<path d="M146.511 45.8717C147.992 45.8972 148.87 46.404 149.76 46.8754C150.662 47.3507 150.883 48.0893 150.288 48.8985C149.675 49.7333 148.843 50.2479 147.894 49.364C147.251 48.7669 146.698 48.0618 146.143 47.3763C145.919 47.0993 145.623 46.7615 145.8 46.3667C146.014 45.8874 146.486 45.8697 146.513 45.8717H146.511Z" fill="#FEA906"/>
</g>
<defs>
<clipPath id="clip0_143_728">
<rect width="331" height="52" fill="white"/>
</clipPath>
</defs>
</svg>
