<svg width="27" height="27" viewBox="0 0 27 27" fill="none" xmlns="http://www.w3.org/2000/svg">
<rect x="0.449219" y="0.279785" width="26" height="26" rx="5" fill="#FEA700"/>
<g clip-path="url(#clip0_279_8021)">
<path fill-rule="evenodd" clip-rule="evenodd" d="M14.9367 22.8399V14.1285H17.9142L18.3403 10.7123H14.9367V8.59058C14.9367 7.63403 15.2549 6.88965 16.6376 6.88965H18.4446V3.80603C18.0203 3.80603 16.9576 3.69994 15.7871 3.69994C15.1952 3.66063 14.6018 3.75007 14.0477 3.96213C13.4937 4.17419 12.9922 4.50381 12.5778 4.92831C12.1634 5.3528 11.8459 5.86207 11.6472 6.42105C11.4485 6.98003 11.3734 7.57543 11.4269 8.16624V10.7123H8.45117V14.1285H11.4287V22.8471L14.9367 22.8399Z" fill="white"/>
</g>
<defs>
<clipPath id="clip0_279_8021">
<rect width="9.99523" height="19.14" fill="white" transform="translate(8.45117 3.69971)"/>
</clipPath>
</defs>
</svg>
