<svg width="12" height="20" viewBox="0 0 12 20" fill="none" xmlns="http://www.w3.org/2000/svg">
<path fill-rule="evenodd" clip-rule="evenodd" d="M1.03037 0.985454C1.28251 0.733395 1.62443 0.591797 1.98095 0.591797C2.33747 0.591797 2.67939 0.733395 2.93152 0.985454L10.9986 9.05256C11.2507 9.30469 11.3923 9.64662 11.3923 10.0031C11.3923 10.3597 11.2507 10.7016 10.9986 10.9537L2.93152 19.0208C2.67794 19.2657 2.33832 19.4012 1.98579 19.3982C1.63326 19.3951 1.29604 19.2537 1.04675 19.0044C0.797469 18.7551 0.656067 18.4179 0.653004 18.0654C0.64994 17.7129 0.785459 17.3732 1.03037 17.1197L8.14691 10.0031L1.03037 2.8866C0.778316 2.63447 0.636719 2.29255 0.636719 1.93603C0.636719 1.57951 0.778316 1.23759 1.03037 0.985454Z" fill="#2E2E2E"/>
</svg>
