<svg width="26" height="26" viewBox="0 0 26 26" fill="none" xmlns="http://www.w3.org/2000/svg">
<path fill-rule="evenodd" clip-rule="evenodd" d="M23.5988 7.47263L16.8663 1.90638C15.7828 0.997913 14.414 0.5 13 0.5C11.586 0.5 10.2172 0.997913 9.13375 1.90638L2.40125 7.47263C1.18875 8.47638 0.5 9.99638 0.5 11.5826V20.2639C0.5 23.0826 2.6675 25.5001 5.5 25.5001H8C8.66304 25.5001 9.29893 25.2367 9.76777 24.7679C10.2366 24.2991 10.5 23.6632 10.5 23.0001V18.9351C10.5 17.3501 11.69 16.1976 13 16.1976C14.31 16.1976 15.5 17.3501 15.5 18.9351V23.0001C15.5 23.6632 15.7634 24.2991 16.2322 24.7679C16.7011 25.2367 17.337 25.5001 18 25.5001H20.5C23.3325 25.5001 25.5 23.0826 25.5 20.2626V11.5826C25.5 9.99638 24.8125 8.47638 23.5988 7.47263Z" fill="#FEA700"/>
</svg>
