<svg width="27" height="27" viewBox="0 0 27 27" fill="none" xmlns="http://www.w3.org/2000/svg">
<rect x="0.449219" y="0.279785" width="26" height="26" rx="5" fill="#FEA700"/>
<g clip-path="url(#clip0_279_8017)">
<path fill-rule="evenodd" clip-rule="evenodd" d="M13.4539 7.33645C14.4209 7.29985 15.3893 7.32657 16.3529 7.41643C16.8194 7.41052 17.283 7.49224 17.7194 7.65734C18.3215 7.9379 18.8054 8.42178 19.0859 9.02387C19.251 9.46029 19.3327 9.92383 19.3268 10.3904C19.3268 11.1141 19.4068 11.3551 19.4068 13.2894C19.4434 14.2564 19.4167 15.2248 19.3268 16.1884C19.3327 16.655 19.251 17.1185 19.0859 17.5549C18.8024 18.1545 18.3168 18.6351 17.7144 18.9125C17.278 19.0776 16.8144 19.1593 16.3479 19.1534C15.6241 19.1534 15.3832 19.2333 13.4489 19.2333C12.4818 19.2699 11.5134 19.2432 10.5499 19.1534C10.0833 19.1593 9.61975 19.0776 9.18333 18.9125C8.58461 18.6302 8.10411 18.1465 7.8258 17.5459C7.6607 17.1095 7.57898 16.646 7.58488 16.1794C7.58488 15.4556 7.50491 15.2147 7.50491 13.2804C7.46831 12.3134 7.49502 11.345 7.58488 10.3814C7.57898 9.91483 7.6607 9.4513 7.8258 9.01487C7.96656 8.71823 8.15689 8.44778 8.3886 8.21515C8.57615 7.93485 8.86117 7.73426 9.18833 7.65234C9.62475 7.48724 10.0883 7.40552 10.5549 7.41143C11.5184 7.32157 12.4868 7.29485 13.4539 7.33145M13.4539 6.0499C12.4615 6.01434 11.4679 6.04105 10.4789 6.12987C9.87487 6.12801 9.27558 6.23641 8.71049 6.44976C8.22292 6.6076 7.78127 6.88213 7.42394 7.24948C7.05358 7.60786 6.7769 8.05171 6.61822 8.54204C6.36639 9.09579 6.25645 9.70354 6.29833 10.3104C6.20951 11.2994 6.1828 12.293 6.21835 13.2854C6.18284 14.2774 6.20955 15.2707 6.29833 16.2594C6.29646 16.8634 6.40487 17.4627 6.61822 18.0278C6.77605 18.5153 7.05058 18.957 7.41794 19.3143C7.77528 19.6817 8.21692 19.9562 8.7045 20.114C9.26946 20.3281 9.86874 20.4372 10.4729 20.4359C11.4616 20.5247 12.4548 20.5514 13.4469 20.5159C14.4389 20.5514 15.4321 20.5247 16.4208 20.4359C17.025 20.4372 17.6243 20.3281 18.1892 20.114C18.6735 19.9472 19.1134 19.6723 19.4756 19.3101C19.8377 18.9479 20.1127 18.508 20.2795 18.0238C20.4935 17.4588 20.6026 16.8595 20.6014 16.2554C20.6014 15.4556 20.6814 15.2107 20.6814 13.2814C20.7169 12.2894 20.6902 11.2961 20.6014 10.3074C20.6026 9.70329 20.4935 9.104 20.2795 8.53904C20.1217 8.05146 19.8471 7.60982 19.4798 7.25248C19.1236 6.88445 18.683 6.6089 18.1962 6.44976C17.6311 6.23641 17.0318 6.12801 16.4278 6.12987C15.4391 6.0411 14.4459 6.01439 13.4539 6.0499ZM13.4539 9.58668C12.9659 9.57856 12.4813 9.66869 12.0289 9.8517C11.5765 10.0347 11.1655 10.3068 10.8204 10.6519C10.4753 10.997 10.2032 11.408 10.0202 11.8604C9.83715 12.3128 9.74702 12.7974 9.75513 13.2854C9.75513 14.0169 9.97206 14.732 10.3785 15.3403C10.7849 15.9485 11.3626 16.4226 12.0384 16.7026C12.7143 16.9825 13.458 17.0558 14.1754 16.913C14.8929 16.7703 15.552 16.4181 16.0692 15.9008C16.5865 15.3835 16.9388 14.7245 17.0815 14.007C17.2242 13.2895 17.151 12.5458 16.871 11.87C16.5911 11.1941 16.117 10.6164 15.5088 10.21C14.9005 9.8036 14.1854 9.58668 13.4539 9.58668ZM13.4539 15.6966C13.1355 15.7025 12.8193 15.6442 12.524 15.5252C12.2287 15.4062 11.9604 15.2288 11.7353 15.0037C11.5101 14.7786 11.3326 14.5104 11.2134 14.2152C11.0943 13.92 11.0359 13.6037 11.0417 13.2854C11.0357 12.967 11.094 12.6506 11.2131 12.3553C11.3322 12.0599 11.5097 11.7916 11.7349 11.5664C11.9601 11.3412 12.2284 11.1638 12.5237 11.0447C12.8191 10.9256 13.1354 10.8673 13.4539 10.8732C13.7722 10.8674 14.0884 10.9258 14.3837 11.045C14.6789 11.1641 14.9471 11.3416 15.1722 11.5668C15.3972 11.792 15.5746 12.0602 15.6937 12.3555C15.8127 12.6508 15.871 12.9671 15.865 13.2854C15.8709 13.6036 15.8125 13.9198 15.6934 14.215C15.5743 14.5101 15.3969 14.7783 15.1718 15.0033C14.9467 15.2284 14.6786 15.4058 14.3834 15.5249C14.0883 15.644 13.7721 15.7024 13.4539 15.6966ZM17.3145 8.54204C17.1395 8.54204 16.9685 8.59392 16.823 8.69113C16.6775 8.78835 16.5641 8.92652 16.4972 9.08817C16.4302 9.24983 16.4127 9.42771 16.4468 9.59933C16.481 9.77094 16.5652 9.92858 16.6889 10.0523C16.8127 10.176 16.9703 10.2603 17.1419 10.2944C17.3135 10.3286 17.4914 10.311 17.6531 10.2441C17.8147 10.1771 17.9529 10.0637 18.0501 9.91824C18.1473 9.77275 18.1992 9.60171 18.1992 9.42673C18.1974 9.19266 18.1036 8.9687 17.9381 8.80318C17.7726 8.63766 17.5486 8.54387 17.3145 8.54204Z" fill="white"/>
</g>
<defs>
<clipPath id="clip0_279_8017">
<rect width="14.47" height="14.47" fill="white" transform="translate(6.21875 6.0498)"/>
</clipPath>
</defs>
</svg>
