<svg width="50" height="50" viewBox="0 0 50 50" fill="none" xmlns="http://www.w3.org/2000/svg">
<rect x="13" y="6" width="24" height="35" fill="#FEA700"/>
<path d="M35.5175 0H14.4792C14.001 0.000206941 13.5276 0.0946407 13.086 0.277904C12.6444 0.461167 12.2432 0.729666 11.9054 1.06805C11.5676 1.40644 11.2998 1.80809 11.1173 2.25003C10.9348 2.69197 10.8412 3.16554 10.8418 3.64368V46.361C10.8418 47.3259 11.225 48.2512 11.9071 48.9336C12.5892 49.616 13.5143 49.9996 14.4792 50H35.5175C36.4826 49.9996 37.4081 49.6161 38.0907 48.9338C38.7733 48.2515 39.1572 47.3262 39.158 46.361V3.64368C39.1576 2.67799 38.774 1.75193 38.0915 1.06879C37.4089 0.385644 36.4832 0.00125405 35.5175 0ZM36.4296 40.5113H13.5702V6.14644H36.4296V40.5113ZM29.876 3.69733H20.1222V2.63374H29.8776L29.876 3.69733ZM34.0499 3.2113C34.0499 3.45864 33.9517 3.69586 33.7768 3.87076C33.6019 4.04566 33.3647 4.14392 33.1173 4.14392C32.87 4.14392 32.6328 4.04566 32.4579 3.87076C32.283 3.69586 32.1847 3.45864 32.1847 3.2113C32.1847 2.96395 32.283 2.72674 32.4579 2.55184C32.6328 2.37694 32.87 2.27868 33.1173 2.27868C33.3647 2.27868 33.6019 2.37694 33.7768 2.55184C33.9517 2.72674 34.0499 2.96395 34.0499 3.2113ZM29.4389 46.118H20.5562V43.3849H29.4389V46.118Z" fill="black"/>
<g clip-path="url(#clip0_353_2)">
<path d="M21.0349 27.6672C20.1701 27.6672 19.469 28.3683 19.469 29.2332C19.469 30.098 20.1701 30.7991 21.0349 30.7991C21.8998 30.7991 22.6009 30.098 22.6009 29.2332C22.6009 28.3683 21.8998 27.6672 21.0349 27.6672ZM21.0349 30.1032C20.5545 30.1032 20.165 29.7137 20.165 29.2332C20.165 28.7527 20.5545 28.3632 21.0349 28.3632C21.5154 28.3632 21.9049 28.7527 21.9049 29.2332C21.905 29.7137 21.5154 30.1032 21.0349 30.1032ZM27.6469 27.6672C26.782 27.6672 26.0809 28.3683 26.0809 29.2332C26.0809 30.098 26.782 30.7991 27.6469 30.7991C28.5117 30.7991 29.2129 30.098 29.2129 29.2332C29.2129 28.3683 28.5118 27.6672 27.6469 27.6672ZM27.6469 30.1032C27.1664 30.1032 26.7769 29.7137 26.7769 29.2332C26.7769 28.7527 27.1664 28.3632 27.6469 28.3632C28.1274 28.3632 28.5169 28.7527 28.5169 29.2332C28.5169 29.7137 28.1274 30.1032 27.6469 30.1032ZM31.1791 18.5323C31.1066 18.4531 31.0075 18.4036 30.9007 18.3931L19.5734 18.2365L19.2602 17.2795C19.0395 16.6397 18.4405 16.2078 17.7638 16.2007H16.598C16.4058 16.2007 16.25 16.3565 16.25 16.5487C16.25 16.7409 16.4058 16.8967 16.598 16.8967H17.7638C17.9485 16.9008 18.1276 16.9613 18.2769 17.0702C18.4262 17.1791 18.5386 17.331 18.599 17.5057L20.8088 24.1698L20.6348 24.57C20.5391 24.8167 20.5034 25.0826 20.5307 25.3458C20.5579 25.609 20.6473 25.8619 20.7914 26.0838C20.9341 26.3016 21.1272 26.4818 21.3544 26.609C21.5816 26.7362 21.8361 26.8068 22.0964 26.8146H28.8649C29.0571 26.8146 29.2129 26.6588 29.2129 26.4666C29.2129 26.2744 29.0571 26.1186 28.8649 26.1186H22.0964C21.9495 26.1149 21.8058 26.0748 21.6783 26.002C21.5507 25.9291 21.4433 25.8257 21.3656 25.701C21.2885 25.5776 21.2406 25.4382 21.2256 25.2934C21.2105 25.1487 21.2286 25.0025 21.2786 24.8658L21.4178 24.5526L28.7431 23.787C29.5477 23.6984 30.2096 23.1131 30.3961 22.3254L31.2313 18.828C31.2498 18.7786 31.2547 18.725 31.2455 18.673C31.2363 18.621 31.2134 18.5724 31.1791 18.5323ZM29.7175 22.1688C29.6045 22.6759 29.174 23.05 28.6561 23.091L21.4178 23.8392L19.7996 18.9325L30.4657 19.0891L29.7175 22.1688Z" fill="black"/>
</g>
<defs>
<clipPath id="clip0_353_2">
<rect width="15" height="15" fill="white" transform="translate(17 16)"/>
</clipPath>
</defs>
</svg>
