<svg width="50" height="50" viewBox="0 0 50 50" fill="none" xmlns="http://www.w3.org/2000/svg">
<g clip-path="url(#clip0_297_1556)">
<path d="M47.7434 30.0213C45.284 29.1311 42.5537 29.3366 40.2522 30.5855C40.2222 30.6003 31.2411 34.6592 31.2411 34.6592C30.6031 35.1371 29.863 35.3895 29.101 35.3895H23.4502C22.7483 35.3895 22.1793 34.8212 22.1793 34.1201C22.1793 33.419 22.7483 32.8506 23.4502 32.8506H29.101C30.8673 32.8506 30.906 29.2166 29.1759 29.0725L21.3 28.9821C19.9102 28.9667 18.5193 28.0734 17.0544 28.0399C15.5633 28.0058 14.1528 28.386 12.8992 29.199C11.1537 30.3312 9.96207 32.1303 9.16335 34.0168L13.4245 44.7772H25.6767C26.7843 44.7768 27.8727 44.4875 28.8344 43.9379L47.8489 33.0604C48.427 32.5702 48.8736 31.9978 48.6775 31.1187C48.567 30.6245 48.2123 30.1912 47.7434 30.0213ZM1.27734 35.3353L7.0844 50L11.7456 47.4406L5.93846 32.776L1.27734 35.3353ZM36.2703 0C30.0357 0 24.9816 5.12254 24.9816 11.4415C24.9816 17.7604 30.0358 22.8829 36.2703 22.8829C42.5048 22.8829 47.559 17.7604 47.559 11.4415C47.5591 5.12254 42.5049 0 36.2703 0ZM37.5531 17.1527V19.0494H34.9409V17.3069C33.9317 17.1569 33.0348 16.7553 32.2601 16.1466L33.1969 13.5193C33.9566 14.1162 35.0421 14.6616 35.9754 14.6616C36.6912 14.6616 37.1538 14.3331 37.1538 13.8246C37.1538 13.494 37.0475 13.098 35.7785 12.5808C34.1901 11.954 32.5639 11.0345 32.5639 8.97511C32.5639 7.4203 33.5142 6.17115 35.0565 5.67863V3.83344H37.6526V5.51506C38.4424 5.63835 39.2873 6.0235 39.9824 6.4719L39.0087 9.05769C38.3088 8.59092 37.3162 8.13793 36.5199 8.13793C35.6492 8.13793 35.5552 8.58408 35.5552 8.77586C35.5552 9.07618 35.6673 9.33536 37.1169 9.93846C38.5344 10.52 40.1613 11.4739 40.1613 13.7082C40.1614 15.3045 39.1435 16.6395 37.5531 17.1527Z" fill="#FEA700"/>
<path d="M36.2711 0C30.0365 0 24.9824 5.12254 24.9824 11.4415C24.9824 17.7604 30.0366 22.8829 36.2711 22.8829C42.5056 22.8829 47.5598 17.7604 47.5598 11.4415C47.5599 5.12254 42.5057 0 36.2711 0ZM37.5539 17.1527V19.0494H34.9417V17.3069C33.9325 17.1569 33.0356 16.7553 32.2609 16.1466L33.1977 13.5193C33.9574 14.1162 35.0429 14.6616 35.9762 14.6616C36.692 14.6616 37.1546 14.3331 37.1546 13.8246C37.1546 13.494 37.0483 13.098 35.7793 12.5808C34.1909 11.954 32.5647 11.0345 32.5647 8.97511C32.5647 7.4203 33.515 6.17115 35.0573 5.67863V3.83344H37.6534V5.51506C38.4432 5.63835 39.2881 6.0235 39.9832 6.4719L39.0095 9.05769C38.3096 8.59092 37.317 8.13793 36.5207 8.13793C35.65 8.13793 35.556 8.58408 35.556 8.77586C35.556 9.07618 35.6681 9.33536 37.1177 9.93846C38.5352 10.52 40.1621 11.4739 40.1621 13.7082C40.1622 15.3045 39.1443 16.6395 37.5539 17.1527Z" fill="black"/>
</g>
<defs>
<clipPath id="clip0_297_1556">
<rect width="50" height="50" fill="white"/>
</clipPath>
</defs>
</svg>
