<svg width="50" height="50" viewBox="0 0 50 50" fill="none" xmlns="http://www.w3.org/2000/svg">
<path fill-rule="evenodd" clip-rule="evenodd" d="M27.4671 37.5938C28.2232 37.686 28.8422 37.4657 29.053 36.679C29.2413 35.9759 28.7961 35.3182 28.135 35.0851C25.915 34.6775 23.7666 33.9009 22.0767 33.2898C19.6667 32.4187 19.0476 32.2111 16.6694 33.588L12.4862 36.01L16.0097 42.2358L16.1734 42.1414C16.3515 42.0387 16.5632 42.011 16.7617 42.0644L26.4597 44.6604C27.6437 44.9778 28.7718 44.8371 29.8194 44.1922L43.1889 35.9599C43.5874 35.7146 43.7828 35.1406 43.7245 34.5781C43.6773 34.122 43.4542 33.7044 43.0349 33.4921C42.3554 33.148 41.1687 33.2546 39.3246 34.3285L31.9574 38.6194C31.3605 38.9671 30.746 39.1881 30.1079 39.2953C28.2721 39.6037 25.5191 38.7429 23.8727 38.2728C23.3467 38.1226 22.8127 37.97 22.293 37.8308C22.1928 37.8054 22.0987 37.7604 22.0161 37.6984C21.9334 37.6363 21.864 37.5585 21.8116 37.4694C21.7593 37.3803 21.7252 37.2817 21.7113 37.1793C21.6975 37.0769 21.704 36.9728 21.7307 36.8729C21.7574 36.7731 21.8036 36.6796 21.8667 36.5978C21.9299 36.5159 22.0086 36.4475 22.0984 36.3964C22.1882 36.3452 22.2872 36.3124 22.3898 36.2999C22.4923 36.2873 22.5964 36.2953 22.6958 36.3232C24.2835 36.7484 25.858 37.2603 27.4671 37.5938ZM15.4782 7.13379C15.5883 7.13358 15.6939 7.08974 15.7717 7.01186C15.8496 6.93397 15.8935 6.8284 15.8937 6.71826V2.05254C15.8029 2.09459 15.7204 2.15264 15.6502 2.22393L10.9837 6.89043C10.9124 6.96064 10.8544 7.0431 10.8123 7.13389L15.4782 7.13379ZM42.5475 38.1829V42.3743C42.5475 42.832 42.1741 43.2055 41.7163 43.2055H34.3908L42.5475 38.1829ZM41.7164 1.98047H17.4562V6.71826C17.4562 7.80957 16.5695 8.69629 15.4782 8.69629H10.7404V33.4658C11.0682 33.6888 11.3401 33.9844 11.5351 34.3296L11.7183 34.6533L13.9159 33.381V30.9161C13.9159 30.4858 14.2669 30.1349 14.6972 30.1349H17.0089C17.4392 30.1349 17.7902 30.4858 17.7902 30.9161V31.3405C18.9282 30.9561 19.9553 30.916 21.1098 31.2976V26.1194C21.1098 25.6892 21.4608 25.3382 21.891 25.3382H24.2029C24.6331 25.3382 24.9841 25.6892 24.9841 26.1194V32.6529C26.0411 32.9963 27.1716 33.3183 28.3037 33.5333V27.7343C28.3037 27.304 28.6547 26.953 29.085 26.953H31.3968C31.8271 26.953 32.1781 27.304 32.1781 27.7343V36.6871L35.4976 34.7536V21.0373C35.4976 20.607 35.8486 20.2561 36.2788 20.2561H38.5907C39.0209 20.2561 39.3719 20.607 39.3719 21.0373V32.5367C40.6448 31.9197 41.6992 31.7132 42.5475 31.7795V2.81162C42.5475 2.35381 42.1741 1.98047 41.7164 1.98047ZM23.3552 5.94424H33.8813C34.0885 5.94424 34.2872 6.02655 34.4337 6.17306C34.5802 6.31957 34.6625 6.51829 34.6625 6.72549C34.6625 6.93269 34.5802 7.1314 34.4337 7.27792C34.2872 7.42443 34.0885 7.50674 33.8813 7.50674H23.3552C23.148 7.50674 22.9493 7.42443 22.8028 7.27792C22.6563 7.1314 22.574 6.93269 22.574 6.72549C22.574 6.51829 22.6563 6.31957 22.8028 6.17306C22.9493 6.02655 23.148 5.94424 23.3552 5.94424ZM23.3552 9.46572H33.8813C34.0885 9.46572 34.2872 9.54803 34.4337 9.69455C34.5802 9.84106 34.6625 10.0398 34.6625 10.247C34.6625 10.4542 34.5802 10.6529 34.4337 10.7994C34.2872 10.9459 34.0885 11.0282 33.8813 11.0282H23.3552C23.148 11.0282 22.9493 10.9459 22.8028 10.7994C22.6563 10.6529 22.574 10.4542 22.574 10.247C22.574 10.0398 22.6563 9.84106 22.8028 9.69455C22.9493 9.54803 23.148 9.46572 23.3552 9.46572ZM23.3552 12.9875H33.8813C34.0885 12.9875 34.2872 13.0698 34.4337 13.2163C34.5802 13.3628 34.6625 13.5616 34.6625 13.7688C34.6625 13.976 34.5802 14.1747 34.4337 14.3212C34.2872 14.4677 34.0885 14.55 33.8813 14.55H23.3552C23.148 14.55 22.9493 14.4677 22.8028 14.3212C22.6563 14.1747 22.574 13.976 22.574 13.7688C22.574 13.5616 22.6563 13.3628 22.8028 13.2163C22.9493 13.0698 23.148 12.9875 23.3552 12.9875ZM19.1895 5.94424H20.3148C20.522 5.94424 20.7207 6.02655 20.8672 6.17306C21.0137 6.31957 21.096 6.51829 21.096 6.72549C21.096 6.93269 21.0137 7.1314 20.8672 7.27792C20.7207 7.42443 20.522 7.50674 20.3148 7.50674H19.1895C18.9823 7.50674 18.7836 7.42443 18.6371 7.27792C18.4905 7.1314 18.4082 6.93269 18.4082 6.72549C18.4082 6.51829 18.4905 6.31957 18.6371 6.17306C18.7836 6.02655 18.9823 5.94424 19.1895 5.94424ZM19.1895 9.46572H20.3148C20.522 9.46572 20.7207 9.54803 20.8672 9.69455C21.0137 9.84106 21.096 10.0398 21.096 10.247C21.096 10.4542 21.0137 10.6529 20.8672 10.7994C20.7207 10.9459 20.522 11.0282 20.3148 11.0282H19.1895C18.9823 11.0282 18.7836 10.9459 18.6371 10.7994C18.4905 10.6529 18.4082 10.4542 18.4082 10.247C18.4082 10.0398 18.4905 9.84106 18.6371 9.69455C18.7836 9.54803 18.9823 9.46572 19.1895 9.46572ZM19.1895 12.9875H20.3148C20.522 12.9875 20.7207 13.0698 20.8672 13.2163C21.0137 13.3628 21.096 13.5616 21.096 13.7688C21.096 13.976 21.0137 14.1747 20.8672 14.3212C20.7207 14.4677 20.522 14.55 20.3148 14.55H19.1895C18.9823 14.55 18.7836 14.4677 18.6371 14.3212C18.4905 14.1747 18.4082 13.976 18.4082 13.7688C18.4082 13.5616 18.4905 13.3628 18.6371 13.2163C18.7836 13.0698 18.9823 12.9875 19.1895 12.9875ZM38.2046 15.7287L37.9488 18.0175C37.9375 18.1193 37.9064 18.2178 37.857 18.3076C37.8077 18.3973 37.7412 18.4765 37.6613 18.5405C37.5814 18.6046 37.4896 18.6522 37.3913 18.6808C37.293 18.7094 37.19 18.7183 37.0882 18.7071C36.8826 18.6844 36.6945 18.581 36.5651 18.4196C36.5011 18.3397 36.4534 18.2479 36.4248 18.1496C36.3963 18.0513 36.3873 17.9483 36.3986 17.8465L36.4111 17.7347L30.7935 23.4003C30.6922 23.5021 30.5649 23.5739 30.4254 23.6078C30.2859 23.6418 30.1397 23.6365 30.0031 23.5926L23.1992 21.3874L16.3324 26.7344C16.1693 26.8569 15.9647 26.9106 15.7624 26.8839C15.5602 26.8571 15.3766 26.7521 15.251 26.5913C15.1255 26.4306 15.068 26.2269 15.091 26.0243C15.114 25.8216 15.2157 25.636 15.3741 25.5075L22.568 19.906C22.668 19.8278 22.7856 19.7752 22.9106 19.753C23.0356 19.7307 23.1641 19.7394 23.285 19.7782L30.0252 21.9623L35.3819 16.5599L35.1602 16.5793C34.9556 16.5938 34.7535 16.5272 34.5976 16.394C34.4417 16.2607 34.3444 16.0715 34.3268 15.8672C34.3091 15.6628 34.3726 15.4598 34.5034 15.3018C34.6343 15.1439 34.822 15.0437 35.026 15.023L37.3678 14.8176C37.8774 14.7736 38.2904 15.2309 38.2046 15.7287ZM15.9803 45.3563L10.1752 35.0993C9.89456 34.6033 9.25911 34.4272 8.76321 34.7079L6.7887 35.8254C6.2927 36.1061 6.11663 36.7415 6.39729 37.2375L12.2024 47.4946C12.4831 47.9906 13.1185 48.1667 13.6144 47.886L15.5889 46.7686C16.0849 46.4877 16.261 45.8522 15.9803 45.3563ZM9.04817 38.0318C8.86431 38.0564 8.67816 38.0076 8.53007 37.8958C8.38199 37.7841 8.2839 37.6185 8.25706 37.435C8.23022 37.2514 8.2768 37.0647 8.3867 36.9153C8.4966 36.7658 8.66096 36.6657 8.84417 36.6366C9.02917 36.6096 9.21734 36.6571 9.36727 36.7688C9.51721 36.8805 9.61664 37.0472 9.64368 37.2322C9.67072 37.4172 9.62317 37.6054 9.5115 37.7553C9.39982 37.9053 9.23316 38.0047 9.04817 38.0318Z" fill="#FEA700"/>
</svg>
