<svg width="50" height="50" viewBox="0 0 50 50" fill="none" xmlns="http://www.w3.org/2000/svg">
<g clip-path="url(#clip0_297_1559)">
<path d="M32.528 8.99434C30.811 5.76289 28.7003 3.63848 26.469 3.01348V13.1542C29.1103 13.1183 31.6895 12.9613 34.1162 12.6952C33.6624 11.3722 33.132 10.1313 32.528 8.99434ZM34.9456 15.5551C32.2605 15.8692 29.3971 16.0532 26.4688 16.0921V23.531H35.989C35.9007 20.7349 35.5452 18.0409 34.9456 15.5551ZM15.0706 15.4877C14.4612 17.9921 14.1 20.7096 14.0108 23.5311H23.5309V16.0823C20.5913 16.024 17.7355 15.8212 15.0706 15.4877ZM17.472 8.99434C16.8774 10.1133 16.3544 11.333 15.9054 12.6325C18.3117 12.916 20.8818 13.0901 23.531 13.144V3.01348C21.2997 3.63838 19.189 5.76289 17.472 8.99434ZM14.0164 26.4689C14.1356 29.824 14.6401 33.0286 15.4893 35.8981C17.9561 35.564 20.6591 35.3464 23.531 35.2543V26.4689H14.0164ZM46.8237 12.6929C45.2967 13.2974 44.684 13.5464 44.4864 13.6317C44.5652 13.6066 44.6451 13.582 44.7229 13.5566C44.7717 13.5408 44.2033 13.7541 44.4864 13.6317C42.555 14.2451 40.3146 14.7561 37.8666 15.151C38.4799 17.7829 38.8414 20.611 38.9284 23.5311H50C49.7786 19.6781 48.6893 15.9893 46.8237 12.6929ZM11.0772 26.4688H0C0.262793 31.0408 1.74941 35.381 4.30264 39.1093C5.15078 38.6086 6.13369 38.1581 7.24951 37.7602C8.78545 37.2126 10.5751 36.7473 12.5692 36.3691C11.7045 33.3239 11.1942 29.9637 11.0772 26.4688ZM5.35117 13.3815C5.06367 13.2829 4.23418 12.9908 3.24482 12.5741C1.33789 15.9007 0.224023 19.6315 0 23.5311H11.0717C11.1597 20.5766 11.5283 17.7157 12.1548 15.0574C9.61182 14.6219 7.30576 14.0587 5.35117 13.3815ZM7.29131 7.29131C6.4225 8.15985 5.61782 9.09025 4.88359 10.0752C5.35074 10.2621 5.82251 10.4373 6.29844 10.6006L6.3127 10.6055C8.20186 11.2599 10.4527 11.8016 12.9486 12.2155C13.4855 10.5661 14.1304 9.02188 14.8775 7.61572C17.169 3.30293 20.2006 0.595508 23.5311 0C17.394 0.352637 11.6735 2.90918 7.29131 7.29131ZM14.8775 42.2135C14.3721 41.2622 13.914 40.2471 13.5036 39.1799C11.5102 39.5412 9.73701 39.9925 8.23613 40.5277C7.3917 40.8289 6.69551 41.1419 6.12021 41.4545C6.49643 41.8855 6.88698 42.3038 7.29121 42.7087C11.6733 47.0909 17.3938 49.6474 23.5309 50C20.2006 49.4044 17.169 46.5263 14.8775 42.2135ZM42.7087 7.29141C38.3265 2.90918 32.606 0.352637 26.4689 0C29.7993 0.595508 32.8308 3.30293 35.1224 7.61582C35.8829 9.04707 36.5377 10.6211 37.0802 12.3037C39.5844 11.9135 41.8596 11.3981 43.7842 10.7725C43.9953 10.692 44.328 10.5426 45.1983 10.1867C44.4423 9.16048 43.6101 8.19264 42.7087 7.29141ZM36.6618 38.7395C36.2105 39.9688 35.697 41.1321 35.1225 42.2135C32.8309 46.5263 29.7995 49.4044 26.469 50C32.6061 49.6474 38.3266 47.0908 42.7088 42.7087C43.4389 41.9789 44.1238 41.2054 44.76 40.3924C42.4555 39.6813 39.6973 39.1225 36.6618 38.7395ZM16.4837 38.7276C16.7874 39.4628 17.117 40.1667 17.472 40.835C19.1889 44.0664 21.2997 46.3615 23.531 46.9865V38.1933C21.0215 38.2754 18.6561 38.4558 16.4837 38.7276ZM38.9228 26.4688C38.8117 29.7839 38.3472 32.978 37.5616 35.8971C40.9449 36.3514 43.9985 37.0186 46.4967 37.8677C48.5619 34.4313 49.7659 30.5418 50 26.4689H38.9228V26.4688ZM26.4689 26.4689V35.2044C26.5504 35.2042 26.6313 35.2035 26.7129 35.2035C29.4241 35.2035 32.0828 35.3273 34.6084 35.5627C35.3988 32.7799 35.8689 29.6937 35.9836 26.4689H26.4689ZM26.7129 38.1416C26.6313 38.1416 26.5503 38.1423 26.4689 38.1425V46.9867C28.7002 46.3616 30.8109 44.0665 32.5279 40.8351C32.9314 40.0757 33.3017 39.2697 33.6388 38.4245C31.4167 38.2388 29.0887 38.1416 26.7129 38.1416Z" fill="#FEA700"/>
</g>
<defs>
<clipPath id="clip0_297_1559">
<rect width="50" height="50" fill="white"/>
</clipPath>
</defs>
</svg>
