<svg width="222" height="56" viewBox="0 0 222 56" fill="none" xmlns="http://www.w3.org/2000/svg">
<g clip-path="url(#clip0_297_818)">
<path d="M129.423 14.7924C129.423 10.4699 129.456 6.14531 129.398 1.82275C129.385 0.838725 129.762 0.408461 130.717 0.308863C132.793 0.0937315 134.871 0.0977154 136.945 0.298903C137.915 0.392526 138.372 0.824781 138.368 1.8865C138.322 11.3543 138.326 20.8241 138.364 30.2919C138.368 31.2878 137.944 31.6663 137.005 31.8018C134.676 32.1344 132.354 32.0747 130.025 31.7938C129.195 31.6942 128.821 31.1723 128.468 30.5329C126.172 26.3956 123.854 22.2702 121.54 18.1429C121.425 17.9397 121.278 17.7525 121.124 17.5234C120.777 17.9397 120.936 18.358 120.933 18.7385C120.919 22.6626 120.9 26.5888 120.944 30.513C120.952 31.3675 120.668 31.7858 119.777 31.8874C117.536 32.1444 115.302 32.1922 113.063 31.8516C112.352 31.744 112.08 31.4273 112.082 30.7201C112.101 20.9277 112.103 11.1352 112.078 1.34269C112.076 0.591722 112.434 0.316831 113.094 0.247112C115.601 -0.0158264 118.09 0.0797878 120.561 0.591722C121.293 0.743111 121.703 1.1913 122.033 1.80283C124.069 5.56764 126.13 9.3185 128.183 13.0753C128.512 13.6729 128.844 14.2685 129.172 14.8661C129.256 14.8422 129.339 14.8183 129.423 14.7924Z" fill="black"/>
<path d="M0.000522623 15.9178C0.000522623 11.2248 -0.00156787 6.53172 0.00261312 1.83667C0.00470361 0.302862 0.148948 0.159441 1.74609 0.157449C6.97023 0.151473 12.1923 0.181353 17.4164 0.131554C18.4366 0.121594 18.9216 0.472179 19.047 1.37255C19.3021 3.22706 19.2937 5.08357 19.0554 6.93808C18.9341 7.88227 18.4178 8.28664 17.3349 8.2468C15.0458 8.16314 12.7484 8.2468 10.4572 8.20696C9.69205 8.19302 9.26977 8.30258 9.37639 9.16709C9.52272 10.3563 8.84122 11.9558 9.65442 12.6391C10.3589 13.2287 11.9937 12.8104 13.2166 12.8363C13.3023 12.8383 13.386 12.8363 13.4717 12.8363C16.344 12.8363 16.367 12.8562 16.482 15.639C16.4841 15.6788 16.4882 15.7186 16.4882 15.7605C16.5635 19.3241 16.3043 19.5631 12.6271 19.591C11.5819 19.599 10.2168 19.1408 9.57708 19.7882C8.94784 20.4257 9.52272 21.7244 9.37221 22.7144C9.18406 23.9474 9.72759 24.1745 10.9045 24.1247C13.1079 24.0311 15.3218 24.1387 17.5272 24.0789C18.493 24.053 18.9132 24.4614 19.1139 25.2781C19.5885 27.2103 19.4693 29.1305 19.0198 31.0468C18.8484 31.7798 18.4052 32.0627 17.569 32.0567C12.347 32.0209 7.12284 32.0448 1.89869 32.0348C0.41444 32.0328 0.0067941 31.6344 0.00470361 30.242C-0.00156787 25.4673 0.000522623 20.6926 0.000522623 15.9178Z" fill="black"/>
<path d="M186.516 24.0051C185.546 26.5827 184.657 28.8476 183.854 31.1403C183.618 31.8156 183.275 32.1502 182.542 32.1941C180.075 32.3455 177.621 32.1821 175.168 31.963C174.372 31.8913 174.234 31.5885 174.617 30.8734C176.191 27.9253 177.692 24.9413 179.251 21.9873C179.563 21.3996 179.598 20.9275 179.283 20.312C177.627 17.089 176.046 13.8322 174.391 10.6072C174.019 9.88411 174.017 9.55942 174.957 9.39807C177.792 8.91402 180.614 9.04948 183.445 9.39807C184.091 9.47775 184.254 9.8602 184.415 10.3423C185.14 12.4916 185.88 14.6349 186.704 17.0372C187.653 14.7047 188.583 12.6071 189.35 10.4578C189.731 9.3901 190.379 9.0176 191.483 9.00964C193.734 8.99171 195.979 9.0694 198.227 9.20086C199.24 9.25863 199.178 9.62117 198.81 10.3343C197.11 13.629 195.475 16.9536 193.765 20.2423C193.439 20.8678 193.481 21.308 193.826 21.9036C195.419 24.6585 196.947 27.4492 198.511 30.22C199.335 31.6801 199.353 31.728 197.681 31.8754C195.319 32.0845 192.954 32.3096 190.569 32.1084C189.589 32.0248 189.076 31.6901 188.794 30.7459C188.146 28.5866 187.358 26.4652 186.516 24.0051Z" fill="black"/>
<path d="M156.301 24.1804C157.786 24.1824 159.276 24.1665 160.75 24.033C163.509 23.7801 165.934 22.8458 167.017 20.1925C168.192 17.3042 168.029 14.4736 165.87 11.9757C162.822 8.44992 156.191 7.69098 151.918 10.3622C148.345 12.5952 146.986 15.9417 146.641 19.832C145.989 27.2261 150.78 32.5168 158.179 32.5108C159.924 32.4969 161.643 32.2817 163.315 31.7837C166.662 30.7898 167.281 29.4153 165.746 26.3935C165.673 26.2481 165.571 26.1166 165.51 25.9652C165.228 25.2641 164.835 25.1426 164.07 25.4772C161.954 26.4055 159.711 26.762 157.382 26.4652C156.519 26.3557 155.902 25.9692 155.607 25.1246C155.371 24.4454 155.486 24.1804 156.301 24.1804ZM155.488 18.832C155.058 17.7922 155.62 16.4198 156.571 15.9935C157.476 15.5851 158.44 15.5373 159.153 16.2704C159.816 16.9476 159.826 17.8639 159.349 18.6408C158.854 19.4515 157.911 19.1189 157.073 19.2025C156.6 18.9934 155.802 19.589 155.488 18.832Z" fill="black"/>
<path d="M62.0779 25.5132C59.9874 26.4036 57.7924 26.7581 55.5033 26.4733C54.5814 26.3558 53.9333 25.9634 53.6658 25.055C53.4881 24.4375 53.5801 24.1845 54.3368 24.1825C55.9486 24.1786 57.5687 24.1706 59.1679 24.0053C61.3901 23.7742 63.3803 22.9933 64.645 21.103C66.6916 18.0533 65.983 13.5395 63.1252 11.1153C59.6968 8.20901 53.4734 7.95802 49.6144 10.6093C46.1609 12.9817 44.8878 16.382 44.7226 20.2783C44.3422 25.5032 46.9093 29.9234 51.4979 31.7062C54.6525 32.9312 57.9053 32.734 61.11 31.8496C64.7517 30.8437 65.569 29.9891 63.6312 26.0092C63.2402 25.2044 62.8242 25.1964 62.0779 25.5132ZM54.711 15.9697C55.6141 15.6071 56.5799 15.5155 57.2761 16.3063C57.9011 17.0135 57.9178 17.9039 57.3994 18.6748C56.9144 19.3939 56.0928 19.1528 55.3319 19.1947C55.2044 19.2006 55.0789 19.1787 54.9535 19.1608C54.4748 19.0931 53.7996 19.5313 53.5571 18.7764C53.1912 17.6549 53.7368 16.3621 54.711 15.9697Z" fill="black"/>
<path d="M95.1717 24.0033C91.9482 24.9674 90.905 27.1944 90.6353 30.0907C90.3949 32.6464 89.0382 33.3735 86.354 32.748C85.9171 32.6464 85.5638 32.4492 85.5701 31.9413C85.5721 31.7799 85.568 31.6186 85.5638 31.4552C85.4948 28.1207 85.3568 27.9872 82.0183 28.0131C79.8066 28.031 79.2714 28.5828 79.3947 30.7142C79.4156 31.0747 79.4804 31.4393 79.4554 31.7978C79.4324 32.1165 79.3383 32.509 78.9892 32.6046C77.7474 32.9472 76.4639 32.7679 75.2033 32.7341C74.3734 32.7101 74.2396 31.8775 73.972 31.3297C71.0056 25.2403 71.9965 15.9458 78.6986 11.5814C80.9835 10.0934 83.5569 9.32453 86.3122 9.24684C87.0773 9.22493 88.0912 8.56559 88.6368 9.52372C89.149 10.4241 88.1685 10.9779 87.7504 11.6272C84.8049 16.2187 87.995 22.5392 93.7836 23.5232C94.2205 23.5989 94.6721 23.6009 95.1717 24.0033Z" fill="#FEA700"/>
<path d="M217.767 23.7801C217.767 26.1645 217.734 28.5509 217.786 30.9333C217.803 31.7261 217.564 32.1464 216.716 32.2101C214.341 32.3854 211.974 32.3356 209.612 32.0129C208.763 31.8974 208.966 31.2998 208.964 30.8078C208.958 26.1187 208.931 21.4316 208.983 16.7425C208.993 15.7983 208.749 15.5015 207.735 15.5434C205.883 15.6191 205.755 15.4537 205.638 13.6709C205.598 13.0674 205.584 12.4598 205.607 11.8543C205.701 9.40215 205.707 9.37227 208.236 9.25076C208.905 9.21889 208.987 8.96193 208.968 8.44203C208.937 7.59345 209.004 6.74288 208.947 5.8963C208.893 5.10151 209.217 4.68917 210.034 4.55969C212.102 4.23102 214.163 4.24895 216.231 4.56965C216.856 4.66726 217.063 4.99394 217.067 5.57161C217.071 6.7389 216.678 8.24681 217.286 8.97986C217.932 9.75672 219.584 9.16112 220.794 9.21889C221.371 9.24678 221.643 9.50374 221.747 9.99576C222.094 11.6391 222.078 13.2785 221.743 14.9259C221.597 15.643 221.066 15.631 220.495 15.647C217.767 15.7246 217.767 15.7286 217.767 18.3222C217.767 20.1428 217.767 21.9615 217.767 23.7801Z" fill="black"/>
<path d="M36.6813 16.133C36.6813 21.0273 36.6583 25.9235 36.7022 30.8177C36.7105 31.6623 36.4095 31.9771 35.5754 32.0089C33.3678 32.0926 31.1624 32.1065 28.9569 32.0089C28.2148 31.9771 27.9764 31.6703 27.9785 30.9452C28.0036 21.0751 28.0036 11.2049 27.9785 1.33473C27.9764 0.53396 28.3235 0.300901 29.0719 0.195327C31.363 -0.127371 33.6417 0.0100742 35.9266 0.213254C36.7607 0.286957 36.6854 0.792915 36.6854 1.33074C36.6792 6.26284 36.6813 11.1969 36.6813 16.133Z" fill="black"/>
<path d="M103.529 23.0211C103.492 22.7422 103.467 22.4574 103.393 22.1825C102.382 18.2464 100.594 14.6748 97.7679 11.6191C95.8153 9.50765 93.2231 8.96982 91.2455 10.2347C88.7787 11.8163 88.045 14.1091 88.4443 16.7783C88.8268 19.324 91.0239 21.4056 93.7478 22.059C95.8781 22.5689 97.8139 21.9474 99.9921 21.075C99.4486 21.9574 98.8445 22.304 98.2215 22.6486C96.846 23.4056 96.9191 23.3797 97.6863 24.7183C98.071 25.3856 98.4264 25.539 99.1601 25.3517C100.136 25.1047 101.138 24.8736 102.143 24.8079C103.441 24.7242 103.674 24.041 103.529 23.0211ZM93.2628 17.1986C92.5207 17.1647 92.0462 16.7225 92.0775 16.0353C92.1026 15.4178 92.5437 15.0015 93.2587 15.0075C94.0468 15.0174 94.3123 15.5493 94.467 16.1449C94.2976 16.7684 93.982 17.2345 93.2628 17.1986Z" fill="#FEA700"/>
<path d="M98.3711 25.9991C99.7048 25.778 101.026 25.5769 102.341 25.3338C102.803 25.2482 103.202 25.2721 103.43 25.6824C103.66 26.0948 103.587 26.5549 103.38 26.9613C103.171 27.3716 102.772 27.4772 102.314 27.4075C101.323 27.2561 100.336 27.0668 99.339 26.9772C98.6972 26.9154 98.4714 26.5967 98.3711 25.9991Z" fill="#FEA905"/>
<path d="M95.6129 31.248C95.4686 30.4173 95.9097 29.9154 96.7815 29.9432C97.7807 29.9751 98.3075 30.7838 98.3577 31.5408C98.4288 32.6264 97.348 32.5169 96.5829 32.5846C95.5397 32.6762 95.5815 31.9591 95.6129 31.248Z" fill="#FEA906"/>
<path d="M99.857 27.5569C100.566 27.6704 101.268 27.7899 101.973 27.8935C102.662 27.9951 102.769 28.4553 102.625 28.9652C102.472 29.503 102.035 29.77 101.454 29.5688C100.783 29.3357 100.108 29.0787 99.4995 28.7282C99.1671 28.5369 98.4041 28.6007 98.6257 27.9354C98.8201 27.3597 99.4409 27.7142 99.857 27.5569Z" fill="#FEAA07"/>
<path d="M98.265 29.0749C99.258 29.0908 99.8475 29.4135 100.445 29.7103C101.05 30.0111 101.198 30.4792 100.799 30.9931C100.387 31.521 99.8308 31.8477 99.1932 31.2879C98.7626 30.9095 98.3904 30.4633 98.0183 30.029C97.8678 29.8537 97.6692 29.6406 97.7884 29.3896C97.9305 29.0848 98.2462 29.0729 98.265 29.0749Z" fill="#FEA906"/>
<path d="M148.826 50.5459L153.664 50.2571C153.768 51.006 153.981 51.5757 154.303 51.9682C154.826 52.6036 155.574 52.9203 156.548 52.9203C157.274 52.9203 157.834 52.759 158.227 52.4343C158.62 52.1096 158.817 51.7331 158.817 51.3068C158.817 50.9005 158.631 50.5359 158.256 50.2152C157.882 49.8945 157.015 49.5917 155.652 49.3069C153.421 48.8288 151.832 48.1954 150.881 47.4026C149.924 46.6118 149.445 45.6018 149.445 44.3768C149.445 43.572 149.69 42.8091 150.181 42.094C150.67 41.3769 151.408 40.8152 152.393 40.4048C153.375 39.9945 154.726 39.7893 156.438 39.7893C158.541 39.7893 160.142 40.1618 161.248 40.9068C162.352 41.6518 163.008 42.837 163.217 44.4624L158.426 44.7294C158.298 44.0242 158.031 43.5103 157.623 43.1896C157.215 42.8689 156.653 42.7075 155.934 42.7075C155.342 42.7075 154.897 42.827 154.598 43.0661C154.299 43.3051 154.149 43.5959 154.149 43.9386C154.149 44.1876 154.272 44.4126 154.519 44.6118C154.759 44.819 155.328 45.0102 156.224 45.1895C158.447 45.6457 160.037 46.1078 160.999 46.5739C161.961 47.04 162.661 47.6197 163.098 48.3109C163.535 49.0021 163.754 49.777 163.754 50.6315C163.754 51.6375 163.462 52.5638 162.878 53.4123C162.295 54.2609 161.48 54.9043 160.433 55.3425C159.385 55.7808 158.064 55.9999 156.471 55.9999C153.672 55.9999 151.734 55.486 150.657 54.4601C149.579 53.4342 148.968 52.1295 148.826 50.5459Z" fill="black"/>
<path d="M170.287 48.054L165.922 47.6158C166.087 46.8887 166.324 46.317 166.635 45.8987C166.944 45.4824 167.392 45.1199 167.977 44.8131C168.395 44.592 168.972 44.4207 169.706 44.2992C170.44 44.1777 171.232 44.1179 172.085 44.1179C173.454 44.1179 174.554 44.1916 175.384 44.337C176.214 44.4825 176.906 44.7872 177.46 45.2513C177.848 45.5721 178.156 46.0262 178.379 46.6158C178.603 47.2035 178.716 47.7652 178.716 48.301V53.3168C178.716 53.8506 178.752 54.2709 178.823 54.5737C178.894 54.8765 179.048 55.2629 179.289 55.735H175.001C174.828 55.4422 174.717 55.2191 174.665 55.0657C174.612 54.9124 174.56 54.6713 174.508 54.3447C173.908 54.8944 173.314 55.2849 172.723 55.5219C171.914 55.8346 170.975 55.992 169.905 55.992C168.483 55.992 167.402 55.6793 166.666 55.0518C165.928 54.4243 165.561 53.6514 165.561 52.7312C165.561 51.8686 165.826 51.1595 166.357 50.6037C166.888 50.048 167.868 49.6337 169.298 49.3628C171.01 49.0341 172.123 48.805 172.633 48.6735C173.141 48.5421 173.68 48.3688 174.249 48.1556C174.249 47.6218 174.132 47.2473 173.902 47.0322C173.67 46.819 173.262 46.7115 172.679 46.7115C171.93 46.7115 171.37 46.825 170.996 47.0541C170.703 47.2274 170.467 47.562 170.287 48.054ZM174.249 50.3428C173.619 50.5559 172.965 50.7452 172.284 50.9105C171.355 51.1456 170.768 51.3766 170.521 51.6057C170.266 51.8408 170.139 52.1077 170.139 52.4085C170.139 52.7511 170.264 53.03 170.515 53.2471C170.766 53.4642 171.134 53.5738 171.621 53.5738C172.129 53.5738 172.603 53.4562 173.04 53.2212C173.477 52.9861 173.789 52.6993 173.973 52.3607C174.157 52.022 174.249 51.5818 174.249 51.04V50.3428Z" fill="black"/>
<path d="M181.727 40.0542H186.305V55.7329H181.727V40.0542Z" fill="black"/>
<path d="M189.496 40.0542H194.074V55.7329H189.496V40.0542Z" fill="black"/>
<path d="M210.341 51.1356H201.182C201.264 51.8348 201.462 52.3547 201.778 52.6973C202.219 53.1893 202.796 53.4343 203.507 53.4343C203.956 53.4343 204.383 53.3268 204.786 53.1136C205.033 52.9782 205.298 52.7391 205.583 52.3965L210.084 52.7929C209.396 53.9343 208.564 54.751 207.592 55.247C206.62 55.743 205.223 55.99 203.404 55.99C201.826 55.99 200.582 55.7789 199.679 55.3546C198.774 54.9303 198.023 54.257 197.43 53.3327C196.836 52.4085 196.537 51.3248 196.537 50.0759C196.537 48.301 197.133 46.8648 198.327 45.7653C199.52 44.6677 201.168 44.1179 203.271 44.1179C204.976 44.1179 206.323 44.3629 207.312 44.8549C208.298 45.347 209.051 46.0601 209.567 46.9943C210.084 47.9285 210.341 49.1436 210.341 50.6416V51.1356ZM205.693 49.05C205.604 48.2094 205.365 47.6058 204.981 47.2433C204.594 46.8788 204.088 46.6975 203.461 46.6975C202.735 46.6975 202.154 46.9724 201.722 47.5202C201.446 47.8628 201.268 48.3728 201.195 49.05H205.693Z" fill="black"/>
<path d="M212.6 44.3749H216.877V46.2354C217.289 45.4306 217.713 44.8749 218.15 44.5721C218.587 44.2693 219.128 44.1179 219.772 44.1179C220.445 44.1179 221.181 44.3171 221.984 44.7175L220.571 47.819C220.031 47.6058 219.605 47.4983 219.291 47.4983C218.691 47.4983 218.229 47.7333 217.899 48.2034C217.429 48.8668 217.192 50.1077 217.192 51.9244V55.7311H212.602V44.3749H212.6Z" fill="black"/>
</g>
<defs>
<clipPath id="clip0_297_818">
<rect width="222" height="56" fill="white"/>
</clipPath>
</defs>
</svg>
