<svg width="190" height="30" viewBox="0 0 190 30" fill="none" xmlns="http://www.w3.org/2000/svg">
<g clip-path="url(#clip0_304_4497)">
<path d="M110.366 13.4646C110.366 9.52899 110.394 5.59456 110.345 1.66014C110.334 0.763787 110.655 0.372837 111.471 0.283315C113.241 0.0872739 115.012 0.0906734 116.782 0.27425C117.608 0.360372 117.999 0.752455 117.995 1.71793C117.956 10.337 117.959 18.9548 117.99 27.5739C117.994 28.4804 117.633 28.826 116.833 28.9473C114.846 29.2498 112.865 29.1955 110.881 28.9405C110.173 28.8498 109.854 28.3739 109.552 27.7926C107.594 24.027 105.618 20.2716 103.644 16.514C103.547 16.3292 103.421 16.1593 103.288 15.9496C102.993 16.3292 103.128 16.7089 103.127 17.0556C103.115 20.6286 103.099 24.2015 103.136 27.7733C103.144 28.5507 102.9 28.9326 102.141 29.0255C100.229 29.2589 98.3239 29.302 96.4143 28.9937C95.8071 28.8952 95.5765 28.6073 95.5776 27.9637C95.5943 19.05 95.5965 10.1375 95.5742 1.22386C95.572 0.540549 95.8773 0.290114 96.441 0.227789C98.579 -0.0101802 100.703 0.075942 102.808 0.541682C103.433 0.679931 103.781 1.08675 104.064 1.64314C105.801 5.0699 107.558 8.48532 109.308 11.903C109.587 12.4481 109.871 12.9897 110.153 13.5337C110.224 13.5099 110.296 13.4872 110.368 13.4634L110.366 13.4646Z" fill="#272220"/>
<path d="M0.00099033 14.4901C0.00099033 10.2179 -0.00123791 5.9447 0.00099033 1.67258C0.00321857 0.276494 0.126886 0.146177 1.48946 0.145044C5.94371 0.140511 10.398 0.167708 14.8511 0.12238C15.7201 0.113315 16.1346 0.43174 16.2415 1.25217C16.4599 2.93948 16.4521 4.6302 16.2482 6.31751C16.1446 7.17647 15.7045 7.54362 14.7809 7.50849C12.8279 7.43257 10.8704 7.50849 8.91507 7.47223C8.2622 7.45977 7.90122 7.55949 7.99258 8.34705C8.11736 9.42925 7.53579 10.8865 8.22989 11.5064C8.8304 12.0435 10.2242 11.6616 11.2681 11.6854C11.3405 11.6866 11.4129 11.6854 11.4854 11.6854C13.9342 11.6854 13.9542 11.7047 14.0512 14.2362C14.0523 14.2725 14.0567 14.3099 14.0567 14.3461C14.1214 17.5893 13.9008 17.8069 10.7634 17.833C9.8721 17.8398 8.70673 17.4228 8.16304 18.012C7.62715 18.5922 8.11625 19.7752 7.98812 20.6761C7.82769 21.7991 8.29117 22.0054 9.29499 21.96C11.1745 21.875 13.0607 21.9725 14.9425 21.9192C15.7658 21.8954 16.1246 22.2671 16.2961 23.0105C16.7006 24.7703 16.5981 26.5177 16.217 28.2617C16.0711 28.9291 15.6934 29.1852 14.9803 29.1807C10.5261 29.1478 6.07184 29.1694 1.61758 29.1603C0.351939 29.158 0.00321857 28.7954 0.00210445 27.5285C-0.00123791 23.1816 0.00099033 18.8358 0.00099033 14.4901Z" fill="#272220"/>
<path d="M159.049 21.8501C158.222 24.1958 157.464 26.2582 156.779 28.3444C156.578 28.9586 156.286 29.2634 155.66 29.3042C153.556 29.4413 151.463 29.294 149.372 29.0934C148.692 29.0288 148.575 28.7535 148.901 28.1019C150.245 25.4196 151.523 22.7034 152.854 20.0143C153.12 19.4795 153.151 19.05 152.881 18.4891C151.468 15.5552 150.121 12.5897 148.71 9.65587C148.393 8.99749 148.39 8.70286 149.192 8.55668C151.61 8.11473 154.015 8.23939 156.431 8.55668C156.981 8.6292 157.12 8.97709 157.259 9.41677C157.876 11.3726 158.509 13.324 159.21 15.511C160.02 13.3875 160.813 11.4792 161.468 9.52215C161.793 8.55101 162.344 8.21106 163.286 8.20312C165.207 8.18726 167.121 8.25865 169.037 8.3765C169.903 8.42976 169.849 8.75838 169.535 9.4077C168.086 12.4061 166.692 15.4329 165.233 18.4256C164.956 18.9945 164.992 19.3967 165.285 19.9373C166.644 22.445 167.946 24.9845 169.28 27.507C169.983 28.8362 169.997 28.8804 168.572 29.0141C166.558 29.2045 164.543 29.4096 162.507 29.2249C161.67 29.149 161.235 28.8441 160.993 27.9852C160.439 26.0202 159.768 24.0893 159.05 21.849L159.049 21.8501Z" fill="#272220"/>
<path d="M133.284 22.011C134.549 22.0133 135.821 21.9974 137.077 21.8762C139.431 21.6461 141.498 20.7951 142.421 18.3814C143.423 15.7524 143.285 13.1755 141.443 10.9024C138.844 7.69205 133.19 7.00307 129.545 9.43489C126.498 11.4667 125.34 14.5127 125.047 18.055C124.491 24.785 128.576 29.6022 134.884 29.5954C136.373 29.5818 137.838 29.3881 139.264 28.9348C142.118 28.0305 142.646 26.7795 141.337 24.0292C141.274 23.8966 141.187 23.7776 141.136 23.6405C140.894 23.0014 140.56 22.8915 139.908 23.1963C138.104 24.0405 136.191 24.3658 134.205 24.0961C133.468 23.9963 132.941 23.6451 132.692 22.8756C132.492 22.2546 132.589 22.0133 133.285 22.0133L133.284 22.011ZM132.591 17.1428C132.224 16.1966 132.704 14.9478 133.515 14.558C134.287 14.1863 135.108 14.1422 135.717 14.8096C136.281 15.4261 136.29 16.2601 135.884 16.9672C135.462 17.706 134.658 17.4023 133.943 17.4783C133.538 17.2879 132.858 17.8295 132.591 17.1417V17.1428Z" fill="#272220"/>
<path d="M52.937 23.2224C51.1544 24.0337 49.2827 24.3567 47.3319 24.0961C46.5453 23.9895 45.9927 23.6315 45.7643 22.8054C45.6117 22.2433 45.6908 22.0144 46.3359 22.0121C47.7096 22.0076 49.0922 22.0008 50.4548 21.8512C52.3499 21.6416 54.0478 20.9288 55.1263 19.2098C56.8721 16.4334 56.2671 12.3256 53.8306 10.1193C50.9071 7.47334 45.5994 7.24557 42.3083 9.65926C39.3626 11.8191 38.2785 14.9138 38.137 18.4607C37.8128 23.2156 40.0021 27.2395 43.9149 28.8622C46.6055 29.9762 49.3796 29.7971 52.1115 28.9926C55.2176 28.077 55.9129 27.2996 54.2606 23.6756C53.9286 22.9436 53.5732 22.9368 52.937 23.2246V23.2224ZM46.6556 14.5365C47.4255 14.2067 48.2488 14.1229 48.8426 14.8436C49.3752 15.4872 49.3908 16.2986 48.9474 16.9989C48.5329 17.6528 47.8332 17.4341 47.1848 17.4714C47.0768 17.4782 46.9698 17.4579 46.8628 17.4409C46.4551 17.3785 45.8791 17.7785 45.6719 17.0907C45.361 16.0697 45.8267 14.8934 46.6567 14.5354L46.6556 14.5365Z" fill="#272220"/>
<path d="M81.1545 21.8489C78.406 22.726 77.5169 24.7544 77.2852 27.3891C77.0813 29.7144 75.9237 30.3773 73.6342 29.8084C73.2609 29.7155 72.9601 29.5353 72.9657 29.0753C72.9679 28.928 72.9635 28.7806 72.9601 28.6333C72.9022 25.5987 72.783 25.4763 69.9364 25.5001C68.0513 25.5159 67.5945 26.0179 67.6993 27.9579C67.7171 28.2866 67.7717 28.6175 67.7505 28.9438C67.7316 29.2351 67.6513 29.5909 67.3528 29.6781C66.2932 29.9898 65.1992 29.8266 64.124 29.7948C63.4166 29.7744 63.3018 29.0152 63.0745 28.5166C60.5455 22.9731 61.3889 14.5127 67.1043 10.5409C69.054 9.1867 71.2477 8.48639 73.5963 8.415C74.2481 8.39574 75.1126 7.79401 75.5783 8.66657C76.0151 9.48473 75.1783 9.99126 74.8229 10.5817C72.3106 14.7608 75.0313 20.5152 79.9668 21.4104C80.3445 21.4784 80.7278 21.4818 81.1534 21.8467L81.1545 21.8489Z" fill="#FEA700"/>
<path d="M185.701 21.6451C185.701 23.8151 185.672 25.9863 185.717 28.1564C185.731 28.8771 185.528 29.2601 184.803 29.3179C182.778 29.4777 180.759 29.4312 178.746 29.1377C178.023 29.0323 178.194 28.4895 178.193 28.0408C178.187 23.7732 178.165 19.5056 178.21 15.238C178.219 14.3779 178.01 14.1082 177.146 14.1468C175.566 14.2159 175.457 14.0663 175.356 12.4425C175.323 11.8929 175.31 11.3399 175.33 10.7891C175.41 8.55676 175.416 8.53069 177.571 8.41964C178.142 8.39018 178.212 8.15788 178.196 7.6842C178.17 6.9125 178.228 6.1374 178.179 5.36797C178.133 4.64499 178.408 4.26878 179.105 4.15092C180.868 3.8529 182.627 3.86763 184.389 4.15886C184.921 4.24725 185.099 4.54527 185.101 5.07107C185.105 6.134 184.769 7.50629 185.289 8.17374C185.839 8.88085 187.249 8.33919 188.28 8.39245C188.773 8.41738 189.004 8.65195 189.092 9.09955C189.388 10.5954 189.374 12.0889 189.089 13.587C188.965 14.2386 188.512 14.2295 188.024 14.2431C186.474 14.2899 185.699 15.1013 185.699 16.6772C185.699 18.3328 185.699 19.9884 185.699 21.6439L185.701 21.6451Z" fill="#272220"/>
<path d="M31.2778 14.685C31.2778 19.1406 31.2588 23.5963 31.2956 28.0509C31.3023 28.8192 31.046 29.1059 30.3341 29.1342C28.4523 29.2101 26.5717 29.2226 24.69 29.1342C24.0571 29.1048 23.8533 28.826 23.8555 28.1665C23.8767 19.1826 23.8778 10.1975 23.8555 1.21362C23.8533 0.484982 24.1496 0.271943 24.7869 0.175622C26.7399 -0.117873 28.683 0.00677741 30.6327 0.191487C31.3446 0.259478 31.28 0.719552 31.2789 1.20796C31.2755 5.69991 31.2766 10.1919 31.2766 14.685H31.2778Z" fill="#272220"/>
<path d="M88.2861 20.9538C88.2538 20.7 88.2315 20.4405 88.1713 20.1912C87.3079 16.608 85.7849 13.358 83.3739 10.5761C81.7094 8.65531 79.4979 8.16464 77.8122 9.31596C75.7076 10.7551 75.0826 12.8424 75.4235 15.272C75.75 17.5894 77.6228 19.484 79.9469 20.0778C81.764 20.5424 83.414 19.9759 85.2724 19.1826C84.8089 19.9849 84.2942 20.3011 83.7616 20.615C82.5873 21.3051 82.6509 21.2802 83.3048 22.4983C83.6335 23.1068 83.9354 23.2451 84.5616 23.0751C85.3938 22.8496 86.2483 22.64 87.1051 22.5799C88.2114 22.5051 88.4097 21.8807 88.2872 20.9527L88.2861 20.9538ZM79.5313 15.655C78.8985 15.6244 78.4941 15.2221 78.5208 14.5966C78.5431 14.0346 78.9185 13.6549 79.5269 13.6617C80.1987 13.6708 80.4248 14.1547 80.5574 14.6963C80.4137 15.2641 80.1441 15.689 79.5313 15.6561V15.655Z" fill="#FEA700"/>
<path d="M83.8828 23.6644C85.0192 23.4638 86.1478 23.2802 87.2675 23.0581C87.6619 22.9799 88.0028 23.0026 88.1967 23.3743C88.3928 23.7505 88.3304 24.1687 88.1544 24.5381C87.9761 24.912 87.6363 25.0084 87.2452 24.9449C86.4007 24.8078 85.5585 24.6344 84.7084 24.5528C84.1636 24.5007 83.9708 24.2095 83.8839 23.6644H83.8828Z" fill="#FEA905"/>
<path d="M81.5346 28.443C81.412 27.6861 81.7875 27.2305 82.5306 27.2543C83.3818 27.2826 83.8319 28.0181 83.8742 28.7082C83.9355 29.6963 83.0119 29.5966 82.3613 29.6578C81.4722 29.7417 81.5067 29.0901 81.5346 28.443Z" fill="#FEA906"/>
<path d="M85.1538 25.0831C85.7587 25.1862 86.357 25.295 86.9587 25.3902C87.5469 25.4831 87.6383 25.9013 87.5146 26.3659C87.3842 26.8554 87.011 27.0991 86.5163 26.9155C85.9437 26.7025 85.3677 26.469 84.8496 26.1506C84.5666 25.9761 83.9149 26.0339 84.1043 25.4288C84.2681 24.9041 84.7984 25.227 85.1538 25.0831Z" fill="#FEAA07"/>
<path d="M83.7931 26.4644C84.6398 26.4792 85.1423 26.7715 85.6514 27.0435C86.1673 27.3177 86.2932 27.7438 85.9534 28.2107C85.6024 28.6923 85.1267 28.9892 84.5841 28.4792C84.2164 28.1347 83.9 27.7279 83.5825 27.3324C83.4544 27.1727 83.285 26.9778 83.3864 26.75C83.509 26.4735 83.7786 26.4633 83.7942 26.4644H83.7931Z" fill="#FEA906"/>
</g>
<defs>
<clipPath id="clip0_304_4497">
<rect width="189.31" height="30" fill="white"/>
</clipPath>
</defs>
</svg>
