<svg width="49" height="49" viewBox="0 0 49 49" fill="none" xmlns="http://www.w3.org/2000/svg">
<g clip-path="url(#clip0_279_7844)">
<path d="M24.8008 46.48C36.951 46.48 46.8008 36.6302 46.8008 24.48C46.8008 12.3297 36.951 2.47998 24.8008 2.47998C12.6505 2.47998 2.80078 12.3297 2.80078 24.48C2.80078 36.6302 12.6505 46.48 24.8008 46.48Z" fill="#FEA700" stroke="#FFEBC4" stroke-width="4" stroke-miterlimit="10"/>
<path d="M31.9235 22.6846C32.2197 22.8623 32.4648 23.1137 32.6349 23.4142C32.8051 23.7148 32.8945 24.0543 32.8945 24.3996C32.8945 24.745 32.8051 25.0845 32.6349 25.385C32.4648 25.6856 32.2197 25.9369 31.9235 26.1146L23.4365 31.2066C23.133 31.3887 22.7866 31.487 22.4327 31.4915C22.0788 31.496 21.7301 31.4064 21.4221 31.2321C21.1141 31.0577 20.8579 30.8047 20.6797 30.4989C20.5014 30.1932 20.4075 29.8456 20.4075 29.4916V19.3076C20.4075 18.9537 20.5014 18.6061 20.6797 18.3004C20.8579 17.9946 21.1141 17.7416 21.4221 17.5672C21.7301 17.3928 22.0788 17.3033 22.4327 17.3078C22.7866 17.3122 23.133 17.4105 23.4365 17.5926L31.9235 22.6846Z" fill="white"/>
</g>
<defs>
<clipPath id="clip0_279_7844">
<rect width="48" height="48" fill="white" transform="translate(0.800781 0.47998)"/>
</clipPath>
</defs>
</svg>
