<svg width="43" height="46" viewBox="0 0 43 46" fill="none" xmlns="http://www.w3.org/2000/svg">
<g clip-path="url(#clip0_279_8108)">
<path d="M4.59837 27.4663C1.29062 30.791 1.04671 31.0649 0.740827 31.6727C0.460736 32.2347 0.313538 32.8536 0.310592 33.4815C0.307646 34.1094 0.449031 34.7297 0.723835 35.2943C0.994733 35.8351 1.29062 36.167 3.4548 38.3132C5.98585 40.8262 6.16878 40.9662 7.1894 41.2361C8.28946 41.5016 9.44988 41.322 10.4182 40.7362C11.1188 40.1769 11.7833 39.5735 12.4074 38.9299L13.9518 37.3945L17.9923 41.409C21.614 45.0306 22.0678 45.4495 22.4516 45.5804C23.106 45.7595 23.7965 45.7595 24.4509 45.5804C25.115 45.3078 25.6509 44.7934 25.9503 44.141C26.1472 43.7567 26.2172 43.32 26.1503 42.8934C26.0983 41.8288 25.9503 41.6189 23.6372 39.3068L21.638 37.3075L22.3277 36.5918C22.9412 36.0272 23.3804 35.2988 23.5932 34.4926C23.9601 33.0931 22.9045 30.3742 21.8309 29.2576L21.2461 28.6468L20.5564 29.1526C20.1815 29.4315 19.6837 29.8154 19.4478 30.0073L19.0379 30.3472L19.5967 30.9469C20.5044 31.9066 21.1761 33.7459 20.2505 34.7335L19.6567 35.3623L13.8969 29.6374L8.12904 23.9126L4.59837 27.4663ZM10.6891 30.3722C10.8911 30.4708 11.0674 30.6152 11.2038 30.794C11.3402 30.9727 11.433 31.1808 11.4748 31.4018C11.5877 31.9426 11.3268 32.3534 10.0873 33.575C8.79579 34.8315 8.5169 34.9974 7.85315 34.8145C7.62044 34.7307 7.41032 34.5942 7.2393 34.4155C7.06828 34.2369 6.94102 34.021 6.86752 33.7849C6.82354 32.9562 6.9195 32.7992 8.255 31.4857C9.59049 30.1722 9.93836 30.0053 10.6891 30.3722Z" fill="black"/>
<path d="M30.9393 1.54584C30.9393 0.693982 30.249 0.00341797 29.3974 0.00341797C28.5458 0.00341797 27.8555 0.693982 27.8555 1.54584V4.62867C27.8555 5.48053 28.5458 6.17109 29.3974 6.17109C30.249 6.17109 30.9393 5.48053 30.9393 4.62867V1.54584Z" fill="black" fill-opacity="0.55"/>
<path d="M41.2193 14.91C42.0712 14.91 42.7617 14.2197 42.7617 13.3681C42.7617 12.5165 42.0712 11.8262 41.2193 11.8262H38.1365C37.2846 11.8262 36.594 12.5165 36.594 13.3681C36.594 14.2197 37.2846 14.91 38.1365 14.91H41.2193Z" fill="black" fill-opacity="0.55"/>
<path d="M38.7735 6.17262C39.3759 5.57027 39.3761 4.59383 38.7739 3.99167C38.1717 3.38951 37.1953 3.38967 36.5929 3.99202L34.413 6.17192C33.8107 6.77427 33.8105 7.75072 34.4127 8.35287C35.0148 8.95503 35.9913 8.95487 36.5936 8.35252L38.7735 6.17262Z" fill="black" fill-opacity="0.55"/>
<path d="M18.6049 3.02235C18.0059 3.27792 17.5236 3.74768 17.2524 4.33985C17.0812 4.64536 16.983 4.98642 16.9657 5.33624C16.9483 5.68606 17.0123 6.03516 17.1525 6.35612L17.3794 7.08082L26.341 16.0344C35.0147 24.7172 35.3116 25.0051 35.8175 25.189C36.1825 25.3379 36.576 25.4042 36.9697 25.3832C37.3634 25.3621 37.7475 25.2541 38.0946 25.0671C38.409 24.9346 38.6897 24.7334 38.9161 24.4783C39.1425 24.2231 39.3089 23.9205 39.4031 23.5926C39.5883 22.9076 39.5422 22.1806 39.2721 21.5244C38.9723 20.9396 21.4969 3.45221 20.8941 3.13733C20.173 2.81104 19.3551 2.76995 18.6049 3.02235Z" fill="#FFDD9C"/>
<path d="M36.5925 25.3858C32.4996 25.7302 28.46 26.5439 24.553 27.8109C21.6395 28.8853 19.0024 30.5962 16.8339 32.819L8.11719 24.0343C10.6803 22.1185 12.8472 19.7234 14.4978 16.982C16.1005 13.8636 17.2054 10.5137 17.7725 7.05371L36.5925 25.3858Z" fill="#FEA700"/>
</g>
<defs>
<clipPath id="clip0_279_8108">
<rect width="42.45" height="45.7128" fill="white" transform="translate(0.310547 0.00341797)"/>
</clipPath>
</defs>
</svg>
