<svg width="51" height="44" viewBox="0 0 51 44" fill="none" xmlns="http://www.w3.org/2000/svg">
<g clip-path="url(#clip0_279_8147)">
<path d="M25.8186 43.9063C21.5593 43.9062 17.3956 42.6432 13.8542 40.2768C10.3127 37.9104 7.55246 34.547 5.9225 30.6119C4.29254 26.6768 3.86607 22.3467 4.69699 18.1692C5.52792 13.9918 7.57894 10.1545 10.5907 7.14267C14.6365 3.13824 20.1032 0.898522 25.7957 0.913157C31.4881 0.927793 36.9432 3.19559 40.9684 7.22077C44.9935 11.2459 47.2613 16.7011 47.276 22.3935C47.2906 28.0859 45.0509 33.5526 41.0465 37.5984C39.0515 39.6046 36.6783 41.1951 34.0644 42.2779C31.4505 43.3606 28.6478 43.9141 25.8186 43.9063ZM25.8186 4.41958C22.2693 4.42037 18.8 5.47351 15.8493 7.44586C12.8985 9.4182 10.5988 12.2212 9.24097 15.5004C7.8831 18.7796 7.52803 22.3878 8.22065 25.8688C8.91326 29.3498 10.6225 32.5473 13.1322 35.057C15.6418 37.5667 18.8393 39.2759 22.3203 39.9685C25.8013 40.6611 29.4095 40.306 32.6887 38.9482C35.968 37.5903 38.7709 35.2906 40.7433 32.3399C42.7156 29.3891 43.7688 25.9198 43.7696 22.3706C43.764 17.6117 41.8708 13.0495 38.5055 9.68485C35.1401 6.32023 30.5774 4.42808 25.8186 4.42358V4.41958Z" fill="black"/>
<path d="M48.8113 10.5693H2.13995C1.03576 10.5693 0.140625 11.4645 0.140625 12.5687V32.288C0.140625 33.3922 1.03576 34.2874 2.13995 34.2874H48.8113C49.9155 34.2874 50.8106 33.3922 50.8106 32.288V12.5687C50.8106 11.4645 49.9155 10.5693 48.8113 10.5693Z" fill="#FEA700"/>
<path d="M43.8144 31.0534H7.13774C7.13056 30.6255 7.02814 30.2046 6.83793 29.8213C6.64772 29.4379 6.37449 29.1017 6.03811 28.8372C5.28517 28.2287 4.34299 27.9029 3.375 27.9165L3.375 16.9392C5.4513 16.9382 7.13774 15.5316 7.13774 13.8032H43.8144C43.8215 14.2313 43.9238 14.6524 44.114 15.0359C44.3042 15.4195 44.5775 15.7558 44.9141 16.0205C45.6658 16.6276 46.606 16.9529 47.5722 16.9402V27.9165C45.4969 27.9165 43.8114 29.324 43.8104 31.0514L43.8144 31.0534Z" fill="white"/>
<path d="M26.0157 28.8971C29.5883 28.8971 32.4845 26.0009 32.4845 22.4283C32.4845 18.8557 29.5883 15.9595 26.0157 15.9595C22.4431 15.9595 19.5469 18.8557 19.5469 22.4283C19.5469 26.0009 22.4431 28.8971 26.0157 28.8971Z" fill="#FEA700"/>
<path d="M40.9627 8.23407L38.2949 5.83203L11.2758 35.8398L13.9435 38.2419L40.9627 8.23407Z" fill="black"/>
</g>
<defs>
<clipPath id="clip0_279_8147">
<rect width="50.67" height="43.0715" fill="white" transform="translate(0.140625 0.834473)"/>
</clipPath>
</defs>
</svg>
