<svg width="51" height="49" viewBox="0 0 51 49" fill="none" xmlns="http://www.w3.org/2000/svg">
<g clip-path="url(#clip0_279_8122)">
<path d="M27.8223 37.6465C24.5223 37.7135 21.2303 37.8165 17.9343 37.8375C12.9343 37.8705 7.93428 37.8465 2.92828 37.8455C2.57727 37.8776 2.22348 37.8322 1.89193 37.7126C1.56038 37.593 1.25915 37.402 1.00953 37.1531C0.759904 36.9042 0.567985 36.6036 0.447331 36.2724C0.326677 35.9412 0.280233 35.5876 0.31128 35.2365C0.31128 24.5898 0.31128 13.9425 0.31128 3.29448C0.278526 2.94817 0.322636 2.5989 0.44046 2.2716C0.558284 1.94431 0.746916 1.64706 0.992888 1.40109C1.23886 1.15512 1.53611 0.966487 1.8634 0.848663C2.1907 0.730839 2.53997 0.686729 2.88628 0.719483C7.58361 0.719483 12.2809 0.722483 16.9783 0.728483C16.9783 5.18748 16.9783 9.64548 16.9783 14.2085L21.4603 10.3195L25.9193 14.1905V0.725483C30.6646 0.725483 35.4103 0.725483 40.1563 0.725483C40.4847 0.707353 40.8132 0.759497 41.1198 0.878433C41.4264 0.997369 41.7042 1.18036 41.9344 1.41518C42.1647 1.65001 42.3423 1.93126 42.4552 2.24016C42.5681 2.54907 42.6138 2.8785 42.5893 3.20648C42.5933 10.3678 42.5933 17.5295 42.5893 24.6915C42.5893 24.9425 42.6003 25.1915 42.6063 25.4425C42.6063 27.4685 42.6063 29.4945 42.6063 31.5205C42.6009 32.4212 42.5956 33.3211 42.5903 34.2205H35.4003C35.4003 33.4045 35.3953 32.6385 35.4003 31.8715C35.4214 31.6554 35.3731 31.4383 35.2623 31.2516C35.1515 31.0649 34.9841 30.9184 34.7843 30.8335C34.5808 30.7339 34.3501 30.7041 34.1279 30.7487C33.9058 30.7934 33.7045 30.91 33.5553 31.0805C31.7646 32.8625 29.9739 34.6441 28.1833 36.4255C28.015 36.5748 27.8919 36.7681 27.8277 36.9837C27.7636 37.1993 27.761 37.4285 27.8203 37.6455" fill="#FEA700"/>
<path d="M25.9186 0.725586V14.1916L21.4596 10.3206L16.9766 14.2126C16.9766 9.64959 16.9766 5.19159 16.9766 0.732586H25.9186" fill="white"/>
<path d="M36.3125 48.1318C44.0445 48.1318 50.3125 41.8638 50.3125 34.1318C50.3125 26.3998 44.0445 20.1318 36.3125 20.1318C28.5805 20.1318 22.3125 26.3998 22.3125 34.1318C22.3125 41.8638 28.5805 48.1318 36.3125 48.1318Z" fill="black"/>
<path d="M40.0308 43.7948C40.1798 43.6078 40.3358 43.4258 40.4788 43.2338C41.159 42.3159 41.5906 41.2379 41.7319 40.1043C41.8732 38.9707 41.7195 37.8197 41.2855 36.763C40.8515 35.7062 40.152 34.7794 39.2547 34.0723C38.3574 33.3652 37.2928 32.9017 36.1638 32.7268C35.7682 32.6757 35.3697 32.6513 34.9708 32.6538C34.8963 32.6438 34.8204 32.6512 34.7492 32.6754C34.678 32.6996 34.6134 32.74 34.5604 32.7933C34.5074 32.8467 34.4675 32.9116 34.4438 32.983C34.4201 33.0544 34.4133 33.1303 34.4238 33.2048C34.4178 33.8258 34.4238 34.4468 34.4238 35.1328L28.8828 31.1758L34.4218 27.2178V28.1968C34.4218 28.5038 34.4218 28.8108 34.4218 29.1178C34.4268 29.5178 34.6028 29.6858 35.0038 29.7028C35.8319 29.7015 36.6595 29.7456 37.4828 29.8348C39.0976 30.1145 40.5775 30.9121 41.6991 32.1071C42.8206 33.3021 43.5229 34.8295 43.6998 36.4588C43.871 37.8446 43.651 39.2507 43.0648 40.5182C42.4787 41.7856 41.5497 42.8637 40.3828 43.6308C40.2828 43.7058 40.1668 43.7678 40.0588 43.8308L40.0278 43.7898" fill="white"/>
</g>
<defs>
<clipPath id="clip0_279_8122">
<rect width="50" height="47.41" fill="white" transform="translate(0.310547 0.720215)"/>
</clipPath>
</defs>
</svg>
