<svg width="34" height="34" viewBox="0 0 34 34" fill="none" xmlns="http://www.w3.org/2000/svg">
<g clip-path="url(#clip0_279_8136)">
<path d="M14.5502 30.1612C14.4783 29.9713 14.4383 29.8714 14.4023 29.7714C13.422 27.0392 12.4414 24.309 11.4605 21.5808C11.2446 20.981 10.9097 20.7931 10.319 20.96C8.0952 21.5849 5.9399 22.4318 3.88564 23.488C2.98538 23.9579 2.20026 24.6211 1.58659 25.4302C0.402186 27.0478 -0.0996349 29.0659 0.189167 31.0499C0.220394 31.3997 0.314533 31.7411 0.467052 32.0575C0.720296 32.6135 1.13563 33.08 1.65862 33.3959C2.1816 33.7118 2.78783 33.8623 3.39784 33.8277C6.87174 33.8277 10.3456 33.8277 13.8195 33.8277H20.3978C23.8371 33.8277 27.276 33.8277 30.7145 33.8277C31.2281 33.8502 31.7393 33.7465 32.2035 33.5257C32.6677 33.3049 33.0708 32.9738 33.3774 32.5613C33.6903 32.1107 33.8955 31.5943 33.9772 31.0519V29.0037C33.9562 28.9088 33.9302 28.8148 33.9152 28.7198C33.7792 27.6497 33.3911 26.6271 32.7829 25.7362C32.1747 24.8453 31.3637 24.1114 30.4167 23.595C28.8321 22.7324 27.1698 22.0213 25.4517 21.4708C24.869 21.2709 24.2792 21.096 23.6844 20.9391C23.59 20.9064 23.49 20.893 23.3903 20.8996C23.2905 20.9062 23.1932 20.9328 23.1039 20.9777C23.0146 21.0226 22.9353 21.085 22.8705 21.1611C22.8057 21.2372 22.7569 21.3255 22.7268 21.4209C22.6819 21.5208 22.6479 21.6208 22.6109 21.7287C21.646 24.4176 20.6797 27.1068 19.7121 29.7964C19.6791 29.8874 19.6391 29.9763 19.5791 30.1223" fill="#FEA700"/>
<path d="M19.5904 29.2315C19.5524 29.0995 19.5304 29.0375 19.5174 28.9736C19.3005 27.884 19.1176 26.7865 18.8577 25.7079C18.6447 24.914 18.6941 24.0724 18.9986 23.3089C19.3985 22.2893 19.6983 21.2288 20.0442 20.1842C20.2891 19.4325 19.9732 18.9937 19.1855 18.9847C18.9436 18.9847 18.7007 18.9847 18.4588 18.9847C17.2807 18.9847 16.1025 18.9847 14.9243 18.9847C14.787 18.9689 14.6479 18.986 14.5184 19.0345C14.3889 19.083 14.2728 19.1615 14.1796 19.2636C14.0846 19.3877 14.025 19.5352 14.0074 19.6905C13.9898 19.8458 14.0148 20.003 14.0797 20.1452C14.5265 21.4936 14.9793 22.8441 15.4081 24.1935C15.4642 24.3823 15.4752 24.5815 15.4401 24.7753C15.2902 25.6169 15.1182 26.4556 14.9513 27.2943C14.8263 27.923 14.6984 28.5507 14.5515 29.2684" fill="#FFD483"/>
<path d="M17.727 0.00390625C18.2348 0.093869 18.7526 0.143848 19.2474 0.278793C20.9541 0.658473 22.5116 1.53146 23.7261 2.78919C24.9407 4.04693 25.7587 5.63393 26.0785 7.35287C26.5563 9.66746 26.1265 12.0772 24.8778 14.0838C23.6292 16.0904 21.6572 17.5405 19.3696 18.1343C17.082 18.728 14.6537 18.4201 12.5867 17.2741C10.5198 16.1281 8.97219 14.2317 8.26392 11.977C7.87858 10.7342 7.76019 9.4241 7.91649 8.13242C8.07279 6.84074 8.50026 5.59667 9.17089 4.48172C9.84152 3.36677 10.7402 2.40611 11.808 1.66269C12.8758 0.919261 14.0886 0.409852 15.367 0.167838C15.7118 0.103865 16.0597 0.0578839 16.4056 0.00390625H17.727Z" fill="#FFD483"/>
</g>
<defs>
<clipPath id="clip0_279_8136">
<rect width="33.84" height="33.822" fill="white" transform="translate(0.140625 0.00390625)"/>
</clipPath>
</defs>
</svg>
