<svg width="25" height="13" viewBox="0 0 25 13" fill="none" xmlns="http://www.w3.org/2000/svg">
<path d="M24.7136 5.80874L24.7127 5.80781L19.61 0.729684C19.2277 0.349264 18.6094 0.35068 18.2289 0.733004C17.8484 1.11528 17.8499 1.73359 18.2321 2.11406L21.6581 5.52343H0.976562C0.437207 5.52343 0 5.96064 0 6.5C0 7.03935 0.437207 7.47656 0.976562 7.47656H21.6581L18.2322 10.8859C17.8499 11.2664 17.8484 11.8847 18.2289 12.267C18.6094 12.6494 19.2278 12.6507 19.61 12.2703L24.7127 7.19218L24.7136 7.19126C25.0961 6.80952 25.0949 6.18921 24.7136 5.80874Z" fill="white"/>
</svg>
