<svg width="222" height="56" viewBox="0 0 222 56" fill="none" xmlns="http://www.w3.org/2000/svg">
<g clip-path="url(#clip0_174_6501)">
<path d="M129.423 14.7922C129.423 10.4696 129.456 6.14506 129.398 1.82251C129.385 0.838481 129.762 0.408217 130.717 0.308619C132.793 0.0934873 134.871 0.0974713 136.945 0.298659C137.915 0.392281 138.372 0.824537 138.368 1.88625C138.322 11.354 138.326 20.8238 138.364 30.2916C138.368 31.2876 137.944 31.6661 137.005 31.8015C134.676 32.1342 132.354 32.0744 130.025 31.7936C129.195 31.694 128.821 31.1721 128.468 30.5326C126.172 26.3953 123.854 22.27 121.54 18.1426C121.425 17.9395 121.278 17.7522 121.124 17.5231C120.777 17.9395 120.936 18.3578 120.933 18.7382C120.919 22.6624 120.9 26.5886 120.944 30.5127C120.952 31.3673 120.668 31.7856 119.777 31.8872C117.536 32.1441 115.302 32.1919 113.063 31.8513C112.352 31.7438 112.08 31.427 112.082 30.7199C112.101 20.9274 112.103 11.1349 112.078 1.34245C112.076 0.591478 112.434 0.316587 113.094 0.246868C115.601 -0.0160705 118.09 0.0795436 120.561 0.591478C121.293 0.742867 121.703 1.19106 122.033 1.80259C124.069 5.5674 126.13 9.31826 128.183 13.0751C128.512 13.6727 128.844 14.2683 129.172 14.8659C129.256 14.842 129.339 14.8181 129.423 14.7922Z" fill="white"/>
<path d="M0.000522623 15.9178C0.000522623 11.2248 -0.00156787 6.53172 0.00261312 1.83667C0.00470361 0.302862 0.148948 0.159441 1.74609 0.157449C6.97023 0.151473 12.1923 0.181353 17.4164 0.131554C18.4366 0.121594 18.9216 0.472179 19.047 1.37255C19.3021 3.22706 19.2937 5.08357 19.0554 6.93808C18.9341 7.88227 18.4178 8.28664 17.3349 8.2468C15.0458 8.16314 12.7484 8.2468 10.4572 8.20696C9.69205 8.19302 9.26977 8.30258 9.37639 9.16709C9.52272 10.3563 8.84122 11.9558 9.65442 12.6391C10.3589 13.2287 11.9937 12.8104 13.2166 12.8363C13.3023 12.8383 13.386 12.8363 13.4717 12.8363C16.344 12.8363 16.367 12.8562 16.482 15.639C16.4841 15.6788 16.4882 15.7186 16.4882 15.7605C16.5635 19.3241 16.3043 19.5631 12.6271 19.591C11.5819 19.599 10.2168 19.1408 9.57708 19.7882C8.94784 20.4257 9.52272 21.7244 9.37221 22.7144C9.18406 23.9474 9.72759 24.1745 10.9045 24.1247C13.1079 24.0311 15.3218 24.1387 17.5272 24.0789C18.493 24.053 18.9132 24.4614 19.1139 25.2781C19.5885 27.2103 19.4693 29.1305 19.0198 31.0468C18.8484 31.7798 18.4052 32.0627 17.569 32.0567C12.347 32.0209 7.12284 32.0448 1.89869 32.0348C0.41444 32.0328 0.0067941 31.6344 0.00470361 30.242C-0.00156787 25.4673 0.000522623 20.6926 0.000522623 15.9178Z" fill="white"/>
<path d="M186.518 24.0054C185.548 26.583 184.659 28.8478 183.856 31.1406C183.62 31.8158 183.277 32.1505 182.544 32.1943C180.077 32.3457 177.623 32.1824 175.17 31.9633C174.374 31.8915 174.236 31.5888 174.618 30.8736C176.193 27.9255 177.694 24.9416 179.253 21.9875C179.565 21.3999 179.6 20.9278 179.284 20.3123C177.629 17.0893 176.048 13.8324 174.393 10.6074C174.021 9.88435 174.019 9.55966 174.959 9.39831C177.794 8.91427 180.616 9.04972 183.447 9.39831C184.093 9.47799 184.256 9.86045 184.417 10.3425C185.142 12.4918 185.882 14.6352 186.706 17.0375C187.655 14.7049 188.585 12.6074 189.352 10.458C189.733 9.39035 190.381 9.01785 191.485 9.00988C193.736 8.99195 195.981 9.06964 198.229 9.20111C199.242 9.25888 199.18 9.62141 198.812 10.3345C197.112 13.6292 195.477 16.9538 193.767 20.2426C193.441 20.868 193.483 21.3082 193.828 21.9038C195.421 24.6587 196.949 27.4495 198.513 30.2203C199.337 31.6804 199.355 31.7282 197.683 31.8756C195.321 32.0848 192.956 32.3099 190.571 32.1087C189.591 32.025 189.078 31.6904 188.796 30.7462C188.148 28.5869 187.36 26.4654 186.518 24.0054Z" fill="white"/>
<path d="M156.301 24.1807C157.786 24.1827 159.276 24.1667 160.75 24.0333C163.509 23.7803 165.934 22.8461 167.017 20.1928C168.192 17.3044 168.029 14.4739 165.87 11.9759C162.822 8.45016 156.191 7.69123 151.918 10.3624C148.345 12.5954 146.986 15.9419 146.641 19.8322C145.989 27.2264 150.78 32.517 158.179 32.5111C159.924 32.4971 161.643 32.282 163.315 31.784C166.662 30.79 167.281 29.4156 165.746 26.3937C165.673 26.2483 165.571 26.1169 165.51 25.9655C165.228 25.2643 164.835 25.1428 164.07 25.4774C161.954 26.4057 159.711 26.7623 157.382 26.4655C156.519 26.3559 155.902 25.9695 155.607 25.1249C155.371 24.4456 155.486 24.1807 156.301 24.1807ZM155.488 18.8323C155.058 17.7925 155.62 16.42 156.571 15.9937C157.476 15.5854 158.44 15.5376 159.153 16.2706C159.816 16.9479 159.826 17.8642 159.349 18.641C158.854 19.4518 157.911 19.1191 157.073 19.2028C156.6 18.9936 155.802 19.5892 155.488 18.8323Z" fill="white"/>
<path d="M62.076 25.5132C59.9855 26.4036 57.7905 26.7581 55.5014 26.4733C54.5795 26.3558 53.9314 25.9634 53.6638 25.055C53.4861 24.4375 53.5781 24.1845 54.3349 24.1825C55.9466 24.1786 57.5668 24.1706 59.166 24.0053C61.3882 23.7742 63.3783 22.9933 64.6431 21.103C66.6897 18.0533 65.981 13.5395 63.1233 11.1153C59.6949 8.20901 53.4715 7.95802 49.6124 10.6093C46.1589 12.9817 44.8858 16.382 44.7207 20.2783C44.3402 25.5032 46.9073 29.9234 51.496 31.7062C54.6505 32.9312 57.9033 32.734 61.1081 31.8496C64.7497 30.8437 65.5671 29.9891 63.6292 26.0092C63.2383 25.2044 62.8223 25.1964 62.076 25.5132ZM54.7091 15.9697C55.6122 15.6071 56.578 15.5155 57.2741 16.3063C57.8992 17.0135 57.9159 17.9039 57.3974 18.6748C56.9124 19.3939 56.0909 19.1528 55.3299 19.1947C55.2024 19.2006 55.077 19.1787 54.9516 19.1608C54.4728 19.0931 53.7976 19.5313 53.5551 18.7764C53.1893 17.6549 53.7349 16.3621 54.7091 15.9697Z" fill="white"/>
<path d="M95.1717 24.0033C91.9482 24.9674 90.905 27.1944 90.6353 30.0907C90.3949 32.6464 89.0382 33.3735 86.354 32.748C85.9171 32.6464 85.5638 32.4492 85.5701 31.9413C85.5721 31.7799 85.568 31.6186 85.5638 31.4552C85.4948 28.1207 85.3568 27.9872 82.0183 28.0131C79.8066 28.031 79.2714 28.5828 79.3947 30.7142C79.4156 31.0747 79.4804 31.4393 79.4554 31.7978C79.4324 32.1165 79.3383 32.509 78.9892 32.6046C77.7474 32.9472 76.4639 32.7679 75.2033 32.7341C74.3734 32.7101 74.2396 31.8775 73.972 31.3297C71.0056 25.2403 71.9965 15.9458 78.6986 11.5814C80.9835 10.0934 83.5569 9.32453 86.3122 9.24684C87.0773 9.22493 88.0912 8.56559 88.6368 9.52372C89.149 10.4241 88.1685 10.9779 87.7504 11.6272C84.8049 16.2187 87.995 22.5392 93.7836 23.5232C94.2205 23.5989 94.6721 23.6009 95.1717 24.0033Z" fill="#FEA700"/>
<path d="M217.769 23.7799C217.769 26.1643 217.736 28.5506 217.788 30.933C217.805 31.7258 217.566 32.1461 216.717 32.2099C214.343 32.3852 211.976 32.3354 209.614 32.0127C208.765 31.8971 208.968 31.2995 208.966 30.8075C208.96 26.1184 208.932 21.4314 208.985 16.7423C208.995 15.7981 208.751 15.5013 207.737 15.5431C205.885 15.6188 205.757 15.4535 205.64 13.6707C205.6 13.0671 205.586 12.4596 205.609 11.854C205.703 9.40191 205.709 9.37203 208.238 9.25052C208.907 9.21865 208.989 8.96168 208.97 8.44178C208.939 7.59321 209.006 6.74264 208.949 5.89606C208.895 5.10126 209.219 4.68893 210.036 4.55945C212.104 4.23078 214.165 4.2487 216.232 4.56941C216.858 4.66702 217.064 4.9937 217.069 5.57137C217.073 6.73866 216.68 8.24657 217.288 8.97961C217.934 9.75648 219.586 9.16088 220.796 9.21865C221.373 9.24653 221.645 9.5035 221.749 9.99551C222.096 11.6389 222.08 13.2783 221.745 14.9256C221.599 15.6427 221.068 15.6308 220.497 15.6467C217.769 15.7244 217.769 15.7284 217.769 18.3219C217.769 20.1426 217.769 21.9612 217.769 23.7799Z" fill="white"/>
<path d="M36.6793 16.133C36.6793 21.0273 36.6563 25.9235 36.7002 30.8177C36.7086 31.6623 36.4075 31.9771 35.5734 32.0089C33.3659 32.0926 31.1604 32.1065 28.9549 32.0089C28.2128 31.9771 27.9745 31.6703 27.9766 30.9452C28.0017 21.0751 28.0017 11.2049 27.9766 1.33473C27.9745 0.53396 28.3215 0.300901 29.0699 0.195327C31.3611 -0.127371 33.6397 0.0100742 35.9246 0.213254C36.7587 0.286957 36.6835 0.792915 36.6835 1.33074C36.6772 6.26284 36.6793 11.1969 36.6793 16.133Z" fill="white"/>
<path d="M103.531 23.0214C103.494 22.7425 103.469 22.4576 103.395 22.1827C102.384 18.2466 100.596 14.675 97.7698 11.6194C95.8173 9.5079 93.2251 8.97007 91.2475 10.235C88.7807 11.8166 88.0469 14.1093 88.4462 16.7786C88.8288 19.3243 91.0259 21.4059 93.7498 22.0592C95.88 22.5692 97.8158 21.9477 99.9941 21.0752C99.4506 21.9577 98.8464 22.3043 98.2235 22.6489C96.8479 23.4058 96.9211 23.3799 97.6883 24.7185C98.0729 25.3858 98.4283 25.5392 99.1621 25.352C100.138 25.1049 101.14 24.8739 102.145 24.8081C103.443 24.7245 103.675 24.0412 103.531 23.0214ZM93.2648 17.1989C92.5227 17.165 92.0481 16.7228 92.0795 16.0356C92.1046 15.418 92.5457 15.0017 93.2606 15.0077C94.0487 15.0177 94.3142 15.5495 94.4689 16.1451C94.2996 16.7686 93.9839 17.2347 93.2648 17.1989Z" fill="#FEA700"/>
<path d="M98.3711 25.9994C99.7048 25.7783 101.026 25.5771 102.341 25.3341C102.803 25.2484 103.202 25.2723 103.43 25.6827C103.66 26.095 103.587 26.5551 103.38 26.9615C103.171 27.3719 102.772 27.4774 102.314 27.4077C101.323 27.2563 100.336 27.0671 99.339 26.9774C98.6972 26.9157 98.4714 26.597 98.3711 25.9994Z" fill="#FEA905"/>
<path d="M95.6129 31.2482C95.4686 30.4176 95.9097 29.9156 96.7815 29.9435C97.7807 29.9754 98.3075 30.7841 98.3577 31.541C98.4288 32.6267 97.348 32.5171 96.5829 32.5848C95.5397 32.6765 95.5815 31.9593 95.6129 31.2482Z" fill="#FEA906"/>
<path d="M99.857 27.5566C100.566 27.6702 101.268 27.7897 101.973 27.8933C102.662 27.9949 102.769 28.455 102.625 28.965C102.472 29.5028 102.035 29.7697 101.454 29.5685C100.783 29.3355 100.108 29.0785 99.4995 28.7279C99.1671 28.5367 98.4041 28.6004 98.6257 27.9351C98.8201 27.3594 99.4409 27.714 99.857 27.5566Z" fill="#FEAA07"/>
<path d="M98.2631 29.0749C99.256 29.0908 99.8456 29.4135 100.443 29.7103C101.048 30.0111 101.196 30.4792 100.797 30.9931C100.385 31.521 99.8288 31.8477 99.1912 31.2879C98.7606 30.9095 98.3885 30.4633 98.0164 30.029C97.8659 29.8537 97.6673 29.6406 97.7864 29.3896C97.9286 29.0848 98.2442 29.0729 98.2631 29.0749Z" fill="#FEA906"/>
<path d="M148.828 50.5461L153.666 50.2573C153.77 51.0063 153.983 51.576 154.305 51.9684C154.828 52.6038 155.576 52.9206 156.55 52.9206C157.276 52.9206 157.836 52.7592 158.229 52.4345C158.622 52.1098 158.819 51.7333 158.819 51.3071C158.819 50.9007 158.633 50.5362 158.258 50.2155C157.884 49.8948 157.017 49.592 155.654 49.3071C153.423 48.8291 151.834 48.1956 150.883 47.4028C149.926 46.612 149.447 45.6021 149.447 44.377C149.447 43.5723 149.692 42.8094 150.183 42.0943C150.672 41.3771 151.41 40.8154 152.395 40.4051C153.377 39.9947 154.728 39.7896 156.44 39.7896C158.543 39.7896 160.144 40.162 161.25 40.907C162.354 41.652 163.01 42.8373 163.219 44.4627L158.428 44.7296C158.3 44.0245 158.033 43.5105 157.625 43.1898C157.217 42.8691 156.655 42.7078 155.936 42.7078C155.344 42.7078 154.899 42.8273 154.6 43.0663C154.301 43.3054 154.151 43.5962 154.151 43.9388C154.151 44.1878 154.274 44.4129 154.521 44.6121C154.761 44.8193 155.33 45.0105 156.226 45.1898C158.449 45.6459 160.039 46.1081 161.001 46.5742C161.963 47.0403 162.663 47.6199 163.1 48.3112C163.537 49.0024 163.756 49.7772 163.756 50.6318C163.756 51.6377 163.464 52.564 162.88 53.4126C162.297 54.2611 161.482 54.9045 160.435 55.3428C159.387 55.781 158.066 56.0001 156.473 56.0001C153.674 56.0001 151.736 55.4862 150.659 54.4603C149.581 53.4345 148.97 52.1297 148.828 50.5461Z" fill="white"/>
<path d="M170.289 48.0543L165.924 47.616C166.089 46.889 166.326 46.3173 166.637 45.899C166.946 45.4827 167.394 45.1201 167.979 44.8134C168.397 44.5923 168.974 44.4209 169.708 44.2994C170.442 44.1779 171.234 44.1182 172.087 44.1182C173.456 44.1182 174.556 44.1919 175.386 44.3373C176.216 44.4827 176.908 44.7875 177.462 45.2516C177.85 45.5723 178.158 46.0265 178.381 46.6161C178.605 47.2037 178.718 47.7654 178.718 48.3013V53.317C178.718 53.8509 178.754 54.2712 178.825 54.574C178.896 54.8767 179.05 55.2632 179.291 55.7353H175.003C174.83 55.4425 174.719 55.2194 174.667 55.066C174.614 54.9126 174.562 54.6716 174.51 54.3449C173.91 54.8947 173.316 55.2851 172.725 55.5221C171.916 55.8349 170.977 55.9922 169.907 55.9922C168.485 55.9922 167.404 55.6795 166.668 55.052C165.93 54.4246 165.562 53.6517 165.562 52.7314C165.562 51.8689 165.828 51.1597 166.359 50.604C166.89 50.0482 167.87 49.6339 169.3 49.363C171.012 49.0343 172.125 48.8053 172.635 48.6738C173.143 48.5423 173.682 48.369 174.251 48.1559C174.251 47.622 174.134 47.2475 173.904 47.0324C173.672 46.8193 173.264 46.7117 172.681 46.7117C171.932 46.7117 171.372 46.8252 170.998 47.0543C170.705 47.2276 170.469 47.5623 170.289 48.0543ZM174.251 50.343C173.621 50.5562 172.967 50.7454 172.286 50.9108C171.357 51.1458 170.77 51.3769 170.523 51.6059C170.268 51.841 170.141 52.1079 170.141 52.4087C170.141 52.7513 170.266 53.0302 170.517 53.2473C170.768 53.4644 171.136 53.574 171.623 53.574C172.131 53.574 172.605 53.4565 173.042 53.2214C173.479 52.9864 173.791 52.6995 173.975 52.3609C174.159 52.0223 174.251 51.582 174.251 51.0402V50.343Z" fill="white"/>
<path d="M181.727 40.0547H186.305V55.7334H181.727V40.0547Z" fill="white"/>
<path d="M189.5 40.0547H194.078V55.7334H189.5V40.0547Z" fill="white"/>
<path d="M210.343 51.1358H201.184C201.266 51.835 201.464 52.3549 201.78 52.6975C202.221 53.1896 202.798 53.4346 203.509 53.4346C203.958 53.4346 204.385 53.327 204.788 53.1139C205.035 52.9784 205.3 52.7394 205.585 52.3968L210.085 52.7932C209.398 53.9345 208.566 54.7513 207.594 55.2473C206.622 55.7432 205.225 55.9902 203.406 55.9902C201.828 55.9902 200.584 55.7791 199.681 55.3548C198.776 54.9305 198.025 54.2572 197.432 53.333C196.838 52.4087 196.539 51.3251 196.539 50.0761C196.539 48.3013 197.135 46.8651 198.329 45.7655C199.522 44.6679 201.169 44.1182 203.273 44.1182C204.978 44.1182 206.325 44.3632 207.313 44.8552C208.3 45.3472 209.053 46.0603 209.569 46.9946C210.085 47.9288 210.343 49.1439 210.343 50.6418V51.1358ZM205.695 49.0503C205.606 48.2097 205.367 47.6061 204.983 47.2436C204.596 46.879 204.09 46.6978 203.463 46.6978C202.737 46.6978 202.156 46.9726 201.723 47.5204C201.448 47.8631 201.27 48.373 201.197 49.0503H205.695Z" fill="white"/>
<path d="M212.602 44.3751H216.879V46.2356C217.291 45.4309 217.715 44.8751 218.152 44.5723C218.589 44.2696 219.13 44.1182 219.774 44.1182C220.447 44.1182 221.183 44.3174 221.986 44.7177L220.573 47.8192C220.033 47.6061 219.607 47.4985 219.293 47.4985C218.693 47.4985 218.231 47.7336 217.901 48.2037C217.431 48.867 217.194 50.108 217.194 51.9247V55.7313H212.604V44.3751H212.602Z" fill="white"/>
</g>
<defs>
<clipPath id="clip0_174_6501">
<rect width="222" height="56" fill="white"/>
</clipPath>
</defs>
</svg>
