<svg width="27" height="27" viewBox="0 0 27 27" fill="none" xmlns="http://www.w3.org/2000/svg">
<rect x="0.449219" y="0.279785" width="26" height="26" rx="5" fill="#FEA700"/>
<g clip-path="url(#clip0_279_8025)">
<path d="M8.46289 13.6894V12.8307C8.46929 12.7539 8.47569 12.6764 8.48279 12.5996C8.529 12.0971 8.56739 11.5945 8.62497 11.0933C8.6416 10.9126 8.69585 10.7373 8.78424 10.5788C8.87263 10.4202 8.9932 10.2819 9.13821 10.1727C9.37529 10.0027 9.65834 9.90853 9.95002 9.90262C10.6794 9.85499 11.4101 9.7967 12.1409 9.78675C13.2556 9.77182 14.3716 9.77964 15.4863 9.80736C16.0507 9.82016 16.6151 9.87845 17.1767 9.94101C17.44 9.96669 17.688 10.0766 17.8838 10.2545C18.0796 10.4324 18.2128 10.6688 18.2636 10.9284C18.375 11.4314 18.4313 11.9451 18.4314 12.4603C18.4413 13.1051 18.4363 13.7505 18.41 14.3946C18.3913 14.7817 18.3455 15.167 18.2729 15.5476C18.2414 15.8131 18.121 16.0601 17.9313 16.2484C17.7415 16.4368 17.4936 16.5553 17.2279 16.5848C16.7488 16.6559 16.266 16.6991 15.782 16.7141C14.8593 16.7449 13.9351 16.7601 13.0096 16.7596C11.9363 16.7743 10.8632 16.7221 9.79648 16.6032C9.51318 16.5829 9.24515 16.4671 9.03622 16.2747C8.82729 16.0823 8.68982 15.8247 8.64629 15.5441C8.57521 15.1581 8.54535 14.7621 8.50412 14.3718C8.48279 14.1458 8.4764 13.9183 8.46289 13.6894ZM12.4658 14.7699L15.074 13.2629L12.4658 11.7615V14.7699Z" fill="white"/>
</g>
<defs>
<clipPath id="clip0_279_8025">
<rect width="9.97275" height="6.98" fill="white" transform="translate(8.46289 9.77979)"/>
</clipPath>
</defs>
</svg>
